<?xml version="1.0" standalone="no"?>
<!DOCTYPE svg PUBLIC "-//W3C//DTD SVG 20010904//EN"
 "http://www.w3.org/TR/2001/REC-SVG-20010904/DTD/svg10.dtd">
<svg version="1.0" xmlns="http://www.w3.org/2000/svg" width="1229.9pt" height="715.9pt" viewBox="144.0 164.6 1229.9 715.9" preserveAspectRatio="xMidYMid meet">

<g transform="translate(0.000000,1086.000000) scale(0.100000,-0.100000)"
fill="#F2E8D5" stroke="none">
<path d="M3168 9116 c-52 -19 -137 -75 -149 -97 -19 -36 18 -33 71 6 147 108
297 83 516 -85 35 -27 94 -66 131 -86 85 -47 119 -76 213 -181 90 -100 130
-167 112 -185 -10 -10 -18 -9 -41 5 -35 21 -80 22 -107 3 -17 -13 -16 -14 21
-10 27 4 46 1 60 -10 20 -15 20 -15 -1 -16 -11 0 -29 -9 -39 -20 -18 -20 -18
-20 16 -14 19 4 87 24 151 45 185 61 275 53 450 -38 147 -78 179 -127 130
-203 -49 -78 -248 -231 -350 -271 -121 -47 -254 -21 -308 61 -35 53 -72 73
-104 57 -36 -18 -38 -38 -2 -31 30 6 72 -9 72 -26 0 -6 -7 -10 -16 -10 -9 0
-29 -14 -45 -31 -39 -42 -70 -34 -109 27 -36 57 -40 85 -42 254 -2 121 0 140
21 187 13 29 29 58 37 64 8 6 14 16 14 22 0 23 -50 -38 -70 -86 -28 -65 -36
-181 -21 -301 13 -109 43 -172 94 -199 33 -17 38 -17 66 -2 17 8 37 24 44 35
20 32 25 23 26 -42 0 -35 5 -76 10 -93 8 -25 10 -16 11 50 l3 80 8 -75 c25
-222 29 -275 30 -385 1 -101 3 -114 11 -80 10 41 4 436 -8 489 l-7 28 26 -17
c41 -27 79 -181 101 -407 10 -103 14 -125 20 -98 10 48 -10 268 -34 368 -11
46 -20 89 -20 95 0 8 28 12 88 12 84 0 93 2 173 42 111 56 293 209 327 275 35
67 25 109 -38 170 -53 51 -203 130 -280 147 -74 17 -182 13 -252 -9 -34 -11
-66 -20 -70 -20 -4 0 -14 15 -21 33 -8 17 -37 63 -66 101 -29 38 -45 66 -36
63 8 -4 45 -12 81 -18 49 -8 75 -19 102 -43 35 -30 36 -30 20 -4 -23 36 -15
38 137 38 111 0 133 3 237 35 158 48 327 91 439 111 131 24 357 25 464 0 176
-40 341 -130 497 -275 48 -44 100 -87 116 -95 15 -8 34 -26 42 -40 7 -14 17
-26 22 -26 5 0 6 5 2 11 -5 8 3 10 27 5 19 -3 72 -11 119 -16 286 -36 457 -75
812 -189 177 -56 319 -83 593 -111 315 -32 614 -42 902 -30 419 17 657 46
1098 135 532 106 689 121 1107 103 205 -9 321 -9 495 0 247 13 349 7 520 -27
169 -35 267 -75 404 -166 253 -169 387 -416 459 -850 35 -215 41 -340 50
-1055 9 -754 16 -884 65 -1125 13 -66 42 -178 63 -250 72 -239 83 -335 22
-187 -18 45 -35 80 -37 78 -2 -1 4 -50 13 -107 15 -91 15 -121 5 -239 -7 -75
-10 -154 -6 -175 15 -99 16 -111 4 -92 -32 53 -61 167 -66 266 -7 118 -20 116
-29 -6 -6 -68 -3 -89 20 -158 15 -44 41 -108 58 -142 16 -34 33 -85 37 -115
l8 -53 8 39 c4 22 5 101 2 177 -4 75 -4 204 0 285 l6 149 17 -39 c52 -116 33
110 -30 360 -42 163 -62 271 -95 509 -3 22 -9 362 -14 755 -5 393 -14 771 -20
840 -25 281 -69 513 -132 682 -157 428 -523 669 -1064 702 -49 3 -184 0 -298
-7 -165 -10 -260 -10 -455 0 -399 20 -576 4 -1087 -97 -448 -88 -685 -119
-1080 -141 -378 -21 -874 7 -1259 72 -66 11 -211 49 -326 84 -323 100 -455
131 -715 165 -88 12 -178 29 -200 39 -22 10 -88 61 -146 113 -126 113 -201
165 -312 219 -286 137 -576 130 -1084 -26 l-174 -54 -172 4 c-112 2 -200 9
-252 20 -72 16 -85 22 -136 69 -30 28 -87 68 -126 89 -39 20 -95 56 -124 79
-69 55 -79 61 -168 105 -66 32 -85 37 -160 40 -56 2 -99 -2 -123 -11z"/>
<path d="M2875 8947 c-198 -83 -219 -101 -457 -394 -39 -48 -47 -53 -84 -53
-23 0 -86 14 -140 32 -85 27 -114 32 -204 32 -90 1 -118 -3 -193 -28 -103 -34
-199 -92 -227 -138 -22 -36 -26 -91 -10 -133 26 -68 244 -237 380 -295 82 -34
244 -40 320 -11 51 19 55 20 64 3 6 -9 9 -77 7 -152 -3 -149 -11 -180 -94
-345 -54 -110 -91 -162 -153 -218 -67 -61 -73 -80 -76 -277 -3 -143 -1 -158
19 -196 30 -57 102 -90 142 -65 9 6 28 -7 65 -44 57 -60 93 -74 196 -76 188
-6 226 -4 250 12 23 15 27 15 65 -9 62 -38 82 -60 124 -136 41 -74 123 -161
182 -191 51 -27 130 -45 164 -39 22 4 48 -4 98 -30 88 -46 151 -49 232 -9 l56
28 44 -24 c53 -28 84 -73 155 -225 59 -128 108 -197 152 -219 l32 -16 2 -143
c3 -251 42 -397 129 -485 l53 -52 4 -98 c5 -109 22 -156 79 -212 35 -36 99
-71 127 -71 11 0 25 -7 33 -16 9 -11 22 -14 41 -10 18 3 27 2 23 -4 -11 -18
42 -10 66 10 l24 19 -37 -6 c-28 -4 -43 -1 -64 16 -14 11 -44 26 -64 31 -21 6
-60 25 -86 43 -66 44 -98 107 -102 201 l-3 71 23 -26 c38 -43 65 -53 94 -34
13 8 24 21 24 27 0 9 -3 9 -12 0 -26 -26 -57 -13 -96 41 -22 29 -55 64 -73 79
-44 33 -82 103 -111 203 -20 72 -23 101 -23 297 0 211 -6 262 -20 177 l-7 -41
-30 29 c-46 43 -106 135 -140 216 -56 131 -141 237 -202 253 -24 6 -25 7 -9
30 24 38 5 43 -25 7 -71 -83 -200 -101 -290 -39 -46 32 -54 34 -104 29 -102
-10 -218 66 -289 190 -53 91 -93 134 -147 159 -46 21 -48 38 -4 38 52 0 107
22 139 57 18 19 33 41 33 48 0 8 15 17 38 20 57 10 72 15 72 26 0 6 -15 7 -37
3 -21 -3 -42 -7 -47 -8 -14 -2 -6 145 11 196 23 70 9 81 -21 16 -17 -38 -28
-84 -32 -137 -8 -91 -26 -130 -76 -162 -43 -27 -96 -21 -288 28 -123 31 -162
37 -255 37 -97 1 -115 -2 -148 -21 -30 -18 -41 -20 -56 -11 -38 24 -45 50 -49
183 l-3 130 26 -30 c30 -35 55 -86 48 -98 -3 -5 -11 0 -18 10 -17 23 -29 11
-21 -22 9 -34 35 -44 52 -20 27 36 10 99 -41 155 -13 14 -26 43 -29 65 -6 36
-4 43 23 69 33 32 57 32 161 2 50 -15 62 -15 140 0 147 27 255 2 300 -71 24
-39 39 -41 20 -3 -31 58 -72 84 -165 104 -52 12 -72 11 -147 -3 -82 -15 -91
-15 -172 3 -84 18 -100 26 -72 37 20 8 102 136 142 222 36 77 116 311 129 375
7 31 6 33 -9 21 -19 -16 -17 -26 -20 104 -1 60 -8 103 -19 129 -9 22 -19 37
-21 35 -2 -2 5 -51 15 -108 17 -95 19 -142 3 -95 -24 73 -48 124 -60 124 -8 0
-14 10 -14 25 0 32 -21 32 -57 -1 l-28 -25 25 5 c20 4 28 0 38 -21 6 -15 12
-30 12 -35 0 -19 -115 -40 -195 -36 -68 4 -94 10 -165 44 -47 21 -120 65 -162
96 -201 149 -224 225 -95 309 148 96 320 116 504 60 56 -17 120 -31 142 -31
22 0 43 -4 46 -10 11 -18 19 -11 68 55 27 36 52 65 56 65 5 0 28 28 52 63 96
136 212 226 362 279 82 29 121 53 111 69 -9 15 -36 9 -139 -34z m-493 -1069
c2 -13 1 -39 -2 -58 -5 -33 -6 -34 -13 -10 -10 35 -9 90 2 90 5 0 10 -10 13
-22z m148 -1164 c186 -49 181 -46 145 -70 -29 -19 -60 -21 -235 -15 -107 3
-129 10 -177 57 -24 24 -52 44 -61 44 -15 0 -15 2 -2 10 8 5 56 10 105 10 72
0 117 -7 225 -36z"/>
<path d="M3244 8925 c-38 -19 -83 -48 -99 -66 -32 -35 -28 -33 55 20 30 19 82
45 115 58 52 19 56 22 29 22 -17 1 -62 -15 -100 -34z"/>
<path d="M3040 8943 c0 -6 7 -16 16 -24 8 -7 22 -26 30 -43 l14 -31 -6 30 c-5
29 -54 91 -54 68z"/>
<path d="M3627 8783 c46 -110 57 -190 39 -280 -16 -85 -4 -88 20 -5 l17 57 13
-35 c22 -61 15 -9 -12 89 -27 101 -65 194 -83 205 -5 4 -3 -10 6 -31z"/>
<path d="M2934 8750 c20 -67 26 -104 21 -121 -11 -33 9 -21 80 51 63 64 79 91
31 55 -10 -8 -22 -12 -27 -10 -4 3 -18 -9 -31 -26 l-24 -30 -12 39 c-7 22 -20
46 -29 53 -15 13 -16 11 -9 -11z"/>
<path d="M4400 8660 c0 -6 14 -31 32 -54 17 -22 33 -43 35 -45 2 -2 6 -2 9 2
4 3 -3 21 -15 40 -26 42 -61 75 -61 57z"/>
<path d="M2882 8498 c-38 -63 -55 -111 -49 -135 2 -11 21 18 50 81 51 107 51
106 39 106 -4 0 -22 -24 -40 -52z"/>
<path d="M2317 8397 c-10 -21 -20 -51 -24 -68 -3 -16 -9 -32 -14 -34 -4 -3
-37 17 -74 45 -91 69 -116 80 -177 80 -47 0 -224 -47 -214 -57 2 -2 36 2 77 8
111 17 216 -3 283 -53 18 -14 15 -15 -29 -21 -43 -6 -145 -52 -145 -66 0 -3
24 -7 53 -8 28 -1 89 -5 135 -8 l82 -7 -60 -39 c-33 -21 -60 -43 -60 -49 0
-12 6 -9 67 32 50 33 53 34 53 8 0 -11 7 -20 15 -20 10 0 15 10 15 31 0 17 9
71 21 120 11 48 19 101 17 116 l-4 28 -17 -38z m-77 -132 c50 -26 37 -39 -31
-31 -34 3 -85 6 -113 6 -41 1 -47 3 -33 11 17 10 88 25 130 28 10 0 31 -6 47
-14z"/>
<path d="M4245 8396 c-27 -13 -61 -36 -75 -50 -23 -25 -23 -28 -7 -37 25 -14
21 -29 -8 -29 -15 0 -40 -7 -57 -16 l-32 -17 22 -17 c12 -10 22 -20 22 -22 0
-1 -20 -4 -45 -5 -25 -1 -55 -3 -67 -4 -13 -1 -31 1 -40 5 -15 7 -16 5 -5 -18
8 -17 18 -24 29 -20 9 3 44 -7 78 -21 71 -30 88 -28 36 5 -20 12 -36 25 -36
29 0 4 26 5 58 3 92 -7 105 1 47 27 l-50 23 25 13 c33 18 124 19 183 1 26 -8
47 -10 47 -6 0 10 -66 36 -114 45 -46 9 -39 17 39 40 79 24 53 32 -36 10 -38
-10 -72 -15 -75 -12 -3 3 18 20 48 37 50 29 58 31 128 27 41 -3 102 -14 134
-26 65 -23 85 -21 39 2 -55 29 -152 57 -195 57 -24 0 -65 -11 -93 -24z"/>
<path d="M2806 8312 c-12 -19 -56 -155 -52 -159 6 -7 67 148 63 160 -2 8 -5 8
-11 -1z"/>
<path d="M5962 8264 c-2 -57 -34 -241 -57 -324 -19 -71 -12 -75 14 -7 33 91
52 205 48 297 -1 49 -4 63 -5 34z"/>
<path d="M3851 8198 c0 -60 3 -98 9 -98 11 0 12 59 0 140 -7 50 -7 47 -9 -42z"/>
<path d="M3333 8225 c-97 -44 -173 -144 -214 -278 -24 -80 -4 -67 31 20 51
128 109 197 210 252 66 37 47 41 -27 6z"/>
<path d="M3390 8092 c-9 -4 -25 -14 -36 -22 -24 -18 -124 -138 -124 -149 0 -5
25 0 56 10 37 12 70 17 94 13 25 -4 49 -1 69 9 17 9 31 11 31 5 0 -5 -13 -15
-30 -21 -16 -6 -30 -15 -30 -19 0 -26 78 25 86 57 3 14 15 30 25 36 26 13 13
32 -17 25 -13 -4 -40 0 -60 9 -20 8 -45 15 -56 15 -12 0 -16 4 -12 11 4 8 29
10 73 6 59 -5 63 -4 41 9 -26 14 -84 17 -110 6z m-60 -122 c0 -5 -5 -10 -11
-10 -5 0 -7 5 -4 10 3 6 8 10 11 10 2 0 4 -4 4 -10z"/>
<path d="M3552 8068 c-14 -14 -16 -28 -3 -28 9 0 24 30 18 36 -2 2 -9 -2 -15
-8z"/>
<path d="M5840 7944 c-11 -25 -20 -48 -20 -50 0 -2 -34 -82 -76 -177 -77 -174
-164 -415 -163 -452 0 -11 17 27 38 85 21 58 74 186 118 285 72 161 111 264
126 333 8 36 -2 25 -23 -24z"/>
<path d="M11990 7961 c0 -6 3 -11 8 -11 15 0 145 -118 208 -190 213 -241 322
-563 355 -1050 25 -371 -20 -753 -126 -1077 -81 -245 -167 -396 -296 -518 -38
-36 -66 -65 -62 -65 15 0 87 52 131 93 23 23 42 37 42 32 -2 -31 -72 -212
-101 -260 -48 -81 -139 -177 -212 -224 -73 -48 -58 -55 22 -10 79 44 133 91
177 151 21 29 41 57 46 63 10 11 0 -133 -13 -195 -5 -25 -39 -134 -74 -243
-36 -108 -65 -204 -65 -213 0 -24 18 -7 25 24 3 16 26 77 50 136 25 60 45 112
45 116 0 4 7 25 16 46 l17 39 18 -76 c10 -42 37 -119 61 -170 35 -78 43 -107
46 -169 4 -68 0 -85 -31 -166 -19 -50 -42 -124 -51 -165 -22 -102 -72 -488
-91 -694 -16 -171 -23 -536 -11 -573 4 -13 -5 -37 -29 -73 -20 -30 -52 -98
-73 -151 -20 -54 -40 -98 -44 -98 -4 0 -13 19 -19 43 -19 66 -32 70 -26 7 5
-51 33 -131 46 -130 3 1 41 73 84 160 43 88 80 160 82 160 2 0 4 -40 4 -88 -1
-82 6 -126 33 -211 13 -42 15 -40 68 110 60 167 129 295 209 389 l30 35 -34
-85 c-44 -109 -63 -183 -76 -295 -5 -49 -12 -99 -15 -110 -5 -19 -4 -19 10 -2
8 10 20 42 26 70 14 58 47 122 79 151 l21 19 -5 -44 c-20 -177 -23 -218 -17
-247 7 -34 7 -34 64 65 65 112 173 268 164 238 -27 -97 -42 -253 -29 -298 8
-26 10 -23 60 61 102 175 257 356 385 450 70 51 80 53 39 7 -102 -116 -214
-357 -236 -510 l-8 -49 82 76 c46 42 113 96 149 121 62 41 178 107 190 107 2
0 -13 -19 -35 -42 -21 -24 -54 -65 -72 -91 -33 -48 -85 -167 -77 -175 3 -2 17
8 33 22 42 39 193 105 181 79 -2 -4 -16 -32 -31 -61 -16 -30 -26 -56 -24 -58
3 -3 31 11 63 31 33 19 110 52 172 71 62 20 111 38 108 41 -9 9 -167 -28 -223
-52 -31 -14 -57 -25 -60 -25 -10 0 23 48 51 72 17 15 25 27 18 28 -26 0 -158
-33 -185 -47 -16 -8 -31 -12 -35 -9 -11 12 93 148 165 216 41 39 71 70 66 70
-23 0 -129 -42 -205 -82 -83 -43 -217 -137 -252 -176 -35 -40 -36 -23 -5 66
65 183 128 293 247 430 35 40 62 75 60 78 -9 8 -132 -64 -201 -117 -98 -76
-224 -212 -308 -332 -40 -56 -77 -106 -82 -112 -20 -22 25 221 59 310 11 31
-70 -50 -125 -125 -27 -36 -68 -98 -91 -138 -24 -39 -44 -71 -45 -70 -6 7 15
207 24 238 20 64 11 65 -50 5 l-61 -60 7 35 c12 55 72 207 115 289 22 41 38
76 37 78 -9 8 -125 -109 -178 -180 -64 -85 -143 -239 -176 -339 -10 -32 -21
-58 -24 -58 -4 0 -9 12 -13 28 -3 15 -10 45 -15 67 -9 36 -8 38 5 21 21 -30
26 -14 15 55 -46 300 -38 560 34 1094 37 274 52 348 93 449 32 82 36 100 36
186 0 92 -1 98 -46 196 -66 141 -81 205 -81 349 1 219 43 392 157 647 73 164
114 283 155 453 l29 120 1 -240 c1 -390 -13 -509 -99 -850 -32 -126 -63 -270
-68 -320 -9 -86 -3 -217 10 -230 3 -3 9 36 12 87 11 144 25 233 56 338 127
427 143 596 135 1445 -5 575 -7 614 -31 785 -52 365 -170 647 -346 828 -73 75
-248 197 -248 173z"/>
<path d="M3536 7928 c-3 -18 -20 -60 -36 -92 -26 -52 -28 -57 -9 -40 36 31 85
164 61 164 -5 0 -13 -15 -16 -32z"/>
<path d="M3115 7852 c-55 -34 -93 -88 -119 -172 -32 -101 -33 -146 -2 -65 42
110 74 162 128 209 53 46 49 62 -7 28z"/>
<path d="M3782 7543 c-14 -171 -31 -258 -77 -400 -41 -129 -86 -208 -172 -306
-153 -176 -165 -209 -24 -70 54 54 114 123 133 153 91 145 146 359 155 613 3
86 4 157 1 157 -2 0 -10 -66 -16 -147z"/>
<path d="M5161 7565 c-25 -125 -61 -234 -166 -505 -115 -295 -189 -528 -240
-755 -40 -184 -69 -344 -63 -351 3 -2 15 44 28 103 72 349 149 610 270 918 54
138 110 286 123 330 33 105 69 278 65 307 -2 13 -9 -8 -17 -47z"/>
<path d="M3552 7413 c-28 -139 -82 -306 -128 -399 -41 -83 -188 -262 -259
-316 -63 -48 -101 -55 -192 -36 -40 8 -73 12 -73 9 0 -3 29 -15 65 -25 84 -24
151 -18 205 18 l41 27 -8 -28 c-13 -44 -9 -155 6 -193 21 -54 84 -155 88 -143
2 6 -7 34 -22 62 -58 116 -65 220 -20 312 12 25 58 92 102 150 121 159 159
254 203 502 28 156 22 204 -8 60z"/>
<path d="M4237 7230 c-5 -209 -25 -391 -57 -533 -5 -24 -12 -96 -14 -158 l-5
-114 15 75 c76 384 89 484 87 705 -1 286 -18 303 -26 25z"/>
<path d="M4747 7100 c-25 -135 -87 -369 -146 -550 -69 -217 -87 -282 -106
-383 -24 -127 -14 -149 14 -32 13 55 49 181 81 280 105 328 187 674 178 752
-2 17 -10 -10 -21 -67z"/>
<path d="M2235 7140 c25 -11 82 -11 115 0 17 5 0 8 -55 8 -53 0 -73 -2 -60 -8z"/>
<path d="M2549 7120 c-9 -24 -22 -34 -70 -51 -98 -36 -127 -98 -71 -152 28
-27 62 -36 62 -17 0 6 5 10 10 10 6 0 10 -18 10 -40 0 -22 5 -40 10 -40 6 0
10 15 10 33 0 26 9 41 45 74 49 47 69 99 59 154 -13 64 -48 80 -65 29z m26
-119 c-15 -30 -60 -61 -88 -61 -8 0 -20 -7 -27 -15 -9 -11 -16 -12 -26 -4 -40
33 -16 89 38 89 41 0 82 24 98 57 l14 28 4 -32 c2 -17 -4 -45 -13 -62z"/>
<path d="M4115 7028 c-51 -149 -69 -197 -100 -268 -45 -104 -65 -193 -64 -285
l2 -70 13 91 c8 54 31 138 57 210 47 125 91 260 101 307 6 27 -1 38 -9 15z"/>
<path d="M3152 6833 c-20 -13 -45 -23 -54 -23 -10 0 -18 -5 -18 -11 0 -7 10
-9 28 -5 71 17 129 36 145 49 34 24 -58 15 -101 -10z"/>
<path d="M2120 6800 c6 -11 13 -20 16 -20 2 0 0 9 -6 20 -6 11 -13 20 -16 20
-2 0 0 -9 6 -20z"/>
<path d="M5153 6633 c-187 -394 -251 -672 -223 -965 12 -126 35 -251 52 -278
7 -12 8 -10 4 5 -12 47 -36 261 -36 324 0 281 83 601 264 1014 9 20 14 37 10
37 -3 0 -35 -62 -71 -137z"/>
<path d="M4096 6571 c-13 -20 -35 -205 -41 -338 -3 -76 -7 -183 -10 -238 -11
-258 29 83 53 455 9 128 9 139 -2 121z"/>
<path d="M9960 6294 c0 -19 -45 -222 -65 -294 -31 -109 -92 -284 -115 -330
-10 -19 -25 -53 -34 -75 -14 -36 -14 -38 0 -20 39 50 121 241 158 368 35 119
76 357 62 357 -3 0 -6 -3 -6 -6z"/>
<path d="M4432 6235 c-84 -322 -117 -501 -142 -770 -13 -139 -35 -257 -56
-297 -8 -16 -10 -28 -5 -28 29 0 69 154 96 365 24 192 61 420 96 593 17 84 28
158 26 165 -2 7 -9 -6 -15 -28z"/>
<path d="M7407 6030 c5 -129 -9 -419 -28 -544 -31 -216 -106 -491 -166 -609
-36 -72 -21 -68 19 5 87 158 140 342 175 606 18 142 21 543 4 622 -7 34 -8 15
-4 -80z"/>
<path d="M7203 6060 c17 -85 29 -267 23 -364 -11 -187 -39 -293 -116 -447 -63
-126 -75 -163 -100 -310 -20 -123 -46 -194 -94 -265 l-26 -38 3 134 c2 143
-10 293 -22 285 -5 -2 -11 -89 -14 -192 -8 -246 -46 -499 -124 -828 -41 -173
-66 -228 -135 -302 -60 -63 -53 -68 20 -13 l53 40 -6 -52 c-11 -93 -34 -171
-76 -258 -23 -47 -42 -98 -43 -115 -2 -16 -9 -95 -16 -175 -14 -166 -4 -360
31 -565 21 -129 34 -169 48 -161 5 4 34 43 64 89 31 45 76 102 102 127 l46 45
-36 -78 c-47 -101 -79 -244 -69 -312 3 -27 8 -53 11 -57 2 -4 26 18 52 50 27
31 73 80 102 108 53 50 166 144 174 144 2 0 -12 -31 -31 -69 -43 -87 -64 -154
-64 -211 l0 -44 43 41 c59 57 239 174 225 146 -30 -61 -42 -97 -46 -143 -4
-46 -3 -53 9 -44 139 106 139 107 139 80 0 -21 7 -27 43 -37 23 -7 54 -21 69
-31 14 -10 29 -18 32 -18 15 0 0 254 -20 336 -8 35 57 -58 144 -206 55 -92 57
-94 63 -65 4 17 7 52 8 78 1 30 5 46 11 42 6 -4 28 -42 50 -86 22 -43 45 -79
50 -79 5 0 13 12 16 28 13 52 81 189 131 263 59 86 128 167 137 158 3 -3 -9
-35 -28 -70 -32 -61 -55 -133 -71 -222 -8 -46 3 -43 30 10 20 37 52 72 68 73
4 0 5 -16 1 -35 -4 -23 -2 -35 5 -35 6 0 13 6 15 13 1 6 10 33 18 60 9 26 12
47 8 47 -4 0 -26 -14 -49 -31 -24 -17 -45 -29 -47 -27 -8 9 45 150 84 220 23
42 42 80 42 83 0 11 -64 -38 -128 -100 -84 -79 -123 -134 -187 -259 l-52 -104
-24 40 c-13 22 -32 47 -41 56 -26 24 -23 35 27 109 24 37 42 69 40 72 -9 8
-56 -42 -82 -87 -21 -35 -28 -41 -40 -30 -11 9 -16 9 -23 -2 -9 -15 -2 -40 11
-40 10 0 12 -34 3 -68 -7 -23 -9 -20 -178 256 -28 46 -52 79 -54 73 -2 -6 4
-59 13 -118 9 -59 19 -152 22 -205 6 -94 1 -112 -23 -89 -5 5 -20 11 -34 13
-21 2 -26 9 -28 41 -4 42 -19 48 -47 17 -10 -11 -27 -22 -39 -26 -11 -3 -29
-13 -38 -22 -17 -14 -18 -13 -18 9 0 30 33 103 66 146 19 25 21 33 10 33 -25
0 -131 -61 -227 -132 -37 -26 -69 -48 -71 -48 -23 0 57 185 121 279 23 33 39
61 35 61 -4 0 -56 -35 -116 -77 -68 -47 -143 -113 -198 -170 -84 -88 -124
-118 -100 -74 5 11 10 30 10 42 0 23 39 89 52 89 4 0 8 -12 10 -27 3 -25 7
-22 36 36 18 34 31 66 27 69 -3 3 -28 -16 -55 -43 -27 -27 -52 -46 -56 -43
-16 16 67 216 126 306 12 17 18 32 13 32 -28 0 -211 -178 -265 -258 -15 -22
-16 -19 -32 70 -25 143 -36 269 -36 428 0 199 17 304 68 418 49 109 59 143 77
287 7 61 27 158 43 217 17 59 42 164 57 235 14 70 28 138 30 149 3 12 13 24
22 27 10 2 95 27 188 54 291 86 296 87 409 80 249 -14 524 -109 745 -259 51
-35 101 -67 109 -73 9 -5 25 -21 36 -35 79 -101 187 -179 247 -180 39 0 80
-23 73 -40 -11 -29 -16 -109 -10 -144 10 -52 64 -106 108 -106 19 0 39 5 44
10 8 8 15 6 24 -5 17 -21 46 -19 97 6 45 22 80 69 102 140 16 52 58 86 221
179 231 133 434 271 745 505 270 204 486 358 490 353 12 -14 38 -168 55 -318
33 -304 59 -421 124 -547 22 -44 26 -66 26 -134 0 -45 12 -154 26 -243 37
-232 26 -379 -52 -685 -47 -182 -91 -297 -182 -481 l-77 -155 -3 90 c-2 50 0
110 4 135 l8 45 7 -40 c6 -37 6 -36 8 19 1 52 -1 57 -15 46 -30 -26 -39 -57
-44 -158 l-5 -102 -30 57 c-37 70 -56 77 -74 27 -10 -27 -16 -33 -22 -23 -14
23 -10 90 11 149 10 30 18 56 17 57 -5 5 -229 -182 -266 -222 -24 -26 -45 -44
-48 -42 -9 10 31 133 68 207 20 41 58 104 84 138 25 35 45 66 43 68 -3 2 -38
-18 -79 -46 -91 -59 -192 -164 -247 -255 l-40 -67 -7 32 c-4 18 -10 82 -14
144 l-6 111 -23 -49 c-30 -67 -62 -172 -62 -207 0 -42 -15 -35 -29 14 -19 63
-84 198 -127 263 -40 60 -144 178 -151 171 -2 -3 10 -40 27 -83 56 -140 89
-319 75 -410 l-7 -47 -55 87 c-30 47 -58 86 -62 86 -5 0 -25 14 -46 30 -43 34
-67 27 -42 -11 20 -31 33 -119 18 -119 -6 0 -11 6 -11 14 0 16 -28 41 -36 33
-8 -8 55 -117 67 -117 7 0 9 31 7 80 -2 44 0 80 4 80 13 0 86 -104 129 -185
l43 -80 9 40 c5 22 7 103 4 180 -4 112 -10 157 -30 225 -14 47 -24 86 -22 88
1 2 26 -34 56 -80 61 -95 108 -202 144 -325 13 -47 27 -88 29 -90 6 -7 14 26
21 92 7 70 34 186 45 199 4 4 11 -32 15 -80 4 -49 10 -111 14 -139 l7 -50 33
65 c56 109 115 193 185 263 37 37 71 67 76 67 5 0 -13 -37 -40 -81 -27 -45
-59 -107 -71 -138 -24 -65 -39 -211 -20 -211 6 0 11 4 11 10 0 12 209 230 221
230 4 0 -2 -21 -13 -48 -22 -49 -38 -192 -21 -192 5 0 26 20 46 45 45 53 58
57 51 13 -5 -31 -5 -32 10 -13 9 10 24 43 33 72 14 44 19 51 31 41 8 -7 17
-19 21 -28 3 -8 23 -48 44 -89 l38 -73 44 97 c44 97 119 219 175 285 17 19 30
32 30 30 0 -3 -10 -34 -21 -70 -16 -47 -23 -101 -26 -197 -3 -74 -2 -133 3
-133 5 0 20 21 34 46 29 55 150 191 193 217 l30 18 -27 -45 c-44 -76 -2 -43
59 46 30 44 55 82 55 84 0 16 -115 -62 -177 -120 -41 -38 -76 -66 -79 -64 -2
3 0 17 5 31 14 36 -2 43 -39 17 -29 -20 -30 -20 -30 -2 0 26 27 116 57 185 13
33 23 63 21 68 -2 5 -20 -7 -40 -26 -20 -19 -39 -35 -42 -35 -2 0 11 46 30
103 109 321 149 634 109 847 -9 47 -19 144 -22 215 -5 123 -7 134 -44 216 -21
48 -47 122 -58 165 -20 79 -24 108 -61 413 -11 90 -27 191 -36 224 -8 32 -14
60 -12 62 2 1 21 11 43 22 67 34 139 53 198 55 45 1 63 -4 97 -26 68 -45 104
-124 165 -361 68 -264 115 -383 193 -482 78 -98 139 -259 129 -336 -5 -37 -43
-178 -63 -232 -5 -14 -4 -17 4 -10 6 6 25 46 42 90 17 44 34 89 39 100 6 15
16 -2 46 -77 l38 -97 -41 -93 c-22 -51 -68 -155 -101 -231 -101 -227 -241
-672 -241 -764 0 -16 -129 -163 -143 -163 -3 0 -7 12 -9 28 l-4 27 -12 -28
c-14 -33 -16 -97 -3 -97 5 0 35 28 68 63 64 69 71 69 103 2 20 -42 20 -42 40
-15 16 21 20 22 35 10 14 -12 18 -12 26 1 5 8 9 17 9 21 0 4 9 23 21 43 l21
35 30 -29 c16 -15 30 -39 31 -52 0 -13 13 -44 28 -69 31 -50 34 -47 46 39 l8
54 44 -57 c40 -51 46 -55 55 -39 6 10 11 54 11 98 0 66 -5 89 -26 133 -14 28
-24 52 -22 52 12 0 114 -96 119 -112 3 -10 10 -17 17 -15 6 1 29 -25 52 -59
22 -33 50 -72 62 -88 l22 -27 12 43 c14 54 7 199 -13 256 -9 23 -12 42 -8 42
15 0 115 -156 136 -215 l23 -60 0 53 c1 48 -4 61 -56 140 -62 93 -175 221
-181 204 -2 -6 6 -28 17 -50 32 -64 61 -189 61 -269 0 -40 -3 -73 -7 -73 -5 0
-25 26 -46 58 -47 71 -123 146 -204 201 -87 58 -103 63 -76 25 29 -42 103
-191 103 -209 0 -8 -4 -15 -10 -15 -5 0 -10 -15 -10 -32 l-1 -33 -42 48 c-43
46 -65 59 -64 35 0 -7 -1 -31 -2 -53 l-2 -40 -38 80 c-21 44 -46 89 -55 100
-13 17 -17 18 -26 5 -5 -8 -8 -21 -5 -28 7 -19 -53 -106 -87 -126 l-28 -17 0
38 c0 21 5 56 11 78 6 22 17 74 25 115 21 105 95 354 144 485 83 219 203 484
213 468 12 -20 56 -208 68 -293 7 -47 12 -169 12 -272 0 -158 2 -188 15 -193
8 -3 18 -3 21 1 3 3 6 103 5 222 -1 318 -22 422 -143 714 -33 79 -71 184 -86
233 -14 50 -37 112 -51 139 -22 43 -23 48 -7 41 135 -56 274 -43 378 37 24 18
42 34 40 36 -2 2 -30 -10 -63 -27 -122 -61 -241 -63 -359 -5 -97 47 -158 170
-237 475 -71 278 -100 340 -219 473 l-28 31 16 -32 c8 -18 14 -33 12 -33 -13
0 -264 96 -357 138 -178 78 -248 97 -360 96 -170 -2 -272 -47 -532 -236 -254
-186 -389 -255 -590 -303 -88 -21 -285 -43 -408 -46 -29 0 -31 -2 -15 -9 34
-15 305 -11 397 5 98 17 234 62 329 111 67 33 211 128 409 269 124 88 203 129
291 150 137 32 242 13 459 -81 80 -34 157 -66 173 -69 38 -10 34 -20 -15 -34
-109 -32 -241 -118 -640 -417 -163 -122 -374 -274 -470 -337 -204 -136 -422
-267 -442 -267 -23 0 -77 -70 -112 -146 -18 -39 -43 -81 -55 -93 -31 -28 -82
-28 -101 1 l-15 22 -12 -22 c-14 -26 -38 -28 -67 -4 -32 25 -44 55 -44 106 0
61 15 96 56 129 19 16 43 46 54 67 11 21 38 54 61 74 45 38 45 45 0 22 -27
-14 -66 -56 -104 -110 -10 -14 -26 -30 -37 -36 -17 -9 -18 -7 -10 20 5 16 11
33 14 38 7 12 -28 104 -40 102 -5 0 -7 -11 -4 -23 2 -12 5 -49 5 -82 0 -54 -2
-60 -20 -57 -31 5 -65 49 -65 85 0 24 -3 28 -10 17 -5 -8 -10 -27 -10 -42 0
-16 -2 -28 -5 -28 -22 0 -83 47 -183 141 -119 112 -207 172 -367 252 -138 68
-367 137 -463 137 -70 1 -11 17 173 49 193 33 417 56 637 67 76 3 136 10 133
14 -10 16 -250 22 -395 10 -367 -29 -756 -105 -1168 -230 l-94 -29 6 32 c3 18
9 52 12 77 5 31 20 60 52 100 64 78 101 164 119 273 28 175 35 199 95 313 101
195 133 372 109 619 -11 118 -38 265 -48 265 -3 0 -3 -13 0 -30z m3030 -3705
c4 -11 -64 -56 -74 -49 -8 5 3 56 23 104 8 19 19 44 23 55 6 15 10 5 17 -40 4
-33 9 -64 11 -70z m460 46 c5 -21 -36 -91 -54 -91 -11 0 -2 63 13 93 12 23 34
22 41 -2z"/>
<path d="M10596 5570 c28 -49 151 -172 207 -204 73 -43 171 -73 297 -91 63 -9
152 -29 198 -44 45 -16 82 -27 82 -25 0 6 -94 51 -140 67 -25 8 -99 25 -165
36 -194 35 -317 100 -440 233 -45 49 -54 55 -39 28z"/>
<path d="M4627 5490 c-4 -25 -14 -110 -23 -190 -14 -133 -45 -335 -60 -395 -4
-16 -2 -25 5 -25 29 0 56 146 76 413 16 206 16 297 2 197z"/>
<path d="M5393 5357 c51 -50 100 -87 145 -109 63 -31 72 -33 177 -33 90 0 114
3 135 18 l25 18 -40 -8 c-151 -31 -322 23 -471 148 -27 22 -14 7 29 -34z"/>
<path d="M4786 5183 c-3 -15 -22 -154 -41 -308 -19 -154 -40 -300 -45 -323
-15 -62 -49 -131 -71 -143 -41 -22 -115 45 -146 131 -21 59 -43 66 -43 15 0
-103 88 -193 205 -210 73 -11 100 -31 167 -124 113 -155 235 -216 428 -216 78
1 126 7 188 24 46 13 85 22 87 19 11 -10 55 -211 60 -273 14 -159 37 -240 107
-381 44 -88 52 -115 65 -210 9 -72 12 -145 8 -214 -6 -113 -32 -290 -44 -303
-4 -4 -30 21 -58 56 -46 58 -133 138 -133 123 0 -4 13 -32 29 -64 15 -31 44
-101 62 -154 19 -54 39 -96 44 -94 16 5 7 48 -25 127 -28 66 -28 71 -9 53 61
-55 171 -246 214 -372 22 -63 24 -65 33 -42 25 65 106 217 137 260 19 26 35
54 35 61 0 16 -56 -37 -78 -73 -9 -16 -19 -28 -23 -28 -8 0 -33 75 -44 128 -4
17 -11 32 -15 32 -10 0 -14 -20 -28 -145 -5 -44 -6 -89 -2 -100 8 -21 8 -23
28 100 l9 50 17 -59 c18 -58 18 -59 -4 -100 -31 -56 -40 -64 -40 -38 0 12 -4
22 -9 22 -6 0 -31 42 -56 94 l-46 93 15 74 c34 169 44 374 25 534 -9 77 -19
108 -69 215 -75 162 -78 171 -95 325 -12 108 -35 226 -60 306 -4 13 17 22 109
48 63 17 127 33 142 34 28 2 29 1 41 -78 7 -44 17 -159 22 -255 11 -199 25
-259 97 -403 24 -48 51 -115 59 -150 23 -91 30 -302 16 -440 -7 -65 -11 -121
-8 -123 2 -3 14 3 25 13 46 39 50 436 7 580 -8 25 -12 50 -8 55 3 5 -4 19 -14
31 -29 33 -51 71 -74 129 -39 98 -50 163 -59 343 -7 153 -17 220 -60 440 -110
556 -123 710 -72 860 20 57 20 59 1 37 -19 -25 -59 -140 -59 -173 0 -37 -15
-18 -32 39 -21 73 -48 136 -54 129 -3 -2 13 -63 35 -135 27 -89 44 -166 51
-239 10 -107 16 -150 27 -207 l5 -29 -47 34 c-89 64 -195 193 -260 317 -15 28
-29 52 -31 52 -5 0 32 -92 57 -143 54 -106 183 -253 257 -291 17 -9 34 -26 37
-39 16 -69 35 -171 35 -188 0 -16 -7 -19 -52 -19 -233 1 -436 61 -567 168 -32
26 -41 30 -32 14 19 -35 122 -113 196 -148 95 -44 199 -64 344 -64 99 0 120
-3 125 -16 15 -40 7 -49 -61 -65 -38 -9 -140 -38 -228 -64 -154 -46 -165 -48
-290 -49 -114 -1 -137 2 -188 22 -74 30 -130 73 -184 142 -99 125 -114 139
-162 157 l-48 17 28 45 c44 72 57 143 84 464 23 276 26 353 11 280z"/>
<path d="M4490 4784 c-12 -19 -20 -37 -17 -40 6 -6 57 54 57 67 0 20 -19 7
-40 -27z"/>
<path d="M12471 4467 c0 -4 -11 -51 -22 -105 -18 -81 -21 -119 -17 -227 3 -71
12 -157 21 -190 9 -33 26 -103 38 -155 24 -102 39 -108 19 -8 -6 33 -10 62 -7
64 13 13 61 -146 92 -306 20 -101 40 -191 44 -198 15 -27 91 315 91 411 0 26
4 47 9 47 11 0 44 -85 62 -157 10 -39 14 -43 20 -26 19 52 21 208 4 303 -9 52
-20 115 -23 140 l-6 45 -6 -35 c-3 -19 0 -80 7 -135 6 -55 11 -122 12 -150 l0
-50 -20 44 c-32 72 -59 160 -76 251 -9 47 -20 90 -26 95 -13 13 -3 -129 14
-213 11 -55 11 -79 -4 -180 -9 -64 -25 -151 -35 -192 l-18 -75 -18 94 c-21
113 -50 210 -81 271 -37 73 -54 135 -70 248 -13 88 -13 128 -4 227 6 66 9 131
6 145 -2 14 -5 22 -6 17z"/>
<path d="M12094 4054 c30 -77 26 -224 -10 -417 -8 -43 -13 -81 -10 -84 14 -15
76 258 76 338 0 44 -36 165 -52 175 -8 5 -9 1 -4 -12z"/>
<path d="M4190 2855 c0 -3 23 -33 51 -67 59 -74 152 -257 173 -343 21 -90 28
-135 19 -135 -4 0 -28 20 -52 45 -90 92 -193 158 -326 208 -84 32 -96 34 -62
7 59 -47 199 -242 184 -257 -3 -2 -38 12 -78 33 -41 20 -101 45 -134 54 -33
10 -68 21 -78 25 -17 7 -17 6 0 -23 13 -23 21 -28 30 -20 10 8 18 0 33 -33 30
-68 23 -91 -15 -49 -10 11 -22 20 -26 20 -5 0 -31 14 -60 30 -28 17 -53 29
-55 27 -3 -2 0 -16 6 -31 5 -15 10 -38 10 -51 l0 -24 -26 24 c-30 28 -44 32
-44 12 0 -7 -14 -24 -31 -37 l-32 -23 7 98 7 98 -105 -98 c-58 -53 -106 -93
-106 -88 0 23 23 132 36 173 9 25 31 73 50 108 19 34 30 62 25 62 -18 0 -146
-133 -205 -213 -55 -75 -76 -87 -76 -46 0 30 -20 13 -42 -38 -11 -25 -22 -43
-24 -40 -6 6 16 159 27 179 5 9 9 22 9 28 0 25 -30 2 -85 -65 l-57 -70 7 40
c11 58 44 151 77 219 16 32 27 60 24 63 -9 9 -108 -72 -172 -140 -35 -36 -73
-92 -94 -134 -19 -39 -38 -72 -42 -72 -12 -2 -21 132 -15 229 6 102 19 176 44
253 8 27 13 50 11 53 -10 9 -91 -120 -138 -218 -27 -57 -61 -147 -76 -200 -14
-54 -30 -95 -35 -92 -5 3 -9 13 -9 23 0 11 -9 29 -19 42 -18 22 -20 23 -27 6
-4 -12 3 -38 20 -70 14 -29 26 -61 26 -72 0 -48 -31 19 -85 180 -31 94 -58
177 -62 185 -3 8 -12 -23 -19 -70 -16 -103 -18 -214 -4 -205 6 3 10 27 11 53
1 63 13 139 20 127 3 -5 21 -64 40 -130 18 -66 41 -128 50 -138 9 -10 24 -36
34 -57 10 -22 22 -40 26 -40 4 0 11 17 14 38 16 93 51 225 82 316 36 103 81
201 89 194 2 -3 -3 -40 -11 -84 -19 -101 -19 -199 1 -321 14 -92 20 -112 27
-102 2 2 16 35 32 74 16 38 50 101 76 140 47 70 139 168 139 149 0 -5 -4 -14
-9 -20 -21 -20 -51 -161 -51 -234 l0 -75 53 87 c49 82 75 111 63 71 -20 -70
-17 -253 4 -253 5 0 54 62 109 138 97 133 180 229 151 172 -23 -44 -40 -124
-40 -193 0 -53 3 -66 13 -58 6 6 49 42 93 81 45 38 84 70 85 70 2 0 4 -36 4
-79 0 -103 12 -115 54 -57 17 25 36 48 42 51 5 4 27 -7 48 -24 21 -17 42 -31
45 -31 3 0 3 25 0 57 l-7 56 47 -33 c26 -18 63 -45 81 -61 l34 -30 3 23 c2 13
-2 45 -9 73 -7 27 -10 51 -8 53 8 9 115 -41 179 -83 l66 -43 0 26 c0 39 -40
118 -98 195 -28 37 -50 67 -48 67 9 0 155 -85 185 -108 20 -14 74 -63 120
-107 l84 -80 -6 85 c-7 107 -53 252 -113 356 -24 43 -44 80 -44 83 0 3 38 -33
85 -79 105 -104 171 -198 235 -333 51 -108 52 -108 70 -12 6 33 22 108 37 168
27 108 42 122 44 42 0 -22 4 -49 8 -59 16 -41 21 6 15 130 -7 115 -8 124 -21
100 -23 -44 -81 -228 -95 -298 -7 -38 -15 -68 -18 -68 -3 0 -19 28 -35 62 -35
73 -119 194 -178 257 -78 81 -267 221 -267 196z m-885 -565 c4 -6 -6 -27 -21
-47 -33 -44 -46 -27 -19 24 19 34 29 40 40 23z"/>
<path d="M5040 2724 c-81 -101 -117 -158 -166 -266 -21 -48 -40 -81 -42 -73
-4 19 -18 19 -26 0 -7 -20 4 -135 14 -135 4 0 28 55 54 123 46 120 123 273
133 264 2 -3 0 -22 -6 -44 -27 -95 -1 -93 28 2 11 36 34 92 51 126 17 34 29
67 27 72 -2 6 -32 -26 -67 -69z"/>
<path d="M1928 2743 c12 -16 29 -36 38 -44 21 -18 120 -149 161 -214 18 -27
52 -95 77 -150 26 -55 51 -108 57 -118 6 -11 7 -22 4 -25 -4 -4 -11 1 -16 10
-14 25 -159 118 -267 172 -72 36 -227 96 -248 96 -3 0 37 -42 88 -93 87 -87
160 -188 127 -175 -154 59 -207 71 -319 75 -63 1 -108 0 -100 -3 59 -24 152
-51 138 -40 -10 7 -18 16 -18 19 0 20 212 -42 287 -84 63 -35 63 -35 63 -9 0
35 -56 132 -110 193 l-52 57 94 -43 c89 -42 199 -106 264 -154 17 -13 35 -23
39 -23 5 0 22 -12 38 -27 l30 -28 -6 25 c-21 92 -33 127 -82 225 -30 61 -86
152 -125 204 -39 51 -69 95 -68 97 2 1 43 -27 91 -62 113 -83 239 -209 352
-354 l90 -114 5 49 5 50 33 -45 c17 -24 32 -48 32 -53 0 -4 4 -6 8 -3 4 2 6
23 4 45 -2 23 -8 38 -13 35 -11 -6 -42 27 -64 69 -25 45 -38 34 -31 -25 8 -59
10 -60 -60 32 -147 195 -407 413 -543 455 l-24 7 21 -29z"/>
<path d="M9090 2706 c0 -3 9 -50 20 -106 11 -56 20 -115 20 -131 0 -31 17 -39
27 -13 3 8 0 40 -6 71 -6 31 -9 58 -8 60 2 2 24 -28 48 -67 38 -61 59 -84 59
-65 0 14 -58 117 -102 183 -43 64 -58 81 -58 68z"/>
<path d="M5241 2693 c-1 -7 -10 -37 -22 -68 -14 -39 -42 -79 -92 -133 -53 -57
-67 -78 -55 -80 14 -3 11 -12 -20 -55 l-37 -52 -3 50 c-2 27 2 69 8 93 13 53
9 59 -26 43 l-27 -12 6 -102 c3 -56 10 -115 16 -131 l12 -29 58 89 c31 49 65
95 74 103 21 17 22 35 2 27 -25 -9 -17 8 20 44 l35 34 0 -71 c0 -40 4 -74 9
-77 10 -6 21 41 21 90 0 43 22 174 30 174 3 0 11 -13 18 -29 7 -15 31 -48 53
-72 45 -48 73 -97 83 -146 10 -44 -9 -50 -40 -13 -61 71 -29 -3 35 -84 l29
-37 7 31 c9 40 -3 111 -23 133 -8 9 -12 17 -9 17 4 0 -4 25 -18 55 -21 49 -22
54 -5 45 24 -13 85 -97 109 -151 l20 -44 0 35 c1 20 -7 52 -18 73 l-19 36 23
-12 c19 -10 95 -100 177 -209 16 -22 17 -19 17 92 1 124 -5 163 -23 157 -7 -2
-10 -33 -8 -93 l3 -89 -23 30 c-12 17 -43 52 -67 78 -40 43 -45 53 -42 89 3
46 -14 45 -24 -2 l-7 -30 -24 19 c-14 11 -46 30 -71 42 -47 23 -115 84 -145
129 -10 14 -17 20 -17 13z m84 -123 c3 -5 1 -10 -4 -10 -6 0 -11 5 -11 10 0 6
2 10 4 10 3 0 8 -4 11 -10z"/>
<path d="M6070 2655 c-8 -9 -8 -15 -2 -15 12 0 26 19 19 26 -2 2 -10 -2 -17
-11z"/>
<path d="M11568 2640 c-5 -33 4 -45 27 -36 18 7 20 37 3 54 -19 19 -25 15 -30
-18z"/>
<path d="M8320 2579 c-151 -94 -340 -267 -340 -313 0 -44 16 -37 64 29 26 35
73 88 106 117 63 58 155 127 149 112 -3 -5 -17 -36 -32 -68 -41 -89 -71 -216
-50 -216 4 0 21 13 38 29 28 28 141 101 155 101 3 0 4 -16 2 -36 -2 -19 4 -56
13 -82 l18 -46 34 39 33 39 29 -28 29 -28 7 42 c11 62 -24 131 -42 84 -4 -10
0 -20 10 -26 10 -5 17 -19 17 -31 l-1 -22 -18 23 c-24 28 -27 28 -55 -5 l-23
-27 -13 24 c-8 15 -10 42 -6 82 l7 59 -43 -22 c-24 -12 -69 -39 -100 -61 -32
-21 -58 -35 -58 -31 1 43 55 163 105 233 60 85 59 87 -35 29z"/>
<path d="M6275 2569 c-66 -49 -143 -130 -183 -191 -20 -31 -40 -57 -44 -58 -9
0 -13 71 -9 137 1 34 -1 42 -12 37 -21 -8 -28 -86 -16 -167 17 -107 21 -110
65 -41 73 114 159 224 175 224 5 0 1 -16 -7 -35 -18 -44 -20 -135 -2 -117 7 7
22 12 35 12 30 0 30 -28 2 -64 -25 -32 -20 -43 11 -24 19 12 24 10 47 -16 l25
-30 29 35 c16 19 41 67 57 107 l28 74 18 -82 c18 -87 34 -135 40 -129 3 2 18
41 35 87 31 86 23 106 -15 39 l-20 -37 -17 73 c-10 39 -17 95 -18 122 0 48 0
49 -13 25 -8 -14 -24 -59 -37 -100 -27 -87 -59 -152 -76 -158 -8 -2 -13 5 -13
19 0 17 -3 20 -12 11 -8 -8 -16 -1 -31 30 -11 22 -29 43 -40 46 -16 4 -18 11
-13 44 4 22 20 66 36 99 17 32 27 59 23 58 -5 0 -26 -14 -48 -30z"/>
<path d="M8802 2568 l25 -33 -18 -58 c-10 -32 -30 -88 -45 -124 l-28 -65 -16
50 c-19 58 -75 153 -107 184 -27 26 -27 25 -4 -82 11 -47 15 -86 10 -88 -13
-5 36 -73 74 -104 l34 -27 36 77 c20 42 46 103 58 135 11 33 25 55 29 50 4 -4
15 -33 25 -63 21 -65 55 -136 83 -170 l19 -24 8 23 c8 26 -1 99 -15 121 -7 11
-10 7 -10 -17 0 -46 -15 -41 -34 10 -32 87 -44 128 -36 125 5 -2 74 -65 154
-141 l146 -139 0 74 c0 76 -13 118 -26 85 -3 -9 -4 -33 -2 -52 4 -39 -6 -46
-22 -15 -6 11 -20 20 -31 20 -11 0 -23 10 -28 23 -12 30 -119 130 -213 200
-43 31 -81 57 -84 57 -4 0 5 -15 18 -32z m-122 -206 c12 -30 18 -57 15 -61
-10 -9 -55 47 -55 68 0 10 -3 34 -6 52 -5 32 -5 33 10 15 9 -11 25 -44 36 -74z"/>
<path d="M11556 2574 c-10 -26 -7 -56 6 -52 19 7 28 45 14 58 -10 8 -15 7 -20
-6z"/>
<path d="M11893 2465 c-16 -37 -23 -65 -19 -81 10 -37 23 -21 36 44 7 31 16
65 21 75 7 11 6 17 -1 17 -6 0 -23 -25 -37 -55z"/>
<path d="M5274 2340 c1 -62 4 -68 24 -48 24 24 10 108 -18 108 -3 0 -6 -27 -6
-60z"/>
<path d="M11630 2380 c11 -21 48 -45 57 -36 11 11 -28 56 -48 56 -17 0 -18 -3
-9 -20z"/>
<path d="M10905 2360 c-10 -11 -14 -20 -8 -20 5 0 18 9 28 20 10 11 14 20 8
20 -5 0 -18 -9 -28 -20z"/>
<path d="M10808 2364 c-12 -18 -21 -111 -11 -117 11 -7 80 60 71 69 -4 3 -15
1 -27 -5 -18 -10 -20 -8 -23 26 -2 21 -6 33 -10 27z"/>
</g>
</svg>
