<?xml version="1.0" standalone="no"?>
<!DOCTYPE svg PUBLIC "-//W3C//DTD SVG 20010904//EN"
 "http://www.w3.org/TR/2001/REC-SVG-20010904/DTD/svg10.dtd">
<svg version="1.0" xmlns="http://www.w3.org/2000/svg" width="2173.1pt" height="211.5pt" viewBox="6.9 308.3 2173.1 211.5" preserveAspectRatio="xMidYMid meet">

<g transform="translate(0.000000,724.000000) scale(0.100000,-0.100000)"
fill="#F2E8D5" stroke="none">
<path d="M2549 4061 c-20 -4 -57 -20 -83 -35 l-46 -27 0 -151 0 -151 -562 6
c-310 4 -697 7 -860 7 l-298 0 0 138 0 137 -63 34 c-58 31 -67 33 -132 29 -52
-4 -82 -12 -117 -32 l-48 -28 0 -138 0 -139 -32 -5 c-18 -3 -51 -7 -73 -9 -22
-2 -7 -4 33 -5 55 -2 72 -5 72 -16 0 -10 -13 -16 -37 -19 l-38 -4 38 -1 37 -2
0 -59 0 -60 -32 -4 -33 -4 33 -1 c20 -1 32 -7 32 -16 0 -11 -15 -16 -52 -19
l-53 -3 53 -2 c39 -2 52 -6 52 -17 0 -12 -14 -15 -70 -15 -40 0 -70 -4 -70
-10 0 -6 30 -10 70 -10 l70 0 0 -254 0 -255 -58 -6 c-89 -10 -93 -13 -16 -14
l72 -1 1 -121 1 -122 -65 6 c-37 4 -67 2 -70 -3 -4 -6 22 -10 65 -10 l71 0 -2
-185 c-1 -142 2 -190 12 -206 12 -17 14 109 11 848 l-2 868 22 17 c13 10 26
18 31 18 4 0 8 -30 9 -67 l2 -68 5 75 6 75 72 3 c111 4 113 3 115 -131 l2
-112 3 108 c2 59 7 107 11 107 4 0 15 -7 24 -14 16 -11 18 -31 18 -144 0 -80
-4 -132 -10 -134 -6 -2 -13 -60 -17 -135 -5 -118 -4 -133 10 -139 15 -5 17
-33 17 -256 0 -208 -2 -252 -15 -264 -22 -22 -22 -246 0 -264 12 -10 15 -46
15 -204 0 -105 -4 -207 -10 -225 -15 -55 -4 -48 28 15 30 59 100 149 109 140
3 -3 -12 -32 -32 -64 -36 -59 -67 -133 -59 -141 2 -2 14 9 26 25 13 16 37 44
55 63 18 19 30 37 27 40 -3 3 -21 -12 -40 -34 l-35 -40 15 38 c9 22 36 68 61
103 24 35 40 64 35 64 -14 0 -124 -105 -139 -134 -8 -14 -17 -26 -20 -26 -3 0
-4 84 -1 187 l5 188 655 2 c360 1 746 0 858 -4 l202 -5 0 -149 c0 -84 -4 -149
-9 -149 -5 0 -19 17 -32 38 -30 50 -90 124 -96 119 -2 -3 5 -23 15 -44 26 -50
54 -148 50 -171 -3 -12 -10 -5 -28 25 -28 51 -42 55 -40 11 1 -18 2 -38 1 -44
-1 -7 -35 22 -76 64 -42 41 -78 73 -81 70 -2 -3 11 -32 31 -65 19 -32 36 -71
37 -86 1 -15 15 -39 30 -54 27 -26 28 -26 28 -5 0 14 -5 20 -13 16 -10 -3 -22
15 -38 58 -13 35 -26 68 -28 73 -10 27 94 -86 119 -128 31 -54 47 -49 35 11
-8 35 -8 36 -15 12 -6 -22 -8 -23 -15 -7 -4 9 -4 29 -1 43 7 25 8 26 26 9 11
-10 20 -30 21 -44 0 -14 4 -35 9 -46 19 -43 10 129 -10 185 -10 30 -17 56 -16
58 4 3 48 -64 68 -103 8 -16 21 -55 28 -85 l14 -55 16 80 c9 44 20 93 24 108
4 18 3 26 -3 23 -5 -4 -15 -31 -21 -61 -6 -30 -12 -55 -13 -55 -1 0 -2 383 -2
851 l1 851 24 14 c36 19 40 18 41 -18 2 -31 2 -31 8 7 6 36 9 40 45 47 46 10
105 5 135 -11 19 -11 21 -21 23 -124 l2 -112 3 108 c2 59 6 107 9 107 3 0 14
-5 25 -10 17 -10 19 -23 19 -150 0 -82 -4 -141 -10 -145 -6 -4 -10 -62 -10
-141 0 -83 4 -134 10 -134 6 0 10 -90 10 -251 0 -209 -2 -253 -15 -265 -21
-22 -22 -246 -1 -263 22 -19 23 -339 1 -355 -8 -6 -18 -29 -20 -51 l-5 -40 13
37 c19 57 29 58 26 0 -2 -28 -1 -52 3 -52 9 0 29 72 23 79 -3 2 3 13 12 23 14
16 15 18 1 13 -14 -5 -16 14 -17 163 l-2 169 238 6 c201 6 586 5 1281 -2 l132
-1 0 -165 c0 -91 -3 -165 -8 -165 -4 0 -15 15 -25 33 -20 35 -66 91 -71 86 -2
-2 7 -31 21 -64 13 -33 21 -46 18 -30 l-5 30 25 -30 c14 -16 28 -39 31 -50 15
-55 47 -135 54 -135 11 0 17 90 8 96 -5 3 -8 -4 -8 -16 0 -12 -4 -18 -11 -15
-6 4 -10 19 -9 33 1 15 1 32 1 37 -1 6 -2 390 -1 855 l1 845 22 17 c25 20 52
24 41 6 -4 -7 -3 -8 4 -4 7 4 12 14 12 22 0 10 13 14 48 15 26 1 56 2 67 3 11
0 32 -5 48 -12 26 -12 27 -15 28 -95 l1 -82 9 60 c5 33 8 68 5 78 -5 20 -2 21
25 7 17 -10 19 -23 19 -150 0 -82 -4 -141 -10 -145 -13 -8 -13 -275 -1 -275
13 0 13 -508 0 -515 -13 -8 -12 -262 1 -270 7 -4 10 -68 9 -176 -2 -137 -5
-169 -16 -169 -8 0 -12 -4 -9 -9 3 -5 -1 -14 -9 -21 -8 -7 -15 -22 -15 -34 0
-17 2 -18 10 -6 7 11 10 5 10 -22 0 -55 15 -47 35 20 21 67 60 148 77 158 8 5
9 2 4 -12 -8 -19 -46 -162 -46 -172 0 -3 13 13 29 36 43 59 60 67 42 20 -4
-13 -11 -41 -15 -63 -7 -37 -6 -38 7 -20 9 11 13 23 11 26 -5 9 82 99 95 99 5
0 7 -10 3 -23 -4 -18 -3 -20 9 -10 20 16 52 73 42 73 -14 0 -98 -56 -123 -81
-20 -22 -22 -22 -17 -4 4 11 9 34 12 50 l7 30 -38 -39 -37 -39 7 38 c4 21 18
62 32 93 13 30 22 57 20 59 -6 6 -73 -75 -89 -109 l-15 -31 -7 64 c-3 35 -5
109 -3 164 l3 100 150 6 c83 3 446 4 808 1 l657 -5 0 -159 c0 -130 -3 -158
-14 -158 -8 0 -16 -5 -18 -12 -2 -6 -21 12 -41 39 -31 43 -98 103 -85 76 62
-126 88 -203 68 -203 -6 0 -10 8 -10 19 0 10 -6 24 -14 30 -11 9 -15 7 -20
-11 -6 -23 -7 -23 -18 -3 -13 22 -49 54 -61 55 -5 0 -1 -12 7 -27 8 -16 18
-37 21 -48 7 -19 7 -19 14 -1 7 17 9 16 30 -10 20 -26 22 -27 18 -7 -3 13 -1
26 4 29 5 3 9 -2 9 -10 0 -8 11 -28 25 -43 l24 -28 1 26 c0 15 -11 60 -24 100
-13 41 -23 75 -21 77 2 2 17 -17 35 -43 17 -25 35 -43 41 -40 5 4 8 -2 7 -12
-2 -33 2 -53 12 -53 6 0 10 16 10 36 0 28 3 34 13 26 9 -8 11 27 9 170 -2 119
0 184 7 191 14 14 15 254 1 262 -6 4 -10 102 -10 260 0 158 4 256 10 260 6 4
10 62 10 141 0 83 -4 134 -10 134 -6 0 -10 55 -10 144 0 117 3 145 15 149 12
5 15 -11 18 -91 l3 -97 2 101 2 100 35 17 c25 12 35 13 35 4 0 -9 2 -9 9 1 5
9 26 12 67 10 l59 -3 6 -50 6 -50 1 43 c1 23 5 42 8 42 3 0 19 -8 35 -17 l30
-18 -4 -807 c-3 -458 -1 -808 4 -808 14 0 18 39 16 156 l-2 112 245 7 c135 4
344 5 465 1 121 -3 386 -6 588 -6 l368 0 -2 -152 c-2 -115 -6 -157 -17 -167
-16 -16 -8 -59 15 -81 14 -13 15 -12 9 12 -3 14 -9 34 -13 45 -6 17 -5 17 13
1 19 -16 19 -4 18 838 l-1 855 28 15 c15 8 30 14 34 14 3 0 6 -21 7 -47 l1
-48 6 55 6 55 72 3 c106 4 113 -1 115 -101 l2 -82 3 78 c2 42 7 77 12 77 4 0
15 -6 25 -13 17 -12 18 -26 11 -173 -7 -175 -7 -255 0 -638 4 -172 2 -263 -5
-270 -13 -13 -13 -253 0 -261 6 -4 10 -65 10 -151 0 -118 -3 -149 -16 -170
-13 -19 -14 -28 -5 -37 8 -8 11 -4 12 19 2 24 2 25 6 6 3 -15 -5 -38 -22 -62
-16 -23 -25 -47 -23 -62 4 -19 9 -14 31 32 l27 55 -2 -58 c-2 -31 0 -57 4 -57
10 0 58 84 58 102 0 9 22 50 50 92 27 42 45 76 39 76 -6 0 -40 -30 -75 -67
l-65 -67 3 170 3 169 635 0 c349 0 717 -1 818 -4 l182 -4 0 -154 c0 -84 -3
-153 -7 -153 -5 0 -26 25 -47 55 -22 30 -41 55 -43 55 -13 0 15 -50 44 -80 18
-19 43 -56 55 -82 22 -48 45 -58 28 -12 -6 15 -10 355 -10 874 l0 849 30 16
c16 8 31 15 35 15 3 0 6 -19 7 -42 l1 -43 6 50 6 50 75 2 c109 2 110 2 112
-120 l2 -102 3 97 4 97 24 -11 c25 -11 25 -12 25 -149 0 -81 -4 -140 -10 -144
-12 -7 -13 -241 -1 -300 4 -23 4 -173 0 -335 -5 -162 -5 -407 -1 -545 5 -139
4 -255 -1 -262 -5 -7 -7 -22 -5 -35 3 -19 9 -12 35 37 36 68 100 148 84 105
-5 -14 -23 -52 -39 -85 -35 -73 -46 -105 -35 -105 15 0 44 59 49 97 3 19 13
47 22 62 25 35 55 102 49 107 -6 6 -96 -95 -109 -124 -6 -12 -15 -22 -19 -22
-4 0 -6 78 -6 173 l2 172 635 2 c349 1 719 -1 823 -4 l187 -6 0 -134 c0 -75
-4 -132 -9 -129 -11 7 -25 -113 -15 -137 12 -33 22 -17 17 31 -4 42 -3 45 10
30 12 -15 15 24 20 295 3 171 5 555 3 853 l-3 541 56 31 c48 26 65 30 117 28
100 -5 104 -9 105 -129 1 -86 2 -96 11 -67 5 19 8 63 5 98 -2 34 -2 62 0 62 2
0 13 -5 24 -10 17 -10 19 -23 19 -150 0 -82 -4 -141 -10 -145 -6 -4 -10 -60
-10 -135 0 -75 4 -131 10 -135 14 -8 14 -515 0 -515 -7 0 -8 -122 -4 -361 4
-238 2 -359 -4 -355 -6 3 -13 0 -16 -6 -4 -7 -4 -2 0 12 3 14 8 35 11 48 3 12
1 22 -4 22 -5 0 -15 -23 -21 -51 -14 -58 -15 -89 -4 -89 11 1 48 58 83 130 34
69 68 120 80 120 4 0 -4 -24 -18 -52 -14 -29 -27 -62 -29 -73 -1 -11 -6 -35
-10 -52 -4 -19 -2 -33 3 -33 11 0 53 55 53 70 0 6 4 9 9 5 6 -3 29 8 53 24 46
31 61 33 36 4 -40 -47 -24 -41 21 7 28 30 46 57 40 59 -5 1 -36 -14 -67 -35
-89 -61 -85 -60 -67 -19 20 48 19 52 -5 30 -11 -10 -20 -28 -20 -40 0 -11 -7
-30 -15 -41 -14 -19 -14 -19 -15 1 0 12 6 27 13 34 10 11 10 13 0 7 -20 -11
-16 3 27 80 22 40 40 76 40 81 0 18 -94 -87 -117 -130 -26 -51 -41 -59 -23
-13 13 35 13 56 0 36 -6 -10 -10 37 -10 141 l0 157 143 6 c108 5 1231 3 1450
-3 l37 -1 0 -148 c0 -82 -3 -152 -6 -155 -4 -4 -23 15 -42 41 -19 26 -37 49
-39 51 -2 2 -6 2 -9 -2 -3 -3 4 -26 15 -52 26 -58 37 -115 22 -115 -5 0 -15 9
-21 20 -16 31 -40 25 -40 -9 0 -35 -15 -48 -28 -26 -5 10 -15 13 -25 9 -19 -7
-21 -13 -7 -34 8 -13 10 -12 10 3 0 28 17 20 29 -15 14 -39 22 -32 26 22 4 51
10 58 32 38 43 -36 46 -34 39 21 -4 28 -9 59 -12 69 -5 14 -3 14 11 -3 21 -24
79 -148 89 -189 9 -38 12 -32 19 39 5 49 4 54 -4 28 -14 -48 -22 -40 -17 17 4
41 3 47 -7 33 -12 -15 -13 -15 -19 3 -3 10 -5 399 -4 862 l3 844 59 29 c66 33
138 38 189 12 26 -13 27 -16 29 -111 l2 -97 3 93 c2 50 7 92 11 92 4 0 15 -7
25 -14 15 -11 17 -31 17 -149 0 -80 -4 -138 -10 -142 -12 -7 -14 -268 -2 -279
10 -11 9 -506 -1 -506 -6 0 -7 -70 -4 -162 15 -438 15 -479 1 -485 -7 -3 -12
-13 -11 -24 5 -31 16 -33 23 -5 10 42 27 31 20 -14 -3 -22 -2 -40 3 -40 10 0
31 54 31 79 0 14 -2 14 -10 1 -8 -13 -10 -12 -10 3 0 10 8 30 17 45 l17 27
-21 -18 c-20 -18 -21 -17 -26 15 -2 18 -4 94 -3 168 l1 135 635 2 c349 1 713
-1 808 -4 l172 -5 0 -144 c0 -79 -4 -144 -9 -144 -18 0 -21 -49 -5 -85 14 -34
17 -36 31 -22 10 9 13 23 9 33 -6 16 -9 592 -7 1426 l1 288 27 17 c19 13 28
14 31 5 6 -19 22 -14 22 8 0 25 29 33 97 26 87 -8 93 -14 95 -109 l2 -82 3 78
c2 42 6 77 9 77 3 0 14 -5 25 -10 17 -10 19 -23 19 -149 0 -76 -3 -141 -7
-145 -7 -6 -12 -1516 -6 -1516 6 0 64 128 61 136 -3 10 42 64 53 64 5 0 0 -15
-11 -33 -17 -29 -50 -139 -50 -166 0 -20 16 -11 34 20 14 24 16 33 6 39 -19
12 -6 58 36 129 20 34 35 64 32 66 -2 2 -30 -20 -61 -50 -32 -30 -62 -55 -67
-55 -7 0 -10 55 -8 153 l3 152 660 2 c363 1 729 -1 813 -4 l154 -5 -3 -197
c-2 -171 0 -203 16 -249 10 -28 23 -52 27 -52 13 0 9 30 -7 46 -12 13 -14 134
-14 908 l0 892 28 17 c38 22 39 22 44 -15 4 -33 4 -33 5 4 2 48 25 60 100 55
94 -6 102 -14 104 -110 l2 -82 3 78 c2 42 7 77 11 77 29 -1 33 -21 33 -156 0
-77 -3 -147 -6 -156 -4 -9 -2 -187 3 -395 6 -252 6 -380 -1 -384 -6 -5 -7
-106 0 -305 5 -165 7 -303 5 -308 -2 -4 -8 -2 -13 5 -6 10 -9 7 -9 -12 0 -14
-6 -31 -12 -38 -10 -11 -10 -14 0 -18 17 -6 15 -40 -3 -47 -17 -6 -21 -46 -5
-46 6 0 10 10 10 23 0 17 2 19 10 7 12 -20 43 51 43 102 0 26 3 35 13 31 8 -3
14 1 14 8 1 8 12 28 26 44 l25 30 -12 -30 c-17 -44 -48 -159 -44 -163 2 -2 15
14 29 36 36 58 49 62 40 15 -4 -21 -11 -49 -16 -62 -5 -13 -6 -26 -3 -29 8 -8
35 31 30 45 -4 13 78 93 97 93 7 0 0 -10 -15 -23 -15 -12 -30 -35 -33 -52 -2
-16 -7 -38 -10 -48 -5 -16 -3 -17 13 -9 10 6 27 20 37 31 26 28 40 26 32 -4
-6 -23 -4 -24 24 -18 23 4 30 2 28 -7 -2 -9 9 -14 30 -16 23 -1 32 3 32 13 0
12 3 13 13 4 16 -13 27 -5 27 20 0 9 5 19 12 21 6 2 8 10 4 16 -10 17 -26 5
-26 -19 0 -16 -5 -18 -26 -13 -19 5 -25 4 -20 -5 4 -6 0 -11 -9 -11 -11 0 -15
5 -11 15 7 18 4 18 -29 3 -33 -15 -43 -4 -20 22 22 24 8 26 -42 5 -20 -8 -38
-13 -41 -11 -8 9 8 56 19 56 6 0 9 -7 5 -15 -11 -29 2 -15 33 35 17 27 27 50
22 50 -5 0 -39 -20 -75 -44 -66 -45 -76 -43 -56 8 13 34 3 33 -37 -6 -43 -41
-42 -26 5 72 21 44 35 80 31 80 -9 0 -75 -73 -89 -100 -23 -43 -31 -3 -28 146
l3 149 645 2 c355 1 718 0 808 -4 l163 -5 -2 -147 c-1 -80 -4 -139 -7 -131 -3
9 -10 -4 -17 -29 l-11 -45 -31 50 c-30 46 -93 115 -93 102 0 -3 13 -34 30 -69
37 -82 54 -153 34 -145 -18 7 -18 1 2 -29 9 -14 20 -23 24 -20 9 6 -15 121
-36 175 l-14 35 24 -29 c14 -16 37 -54 53 -85 l28 -56 3 49 c3 40 5 45 15 32
9 -13 11 22 9 163 -3 121 0 181 7 185 14 9 15 262 1 271 -6 4 -10 100 -10 255
0 155 4 251 10 255 13 8 13 272 0 280 -6 4 -10 61 -10 139 0 105 3 136 15 146
12 10 15 -2 18 -87 l3 -98 2 98 2 97 32 20 c22 13 34 16 39 9 4 -8 8 -8 10 -1
5 12 20 15 82 13 40 -1 47 -4 47 -21 0 -11 5 -20 11 -20 5 0 7 5 4 10 -8 14
15 12 42 -3 l23 -13 0 -869 c0 -479 0 -882 0 -897 0 -16 -5 -28 -11 -28 -7 0
-8 12 -4 33 5 24 4 29 -5 21 -6 -7 -10 -33 -8 -64 l3 -54 29 60 c15 32 36 74
45 92 9 19 31 50 49 70 l33 37 -25 -50 c-27 -54 -57 -147 -50 -154 2 -2 12 3
22 12 13 12 17 27 14 51 -3 25 6 52 38 110 23 42 40 79 37 82 -6 6 -94 -91
-118 -131 l-19 -30 0 43 c0 23 7 54 16 68 9 13 14 27 11 31 -4 3 -9 -2 -13
-11 -17 -43 -24 -6 -22 107 l3 122 462 0 c255 0 463 3 463 6 0 15 -274 21
-592 15 l-338 -8 0 91 0 91 28 1 27 1 -25 7 c-16 4 -26 14 -27 29 -3 20 1 22
55 22 31 0 242 1 467 2 318 1 374 3 250 8 -88 4 -298 8 -468 9 l-307 1 2 250
3 250 120 6 c66 3 275 6 465 6 254 1 325 3 270 10 -41 5 -252 7 -468 6 l-392
-3 0 37 c0 26 5 38 18 41 16 4 16 5 0 6 -16 1 -18 12 -18 81 l0 80 468 2 c258
0 436 4 397 8 -38 4 -249 8 -467 9 l-397 1 -3 147 -3 148 -50 27 c-73 40 -163
39 -245 -2 l-60 -30 0 -145 c0 -92 -4 -146 -11 -150 -6 -4 -370 -4 -810 0
l-799 8 0 143 0 144 -68 34 c-60 30 -75 34 -127 30 -40 -3 -74 -13 -109 -33
l-51 -28 -7 -79 c-4 -44 -5 -109 -2 -145 l6 -66 -49 -8 c-26 -4 -396 -4 -821
0 l-774 8 2 76 c2 42 2 108 1 146 l-1 71 -62 30 c-85 41 -165 39 -244 -6 l-53
-31 -3 -146 -3 -146 -30 -3 c-16 -2 -380 0 -807 3 l-778 6 0 143 0 143 -63 36
c-87 48 -147 48 -232 1 l-60 -33 -5 -148 -5 -148 -25 -4 c-14 -1 -377 0 -807
3 l-783 7 0 143 0 144 -62 31 c-55 28 -72 32 -133 30 -59 -2 -79 -7 -124 -34
l-54 -32 -1 -142 -1 -141 -45 -7 c-25 -4 -397 -4 -827 0 l-783 8 0 143 0 143
-54 30 c-45 26 -64 31 -123 31 -60 0 -76 -4 -123 -33 l-55 -32 -3 -143 c-2
-117 -5 -144 -18 -149 -8 -3 -377 -2 -819 2 l-805 7 0 143 0 142 -59 32 c-50
26 -70 31 -127 31 -60 0 -76 -4 -124 -33 l-55 -33 -3 -142 c-2 -128 -4 -141
-21 -147 -11 -3 -384 -4 -830 -3 l-811 3 0 146 0 146 -59 32 c-83 44 -161 44
-246 -2 l-60 -32 -3 -149 -3 -149 -601 6 c-331 4 -693 7 -805 7 l-203 0 0 144
0 144 -68 35 c-62 33 -74 36 -129 31 -42 -3 -78 -14 -117 -35 l-56 -31 0 -143
0 -143 -41 -7 c-23 -4 -394 -4 -825 0 l-784 8 0 142 0 143 -69 36 c-70 36 -99
41 -172 27z m-129 -412 l0 -39 -72 -2 -73 -2 73 -3 72 -4 0 -49 0 -50 -97 -2
-98 -2 98 -3 97 -4 0 -26 0 -26 -532 6 c-293 4 -687 7 -875 7 l-341 0 1 120 1
120 873 -1 873 -1 0 -39z m2020 -1 l0 -38 -92 -2 -93 -2 93 -3 92 -4 0 -49 0
-50 -97 -2 -98 -2 98 -3 c96 -4 97 -4 97 -29 l0 -25 -832 5 c-458 3 -836 6
-840 6 -5 0 -8 14 -8 30 0 30 1 30 54 30 30 0 57 4 60 9 3 4 -20 8 -52 7 l-57
-1 0 45 0 45 50 6 50 6 -47 1 c-27 1 -48 5 -48 10 0 4 -3 17 -6 30 l-6 22 841
-2 841 -2 0 -38z m2000 -5 l0 -43 -72 -2 -73 -2 73 -3 72 -4 0 -44 0 -45 -112
-2 -113 -2 113 -3 c112 -4 112 -4 112 -28 l0 -25 -825 2 -825 3 0 33 c0 32 0
32 53 34 l52 2 -52 3 -53 4 0 50 0 49 48 2 47 2 -47 3 c-46 4 -48 6 -48 34 l0
29 825 -2 825 -2 0 -43z m2017 5 l2 -38 -52 -2 -52 -1 50 -6 50 -6 0 -45 0
-45 -115 -6 -115 -5 115 -2 c115 -2 116 -2 118 -27 l2 -25 -838 4 -837 3 -1
104 c-1 57 1 112 3 122 4 16 49 17 837 15 l832 -2 1 -38z m2003 0 c0 -37 -1
-38 -37 -40 l-38 -1 38 -4 37 -4 0 -50 0 -49 -112 -2 -113 -2 113 -3 c112 -4
112 -4 112 -29 l0 -24 -827 4 -828 4 -3 86 -3 86 48 2 48 2 -47 3 c-46 4 -48
6 -48 34 l0 29 830 -2 830 -3 0 -37z m2020 1 l0 -39 -72 -2 -73 -2 73 -3 72
-4 0 -49 0 -50 -97 -2 -98 -2 96 -3 c86 -3 97 -6 102 -23 3 -11 1 -22 -3 -25
-5 -3 -383 -4 -839 -3 -821 3 -830 3 -834 23 -2 11 -3 49 -3 85 1 63 2 65 31
71 l30 7 -27 1 c-24 1 -28 5 -28 31 l0 30 835 -1 835 -1 0 -39z m1990 0 l0
-39 -62 -2 -63 -2 63 -3 62 -4 0 -49 0 -50 -117 -2 -118 -2 118 -3 117 -4 0
-25 0 -25 -807 6 c-445 3 -814 5 -820 5 -8 0 -13 12 -13 29 l0 29 108 7 c151
9 161 15 15 10 l-123 -5 0 50 0 50 48 2 47 2 -47 3 c-46 4 -48 6 -48 34 l0 29
820 -1 820 -1 0 -39z m1980 -1 l0 -38 -52 -2 -53 -2 53 -3 52 -4 0 -50 0 -49
-112 -2 -113 -2 113 -3 c112 -4 112 -4 112 -29 l0 -25 -813 3 -814 3 -1 88 -2
87 48 2 47 2 -47 3 c-46 4 -48 6 -48 34 l0 29 815 -1 815 -2 0 -39z m2000 1
l0 -39 -62 -2 -63 -2 62 -3 62 -4 -3 -77 -3 -77 -821 0 c-750 0 -821 1 -825
16 -3 9 -2 49 1 88 4 56 8 71 21 72 13 1 13 2 -1 6 -12 3 -18 14 -18 34 l0 29
825 -1 825 -1 0 -39z m1990 -1 c0 -36 -2 -38 -32 -39 l-33 -1 33 -9 c30 -9 32
-12 32 -54 l0 -45 -102 -2 -103 -2 103 -3 c101 -4 102 -4 102 -29 l0 -25 -819
3 -819 3 -4 27 c-6 35 1 45 32 51 25 4 25 4 -2 6 -26 1 -28 4 -28 46 l0 45 48
2 47 2 -47 3 c-46 4 -48 6 -48 34 l0 29 820 -1 820 -2 0 -39z m-18770 -218
c129 -1 351 -3 493 -7 l257 -6 0 -253 0 -254 -372 0 c-205 0 -592 3 -861 7
l-487 6 2 251 3 251 205 6 c113 3 277 4 365 2 88 -1 266 -3 395 -3z m8075 -5
c220 -2 471 -4 558 -4 l157 -1 -2 -252 -3 -253 -235 -3 c-129 -2 -497 0 -818
4 l-582 6 2 252 3 251 150 3 c83 1 173 4 200 6 28 1 77 1 110 -1 33 -2 240 -6
460 -8z m3920 5 c176 -1 429 -4 563 -7 l242 -6 -2 -251 -3 -251 -235 -3 c-129
-2 -493 0 -807 3 l-573 7 0 248 c0 205 2 249 14 253 8 3 92 6 187 6 95 1 175
4 178 7 3 3 31 3 61 0 30 -3 199 -6 375 -6z m3980 -1 c154 0 398 -3 543 -6
l262 -6 0 -247 0 -247 -32 -7 c-38 -8 -627 -7 -1206 1 l-402 6 2 251 3 251
205 6 c113 3 237 4 275 2 39 -1 196 -3 350 -4z m2110 -4 c242 -2 493 -4 558
-4 l117 -1 0 -249 0 -248 -31 -7 c-41 -8 -535 -8 -1123 1 l-466 6 2 251 3 251
199 3 c110 1 202 5 205 7 2 3 25 3 50 0 25 -3 244 -7 486 -10z m-15812 -2
l497 -6 0 -254 0 -253 -418 0 c-230 0 -602 3 -825 7 l-407 6 0 248 0 248 88 4
c181 6 585 7 1065 0z m2230 -3 l247 0 0 -257 0 -256 -801 6 c-440 3 -802 7
-804 9 -10 10 -17 256 -10 370 l7 127 101 4 c56 3 307 3 557 1 250 -2 566 -4
703 -4z m2100 0 l177 0 0 -249 0 -249 -22 -6 c-31 -8 -694 -8 -1215 1 l-420 6
-7 110 c-4 60 -4 172 0 248 l7 138 111 4 c61 2 354 3 651 1 297 -2 620 -4 718
-4z m4045 1 l162 -1 0 -249 0 -249 -22 -6 c-30 -8 -548 -8 -1151 1 l-488 6 1
248 c1 136 4 250 7 253 4 3 304 4 667 2 364 -2 734 -5 824 -5z m3955 0 l177
-1 0 -249 0 -248 -31 -7 c-38 -7 -846 -6 -1274 3 l-310 6 -2 244 c-1 135 0
248 3 252 2 5 287 6 632 4 345 -2 707 -4 805 -4z m-14466 -525 c483 -1 613 -4
613 -13 0 -7 -12 -14 -27 -14 l-28 -2 27 -4 27 -4 0 -100 0 -101 -779 6 c-428
3 -822 6 -875 6 l-96 0 2 113 c1 61 4 116 7 120 2 5 119 5 261 1 141 -3 532
-7 868 -8z m10023 -1 c360 -2 656 -4 658 -5 2 0 0 -5 -4 -12 -4 -7 -7 -32 -5
-56 2 -29 -2 -48 -11 -53 -10 -7 -10 -9 0 -9 8 0 12 -17 12 -50 l0 -51 -837 3
-837 3 -2 80 c0 44 2 84 5 90 3 5 4 24 2 42 l-2 32 183 -5 c101 -2 478 -6 838
-9z m1831 0 l804 -5 2 -115 2 -115 -820 2 -819 3 0 81 c0 49 5 85 12 92 9 9 9
12 0 12 -7 0 -12 11 -12 23 0 26 9 39 20 32 4 -3 369 -7 811 -10z m4120 1
l663 -4 -1 -21 c0 -11 -1 -30 -2 -41 -1 -16 -9 -20 -43 -22 l-43 -1 45 -6 45
-6 0 -65 0 -65 -785 -1 c-432 0 -804 1 -826 4 l-41 4 2 81 c2 69 5 82 21 88
15 6 16 8 3 8 -9 1 -19 9 -21 19 -11 41 -4 43 162 37 87 -3 457 -8 821 -9z
m-13343 -37 c3 -28 2 -29 -40 -30 -24 0 -52 -4 -63 -9 -14 -6 -2 -8 40 -7 l60
2 2 -78 1 -77 -836 2 -837 3 -1 117 0 118 835 -6 836 -6 3 -29z m2002 -6 c0
-43 0 -43 -37 -44 l-38 -1 38 -10 c36 -10 37 -12 37 -54 0 -28 -5 -44 -12 -45
-10 0 -10 -2 0 -6 6 -2 12 -11 12 -19 0 -12 -117 -14 -825 -12 l-825 1 0 84
c0 79 1 83 23 84 21 2 21 2 1 6 -15 3 -21 12 -22 33 l-1 30 825 -3 824 -2 0
-42z m2016 -78 l2 -115 -837 2 -836 3 0 110 c-1 61 1 114 3 118 2 4 378 6 835
3 l831 -6 2 -115z m2002 -1 l3 -114 -831 2 -830 3 0 88 0 87 28 1 27 1 -25 7
c-16 4 -26 14 -27 28 l-3 23 828 -6 827 -6 3 -114z m5992 79 l0 -43 -42 -2
-43 -1 42 -4 43 -4 -1 -70 -1 -69 -812 4 c-446 2 -812 5 -814 5 -1 1 -2 53 -1
116 l1 115 814 -2 814 -3 0 -42z m3990 0 c0 -41 -1 -43 -32 -45 l-33 -1 33 -4
32 -4 0 -70 0 -70 -817 5 c-450 3 -819 5 -820 5 -1 1 -1 53 -1 116 l2 115 818
-2 818 -3 0 -42z m-11554 -520 c-13 -21 -28 -50 -31 -65 -9 -36 -25 -36 -25
-2 0 16 15 45 36 71 43 53 56 50 20 -4z m7954 -10 c0 -14 -19 -38 -25 -32 -8
8 5 39 16 39 5 0 9 -3 9 -7z m-393 -35 c-3 -8 -6 -5 -6 6 -1 11 2 17 5 13 3
-3 4 -12 1 -19z m-11666 -35 c-8 -15 -10 -15 -11 -2 0 17 10 32 18 25 2 -3 -1
-13 -7 -23z m14019 13 c0 -3 -4 -8 -10 -11 -5 -3 -10 -1 -10 4 0 6 5 11 10 11
6 0 10 -2 10 -4z"/>
<path d="M1018 3653 c6 -2 18 -2 25 0 6 3 1 5 -13 5 -14 0 -19 -2 -12 -5z"/>
<path d="M1868 3563 c7 -3 16 -2 19 1 4 3 -2 6 -13 5 -11 0 -14 -3 -6 -6z"/>
<path d="M1298 3513 c18 -2 45 -2 60 0 15 2 0 4 -33 4 -33 0 -45 -2 -27 -4z"/>
<path d="M1148 3503 c7 -3 16 -2 19 1 4 3 -2 6 -13 5 -11 0 -14 -3 -6 -6z"/>
<path d="M1203 3503 c9 -2 23 -2 30 0 6 3 -1 5 -18 5 -16 0 -22 -2 -12 -5z"/>
<path d="M2933 3523 c15 -2 39 -2 55 0 15 2 2 4 -28 4 -30 0 -43 -2 -27 -4z"/>
<path d="M3378 3483 c12 -2 30 -2 40 0 9 3 -1 5 -23 4 -22 0 -30 -2 -17 -4z"/>
<path d="M5628 3643 c6 -2 18 -2 25 0 6 3 1 5 -13 5 -14 0 -19 -2 -12 -5z"/>
<path d="M5208 3613 c18 -2 45 -2 60 0 15 2 0 4 -33 4 -33 0 -45 -2 -27 -4z"/>
<path d="M5638 3613 c7 -3 16 -2 19 1 4 3 -2 6 -13 5 -11 0 -14 -3 -6 -6z"/>
<path d="M5688 3613 c7 -3 16 -2 19 1 4 3 -2 6 -13 5 -11 0 -14 -3 -6 -6z"/>
<path d="M4972 3523 c37 -2 100 -2 140 0 40 1 10 3 -67 3 -77 0 -110 -1 -73
-3z"/>
<path d="M5568 3473 c23 -2 61 -2 85 0 23 2 4 4 -43 4 -47 0 -66 -2 -42 -4z"/>
<path d="M6828 3523 c6 -2 18 -2 25 0 6 3 1 5 -13 5 -14 0 -19 -2 -12 -5z"/>
<path d="M6993 3523 c15 -2 37 -2 50 0 12 2 0 4 -28 4 -27 0 -38 -2 -22 -4z"/>
<path d="M7628 3473 c17 -2 47 -2 65 0 17 2 3 4 -33 4 -36 0 -50 -2 -32 -4z"/>
<path d="M8908 3623 c6 -2 18 -2 25 0 6 3 1 5 -13 5 -14 0 -19 -2 -12 -5z"/>
<path d="M8903 3523 c9 -2 23 -2 30 0 6 3 -1 5 -18 5 -16 0 -22 -2 -12 -5z"/>
<path d="M8998 3523 c12 -2 30 -2 40 0 9 3 -1 5 -23 4 -22 0 -30 -2 -17 -4z"/>
<path d="M9573 3473 c9 -2 23 -2 30 0 6 3 -1 5 -18 5 -16 0 -22 -2 -12 -5z"/>
<path d="M9688 3473 c18 -2 45 -2 60 0 15 2 0 4 -33 4 -33 0 -45 -2 -27 -4z"/>
<path d="M10898 3623 c6 -2 18 -2 25 0 6 3 1 5 -13 5 -14 0 -19 -2 -12 -5z"/>
<path d="M11268 3613 c7 -3 16 -2 19 1 4 3 -2 6 -13 5 -11 0 -14 -3 -6 -6z"/>
<path d="M10943 3523 c9 -2 23 -2 30 0 6 3 -1 5 -18 5 -16 0 -22 -2 -12 -5z"/>
<path d="M11013 3523 c15 -2 39 -2 55 0 15 2 2 4 -28 4 -30 0 -43 -2 -27 -4z"/>
<path d="M10828 3513 c7 -3 16 -2 19 1 4 3 -2 6 -13 5 -11 0 -14 -3 -6 -6z"/>
<path d="M11668 3473 c18 -2 45 -2 60 0 15 2 0 4 -33 4 -33 0 -45 -2 -27 -4z"/>
<path d="M13443 3483 c9 -2 25 -2 35 0 9 3 1 5 -18 5 -19 0 -27 -2 -17 -5z"/>
<path d="M14978 3523 c23 -2 61 -2 85 0 23 2 4 4 -43 4 -47 0 -66 -2 -42 -4z"/>
<path d="M15573 3473 c15 -2 39 -2 55 0 15 2 2 4 -28 4 -30 0 -43 -2 -27 -4z"/>
<path d="M15678 3473 c6 -2 18 -2 25 0 6 3 1 5 -13 5 -14 0 -19 -2 -12 -5z"/>
<path d="M16868 3623 c7 -3 16 -2 19 1 4 3 -2 6 -13 5 -11 0 -14 -3 -6 -6z"/>
<path d="M16923 3523 c31 -2 83 -2 115 0 31 2 5 3 -58 3 -63 0 -89 -1 -57 -3z"/>
<path d="M18278 3493 c28 -2 76 -2 105 0 28 2 5 3 -53 3 -58 0 -81 -1 -52 -3z"/>
<path d="M17657 3473 c18 -2 50 -2 70 0 21 2 7 4 -32 4 -38 0 -55 -2 -38 -4z"/>
<path d="M17783 3473 c9 -2 23 -2 30 0 6 3 -1 5 -18 5 -16 0 -22 -2 -12 -5z"/>
<path d="M19223 3613 c15 -2 37 -2 50 0 12 2 0 4 -28 4 -27 0 -38 -2 -22 -4z"/>
<path d="M19638 3613 c7 -3 16 -2 19 1 4 3 -2 6 -13 5 -11 0 -14 -3 -6 -6z"/>
<path d="M18878 3523 c7 -3 16 -2 19 1 4 3 -2 6 -13 5 -11 0 -14 -3 -6 -6z"/>
<path d="M18958 3523 c23 -2 61 -2 85 0 23 2 4 4 -43 4 -47 0 -66 -2 -42 -4z"/>
<path d="M19118 3523 c6 -2 18 -2 25 0 6 3 1 5 -13 5 -14 0 -19 -2 -12 -5z"/>
<path d="M19573 3473 c9 -2 23 -2 30 0 6 3 -1 5 -18 5 -16 0 -22 -2 -12 -5z"/>
<path d="M19673 3473 c15 -2 39 -2 55 0 15 2 2 4 -28 4 -30 0 -43 -2 -27 -4z"/>
<path d="M1298 2863 c17 -2 47 -2 65 0 17 2 3 4 -33 4 -36 0 -50 -2 -32 -4z"/>
<path d="M1428 2863 c7 -3 16 -2 19 1 4 3 -2 6 -13 5 -11 0 -14 -3 -6 -6z"/>
<path d="M1538 2863 c7 -3 16 -2 19 1 4 3 -2 6 -13 5 -11 0 -14 -3 -6 -6z"/>
<path d="M773 2843 c9 -2 25 -2 35 0 9 3 1 5 -18 5 -19 0 -27 -2 -17 -5z"/>
<path d="M11793 2863 c15 -2 39 -2 55 0 15 2 2 4 -28 4 -30 0 -43 -2 -27 -4z"/>
<path d="M10908 2843 c12 -2 30 -2 40 0 9 3 -1 5 -23 4 -22 0 -30 -2 -17 -4z"/>
<path d="M14383 2823 c9 -2 25 -2 35 0 9 3 1 5 -18 5 -19 0 -27 -2 -17 -5z"/>
<path d="M17788 2863 c12 -2 30 -2 40 0 9 3 -1 5 -23 4 -22 0 -30 -2 -17 -4z"/>
<path d="M4263 2813 c9 -2 23 -2 30 0 6 3 -1 5 -18 5 -16 0 -22 -2 -12 -5z"/>
<path d="M3770 2800 c0 -5 7 -10 15 -10 8 0 15 5 15 10 0 6 -7 10 -15 10 -8 0
-15 -4 -15 -10z"/>
<path d="M5168 2863 c7 -3 16 -2 19 1 4 3 -2 6 -13 5 -11 0 -14 -3 -6 -6z"/>
<path d="M5778 2863 c12 -2 32 -2 45 0 12 2 2 4 -23 4 -25 0 -35 -2 -22 -4z"/>
<path d="M7758 2863 c18 -2 45 -2 60 0 15 2 0 4 -33 4 -33 0 -45 -2 -27 -4z"/>
<path d="M7858 2693 c7 -3 16 -2 19 1 4 3 -2 6 -13 5 -11 0 -14 -3 -6 -6z"/>
<path d="M8418 2693 c7 -3 16 -2 19 1 4 3 -2 6 -13 5 -11 0 -14 -3 -6 -6z"/>
<path d="M9768 2863 c18 -2 45 -2 60 0 15 2 0 4 -33 4 -33 0 -45 -2 -27 -4z"/>
<path d="M8903 2843 c9 -2 23 -2 30 0 6 3 -1 5 -18 5 -16 0 -22 -2 -12 -5z"/>
<path d="M10393 2803 c9 -2 25 -2 35 0 9 3 1 5 -18 5 -19 0 -27 -2 -17 -5z"/>
<path d="M15198 2863 c7 -3 16 -2 19 1 4 3 -2 6 -13 5 -11 0 -14 -3 -6 -6z"/>
<path d="M15788 2863 c12 -2 32 -2 45 0 12 2 2 4 -23 4 -25 0 -35 -2 -22 -4z"/>
<path d="M19783 2863 c15 -2 37 -2 50 0 12 2 0 4 -28 4 -27 0 -38 -2 -22 -4z"/>
<path d="M14552 3980 c0 -19 2 -27 5 -17 2 9 2 25 0 35 -3 9 -5 1 -5 -18z"/>
<path d="M2463 3755 c0 -22 2 -30 4 -17 2 12 2 30 0 40 -3 9 -5 -1 -4 -23z"/>
<path d="M14522 3760 c0 -14 2 -19 5 -12 2 6 2 18 0 25 -3 6 -5 1 -5 -13z"/>
<path d="M16502 3750 c0 -14 2 -19 5 -12 2 6 2 18 0 25 -3 6 -5 1 -5 -13z"/>
<path d="M10542 3585 c0 -16 2 -22 5 -12 2 9 2 23 0 30 -3 6 -5 -1 -5 -18z"/>
<path d="M14552 3585 c0 -16 2 -22 5 -12 2 9 2 23 0 30 -3 6 -5 -1 -5 -18z"/>
<path d="M16532 3590 c0 -14 2 -19 5 -12 2 6 2 18 0 25 -3 6 -5 1 -5 -13z"/>
<path d="M18532 3590 c0 -14 2 -19 5 -12 2 6 2 18 0 25 -3 6 -5 1 -5 -13z"/>
<path d="M410 3585 c0 -8 5 -15 10 -15 6 0 10 7 10 15 0 8 -4 15 -10 15 -5 0
-10 -7 -10 -15z"/>
<path d="M6712 3575 c0 -16 2 -22 5 -12 2 9 2 23 0 30 -3 6 -5 -1 -5 -18z"/>
<path d="M563 3530 c0 -36 2 -50 4 -32 2 17 2 47 0 65 -2 17 -4 3 -4 -33z"/>
<path d="M20711 3564 c0 -11 3 -14 6 -6 3 7 2 16 -1 19 -3 4 -6 -2 -5 -13z"/>
<path d="M2651 3554 c0 -11 3 -14 6 -6 3 7 2 16 -1 19 -3 4 -6 -2 -5 -13z"/>
<path d="M4682 3545 c0 -16 2 -22 5 -12 2 9 2 23 0 30 -3 6 -5 -1 -5 -18z"/>
<path d="M8692 3550 c0 -14 2 -19 5 -12 2 6 2 18 0 25 -3 6 -5 1 -5 -13z"/>
<path d="M10702 3550 c0 -14 2 -19 5 -12 2 6 2 18 0 25 -3 6 -5 1 -5 -13z"/>
<path d="M12721 3554 c0 -11 3 -14 6 -6 3 7 2 16 -1 19 -3 4 -6 -2 -5 -13z"/>
<path d="M14712 3545 c0 -16 2 -22 5 -12 2 9 2 23 0 30 -3 6 -5 -1 -5 -18z"/>
<path d="M16692 3550 c0 -14 2 -19 5 -12 2 6 2 18 0 25 -3 6 -5 1 -5 -13z"/>
<path d="M18685 3561 c-3 -5 -1 -12 5 -16 5 -3 10 1 10 9 0 18 -6 21 -15 7z"/>
<path d="M20868 3523 c17 -2 47 -2 65 0 17 2 3 4 -33 4 -36 0 -50 -2 -32 -4z"/>
<path d="M20993 3523 c15 -2 37 -2 50 0 12 2 0 4 -28 4 -27 0 -38 -2 -22 -4z"/>
<path d="M21628 3473 c12 -2 32 -2 45 0 12 2 2 4 -23 4 -25 0 -35 -2 -22 -4z"/>
<path d="M2714 3255 c0 -60 1 -84 3 -52 2 32 2 81 0 110 -2 29 -3 3 -3 -58z"/>
<path d="M12774 3240 c0 -63 1 -89 3 -57 2 31 2 83 0 115 -2 31 -3 5 -3 -58z"/>
<path d="M6731 3224 c0 -11 3 -14 6 -6 3 7 2 16 -1 19 -3 4 -6 -2 -5 -13z"/>
<path d="M4492 3195 c0 -16 2 -22 5 -12 2 9 2 23 0 30 -3 6 -5 -1 -5 -18z"/>
<path d="M6474 3120 c0 -58 1 -81 3 -52 2 28 2 76 0 105 -2 28 -3 5 -3 -53z"/>
<path d="M18492 3190 c0 -19 2 -27 5 -17 2 9 2 25 0 35 -3 9 -5 1 -5 -18z"/>
<path d="M16492 3180 c0 -19 2 -27 5 -17 2 9 2 25 0 35 -3 9 -5 1 -5 -18z"/>
<path d="M20472 3130 c0 -19 2 -27 5 -17 2 9 2 25 0 35 -3 9 -5 1 -5 -18z"/>
<path d="M624 2935 c0 -115 2 -161 3 -102 2 59 2 154 0 210 -1 56 -3 8 -3
-108z"/>
<path d="M10754 2995 c0 -77 2 -107 3 -67 2 40 2 103 0 140 -2 37 -3 4 -3 -73z"/>
<path d="M14764 3000 c0 -74 1 -105 3 -67 2 37 2 97 0 135 -2 37 -3 6 -3 -68z"/>
<path d="M4732 3040 c0 -14 2 -19 5 -12 2 6 2 18 0 25 -3 6 -5 1 -5 -13z"/>
<path d="M4731 2934 c0 -11 3 -14 6 -6 3 7 2 16 -1 19 -3 4 -6 -2 -5 -13z"/>
<path d="M12703 2805 c0 -27 2 -38 4 -22 2 15 2 37 0 50 -2 12 -4 0 -4 -28z"/>
<path d="M288 2773 c6 -2 18 -2 25 0 6 3 1 5 -13 5 -14 0 -19 -2 -12 -5z"/>
<path d="M384 2525 c0 -77 2 -107 3 -67 2 40 2 103 0 140 -2 37 -3 4 -3 -73z"/>
<path d="M16494 2490 c0 -91 2 -128 3 -82 2 45 2 119 0 165 -1 45 -3 8 -3 -83z"/>
<path d="M14514 2475 c0 -88 2 -123 3 -77 2 46 2 118 0 160 -1 42 -3 5 -3 -83z"/>
<path d="M620 2443 c0 -119 -3 -142 -19 -167 l-20 -29 -4 39 c-4 38 -4 38 -5
-8 -2 -53 -22 -67 -22 -15 0 44 10 78 21 71 5 -3 9 6 9 20 0 13 3 31 6 40 3 9
2 16 -4 16 -5 0 -17 -24 -27 -52 -9 -29 -27 -70 -40 -91 l-22 -38 -18 68 c-21
78 -41 123 -56 123 -6 0 -6 -6 1 -19 5 -11 11 -57 11 -103 1 -71 3 -77 9 -38
4 24 5 53 2 64 -3 12 -1 17 5 13 6 -4 16 -37 23 -74 17 -99 20 -103 37 -53 22
66 33 72 33 18 0 -26 4 -49 8 -52 4 -2 19 16 32 42 31 60 29 59 40 42 6 -10
10 45 10 153 0 92 -2 167 -5 167 -3 0 -5 -62 -5 -137z"/>
<path d="M14760 2442 c0 -99 -3 -122 -17 -140 -10 -11 -23 -29 -30 -39 -11
-17 -12 -16 -12 7 -1 14 4 43 11 65 l12 40 7 -30 c5 -25 7 -21 8 23 0 28 -2
52 -7 52 -15 0 -42 -99 -42 -154 0 -59 -10 -71 -28 -33 -9 18 -10 14 -5 -23 3
-25 7 -47 9 -48 1 -2 12 14 23 35 11 22 27 45 35 52 9 8 16 20 16 27 0 8 7 14
15 14 13 0 15 22 15 135 0 74 -2 135 -5 135 -3 0 -5 -53 -5 -118z"/>
<path d="M8503 2470 c0 -41 2 -58 4 -37 2 20 2 54 0 75 -2 20 -4 3 -4 -38z"/>
<path d="M10504 2445 c0 -55 1 -76 3 -47 2 29 2 74 0 100 -2 26 -3 2 -3 -53z"/>
<path d="M12518 2446 c-5 -101 1 -171 13 -141 4 11 5 -14 3 -55 -5 -95 2 -80
11 22 4 42 12 83 18 92 10 13 12 -4 13 -78 1 -52 7 -102 12 -112 10 -17 12
-16 22 11 33 84 34 85 40 20 l6 -60 20 42 c21 46 30 53 37 26 3 -13 6 -10 12
11 5 20 4 31 -6 37 -10 6 -19 -2 -34 -29 l-20 -37 -3 32 c-2 17 4 46 13 62 8
17 13 31 9 31 -12 0 -54 -51 -69 -83 -10 -21 -14 -24 -11 -10 2 13 -1 21 -8
20 -16 -3 -12 118 7 171 21 61 4 52 -37 -20 -39 -69 -39 -68 -36 55 1 42 0 77
-3 77 -2 0 -6 -38 -9 -84z"/>
<path d="M6472 2407 c-1 -88 1 -118 10 -115 6 2 16 18 22 35 17 49 21 46 21
-15 1 -69 13 -152 24 -152 7 0 41 87 41 105 0 6 -9 -8 -20 -30 -17 -34 -20
-36 -16 -13 1 15 -1 25 -5 22 -14 -9 -10 99 6 151 8 27 12 51 10 54 -7 6 -30
-26 -52 -71 -10 -21 -21 -38 -25 -38 -4 0 -9 42 -11 93 -3 90 -3 89 -5 -26z"/>
<path d="M10753 2455 c0 -33 2 -45 4 -27 2 18 2 45 0 60 -2 15 -4 0 -4 -33z"/>
<path d="M16742 2480 c0 -19 2 -27 5 -17 2 9 2 25 0 35 -3 9 -5 1 -5 -18z"/>
<path d="M18493 2465 c0 -27 2 -38 4 -22 2 15 2 37 0 50 -2 12 -4 0 -4 -28z"/>
<path d="M2506 2475 c-9 -9 -16 -24 -17 -33 -1 -9 -2 -37 -3 -62 -2 -25 -6
-56 -10 -70 -5 -21 -5 -22 3 -5 8 16 10 11 10 -26 1 -55 11 -109 20 -109 3 0
12 19 19 43 8 23 19 49 26 57 7 8 16 24 20 35 6 18 5 18 -8 5 -8 -8 -24 -33
-35 -55 l-20 -40 -3 60 c-4 91 1 165 13 187 14 26 6 33 -15 13z"/>
<path d="M2452 2430 c0 -14 2 -19 5 -12 2 6 2 18 0 25 -3 6 -5 1 -5 -13z"/>
<path d="M2616 2390 c-22 -46 -26 -64 -18 -72 9 -9 12 -7 12 9 0 12 5 25 10
28 24 15 0 -104 -25 -125 -12 -10 -16 -8 -24 11 -9 23 -10 23 -10 3 -1 -12 2
-36 5 -53 l7 -32 23 42 c13 22 35 55 49 71 14 16 25 35 25 41 0 6 -7 2 -15 -9
-14 -17 -15 -12 -9 64 4 45 5 82 2 82 -2 0 -17 -27 -32 -60z"/>
<path d="M2866 2398 c-25 -29 -46 -59 -46 -67 0 -8 14 5 30 27 17 23 32 42 35
42 6 0 -25 -72 -37 -88 -6 -7 -8 -15 -5 -18 3 -3 24 30 46 75 23 45 37 81 32
81 -5 0 -30 -24 -55 -52z"/>
<path d="M4552 2437 c-17 -20 -52 -100 -51 -117 0 -8 6 1 13 20 13 35 13 34
19 -40 4 -41 11 -88 16 -105 l9 -30 17 40 c16 35 19 38 26 20 4 -11 8 -32 8
-47 1 -44 17 -33 55 39 32 59 36 76 36 140 0 47 -4 73 -11 73 -8 0 -9 -21 -4
-66 6 -66 -6 -124 -27 -124 -9 0 -5 34 8 83 3 9 3 17 -1 17 -9 0 -68 -69 -87
-102 -10 -18 -19 -25 -23 -18 -11 18 -7 178 5 201 14 24 8 35 -8 16z m83 -216
l-7 -26 -13 25 c-11 20 -10 28 4 49 l16 25 3 -23 c2 -13 1 -35 -3 -50z"/>
<path d="M8562 2438 c-18 -23 -40 -84 -46 -129 l-6 -44 14 48 c17 59 30 75 22
27 -4 -19 -2 -48 3 -65 8 -26 9 -20 10 36 1 36 6 80 12 98 12 35 8 49 -9 29z"/>
<path d="M10565 2420 c-14 -28 -14 -39 0 -128 22 -136 22 -136 56 -67 34 68
56 95 45 55 -4 -14 -10 -45 -12 -70 l-5 -45 20 25 c11 14 26 38 32 53 l12 29
13 -29 c11 -26 12 -22 12 42 -1 39 -3 57 -5 40 -2 -16 -10 -34 -17 -40 -6 -5
-20 -21 -29 -35 -23 -33 -21 -14 5 65 14 44 24 62 29 53 6 -8 9 1 9 25 0 23
-4 36 -10 32 -5 -3 -10 -13 -10 -21 0 -8 -4 -14 -10 -14 -5 0 -12 -16 -16 -35
-3 -19 -10 -35 -16 -35 -5 0 -23 -23 -40 -51 -30 -48 -32 -49 -41 -27 -5 13
-7 65 -4 116 2 50 3 92 1 92 -2 0 -11 -14 -19 -30z"/>
<path d="M12861 2423 c-10 -26 -10 -27 4 -9 8 11 15 23 15 28 0 15 -7 8 -19
-19z"/>
<path d="M14566 2391 c-14 -32 -26 -69 -25 -82 0 -18 4 -14 14 16 l13 40 1
-34 c2 -55 22 -161 31 -161 5 0 11 14 15 30 4 17 20 45 36 63 16 17 29 37 29
45 0 21 -19 4 -50 -45 -17 -27 -31 -40 -35 -33 -11 18 -7 167 4 189 13 24 14
31 2 31 -4 0 -20 -26 -35 -59z"/>
<path d="M14934 2397 c-27 -28 -37 -42 -23 -29 36 31 39 28 16 -20 -14 -29
-21 -62 -21 -110 -1 -37 2 -68 6 -68 4 0 18 16 31 35 23 34 93 94 110 95 4 0
-7 -13 -25 -29 -29 -25 -65 -107 -53 -120 2 -2 16 11 30 28 31 36 60 42 52 10
-5 -18 -2 -20 16 -14 12 4 32 9 45 12 12 3 22 9 22 14 0 12 -17 11 -42 -2 -11
-6 -22 -8 -25 -6 -2 3 11 13 31 22 36 17 52 44 19 30 -29 -12 -83 -23 -83 -18
0 3 -7 0 -15 -7 -32 -26 -28 2 4 33 25 24 32 27 27 12 -8 -23 -2 -17 38 38 15
20 24 37 21 37 -19 0 -85 -36 -122 -66 -48 -39 -49 -39 -28 13 8 20 13 39 10
42 -9 8 -25 -21 -25 -44 0 -24 -17 -52 -25 -43 -4 3 -1 16 5 28 8 15 8 20 1
16 -21 -13 -11 21 25 88 19 37 34 70 32 72 -2 2 -26 -20 -54 -49z"/>
<path d="M16541 2389 c-18 -33 -30 -63 -27 -66 3 -4 6 -2 6 3 0 6 6 18 13 27
10 15 12 11 13 -25 1 -69 15 -158 25 -158 5 0 9 7 9 15 0 8 8 31 17 51 l18 36
10 -58 11 -59 22 42 c29 56 42 62 42 21 1 -23 3 -29 9 -18 5 8 9 34 8 57 l0
43 -23 -27 -22 -26 -5 29 c-3 23 -4 20 -6 -13 0 -23 -5 -45 -11 -48 -14 -9
-23 40 -11 63 13 25 14 45 2 38 -5 -4 -22 -26 -39 -51 -16 -24 -32 -42 -36
-38 -10 10 -7 135 5 176 16 59 5 54 -30 -14z"/>
<path d="M18557 2438 c-22 -18 -53 -102 -60 -167 -9 -73 1 -59 14 20 14 89 24
91 26 6 1 -40 6 -85 11 -102 l9 -30 15 36 c23 53 38 58 38 12 0 -21 5 -45 10
-53 7 -12 12 -9 22 15 21 46 52 95 61 95 4 0 7 36 7 80 0 80 -13 106 -25 50
-4 -16 -2 -45 5 -64 9 -29 8 -39 -11 -70 -12 -20 -23 -36 -24 -34 -2 2 0 23 5
48 5 25 7 46 6 48 -5 4 -49 -41 -78 -78 -15 -19 -30 -31 -33 -28 -12 12 -6
146 9 187 7 23 13 41 12 41 -1 0 -10 -6 -19 -12z m85 -193 c-2 -25 -8 -45 -13
-45 -10 0 -12 50 -3 74 12 30 19 16 16 -29z"/>
<path d="M20541 2419 c-12 -19 -18 -44 -15 -63 2 -17 6 -66 10 -108 3 -43 9
-78 14 -78 4 0 17 23 29 51 15 38 17 48 6 39 -8 -7 -15 -19 -15 -26 0 -28 -18
-13 -24 20 -6 33 6 145 19 179 12 28 -4 19 -24 -14z"/>
<path d="M4483 2395 c0 -27 2 -38 4 -22 2 15 2 37 0 50 -2 12 -4 0 -4 -28z"/>
<path d="M8308 2413 c35 -51 61 -118 66 -167 3 -27 12 -56 21 -65 16 -15 16
-13 10 27 -4 24 -18 71 -31 104 -28 71 -26 84 6 34 22 -37 30 -44 30 -25 0 13
-100 119 -112 119 -5 0 -1 -12 10 -27z"/>
<path d="M12300 2437 c0 -3 11 -29 25 -59 14 -29 28 -74 31 -99 4 -26 16 -59
30 -75 l23 -29 0 25 c0 14 -7 43 -15 65 l-14 40 5 -37 c6 -62 -10 -43 -22 25
-6 34 -14 70 -18 80 -9 23 41 -24 67 -63 10 -14 18 -20 18 -14 0 15 -67 96
-102 124 -16 12 -28 19 -28 17z"/>
<path d="M14873 2428 c-20 -26 -26 -41 -15 -34 12 7 36 46 29 46 -3 0 -9 -6
-14 -12z"/>
<path d="M6680 2378 c-20 -91 -20 -94 0 -53 l20 40 -6 -50 c-8 -71 -13 -84
-24 -65 -8 13 -12 12 -24 -5 -9 -11 -16 -26 -16 -32 0 -7 -4 -13 -10 -13 -14
0 -12 35 4 75 16 37 4 49 -14 16 -11 -22 -12 -96 -1 -124 6 -17 8 -17 18 5 6
13 14 32 18 43 7 19 8 19 14 -4 6 -22 9 -20 33 27 14 28 24 53 20 56 -3 3 -4
35 -3 71 3 79 -12 85 -29 13z"/>
<path d="M8698 2408 c-10 -15 -21 -53 -24 -84 -4 -32 -13 -69 -21 -83 l-13
-26 0 33 c0 18 5 43 11 54 21 39 -14 14 -47 -35 -19 -27 -34 -42 -37 -34 -3 6
-6 1 -6 -13 -1 -51 15 -51 33 0 18 50 33 65 33 33 -1 -50 4 -83 11 -83 16 0
41 67 47 128 4 34 12 65 17 68 12 8 6 -70 -7 -100 -6 -13 -5 -17 2 -13 6 4 13
1 15 -5 9 -25 13 38 8 112 l-5 74 -17 -26z"/>
<path d="M12731 2408 c-5 -13 -11 -48 -14 -78 -5 -40 -4 -46 2 -22 13 49 21
51 21 4 0 -31 4 -42 15 -42 8 0 15 5 15 11 0 5 -5 7 -11 3 -7 -4 -10 17 -7 70
3 76 -5 96 -21 54z"/>
<path d="M16330 2425 c0 -3 11 -33 25 -68 17 -40 23 -71 19 -89 -3 -16 -1 -28
4 -28 5 0 12 -13 16 -30 3 -16 11 -30 17 -30 6 0 9 8 6 18 -5 15 -17 56 -41
142 l-7 25 20 -24 c35 -39 23 -7 -14 43 -34 43 -45 53 -45 41z"/>
<path d="M16682 2378 c-11 -29 -17 -57 -14 -62 3 -6 11 6 18 25 l12 34 4 -35
c3 -24 5 -15 6 28 1 34 0 62 -2 62 -3 0 -13 -24 -24 -52z"/>
<path d="M18320 2427 c0 -1 13 -34 30 -72 27 -64 43 -72 20 -9 -9 23 -9 25 4
15 8 -7 22 -29 32 -49 9 -20 19 -32 21 -25 7 19 -79 143 -98 143 -5 0 -9 -1
-9 -3z"/>
<path d="M20693 2409 c-7 -15 -14 -42 -16 -60 -2 -19 -2 -26 0 -16 2 9 9 17
14 17 12 0 11 -53 -2 -87 -10 -26 -12 -27 -19 -8 -7 18 -10 15 -26 -20 -17
-38 -18 -39 -22 -14 -2 15 4 43 12 63 16 37 5 51 -14 17 -12 -23 -14 -141 -2
-141 4 0 15 19 24 43 15 38 17 40 24 19 6 -21 8 -19 28 20 19 37 21 53 16 118
-5 67 -7 72 -17 49z"/>
<path d="M6861 2365 c-28 -31 -51 -62 -51 -68 0 -7 10 -1 21 13 l20 25 -6 -35
c-5 -29 1 -22 34 39 22 41 39 76 37 78 -2 2 -26 -22 -55 -52z"/>
<path d="M10283 2367 c16 -40 23 -50 27 -36 4 16 9 13 29 -17 14 -20 35 -40
48 -45 24 -9 33 -54 12 -61 -6 -2 -1 -12 12 -23 l22 -20 -5 61 c-3 33 -15 81
-27 105 -12 24 -18 35 -15 24 18 -55 17 -64 -6 -58 -12 3 -32 22 -45 42 -12
20 -34 47 -48 59 l-25 24 21 -55z"/>
<path d="M2703 2360 c0 -30 2 -43 4 -27 2 15 2 39 0 55 -2 15 -4 2 -4 -28z"/>
<path d="M14260 2408 c0 -2 12 -32 26 -68 15 -41 23 -53 20 -32 -6 36 9 35 24
-2 6 -14 9 -16 9 -5 1 9 -15 37 -35 62 -32 41 -44 54 -44 45z"/>
<path d="M4230 2398 c0 -2 7 -21 15 -43 8 -22 14 -55 15 -74 l0 -34 -23 21
c-29 27 -37 28 -30 3 3 -11 13 -21 24 -24 11 -3 19 -14 19 -26 0 -23 -10 -27
-27 -10 -8 8 -13 8 -18 -1 -4 -7 1 -14 14 -17 12 -3 21 -9 21 -14 0 -5 5 -9
10 -9 6 0 10 18 10 41 0 35 3 40 18 34 14 -5 15 -4 5 6 -7 7 -13 31 -12 54 l1
40 13 -30 c8 -16 14 -23 15 -15 0 18 -51 100 -62 100 -5 0 -8 -1 -8 -2z"/>
<path d="M16234 2372 c18 -36 30 -97 21 -112 -5 -8 -15 -4 -31 11 -17 16 -24
18 -24 8 1 -18 29 -68 30 -51 0 19 20 14 21 -5 0 -11 3 -13 6 -5 2 6 12 12 20
12 11 0 13 4 5 13 -12 15 -21 87 -11 87 4 0 11 -9 14 -21 4 -11 9 -18 12 -16
9 10 -55 107 -71 107 -4 0 0 -13 8 -28z"/>
<path d="M18225 2378 c22 -71 29 -122 17 -126 -6 -2 -12 -8 -12 -13 0 -6 5 -7
12 -3 8 5 9 2 5 -10 -4 -10 -7 -23 -7 -29 0 -8 -4 -7 -12 1 -7 7 -17 12 -23
12 -16 0 -13 -52 4 -58 10 -3 11 2 6 19 -6 20 -5 22 6 12 20 -20 29 -16 29 12
0 14 4 25 8 25 4 0 5 25 2 55 -7 60 -1 69 20 30 7 -14 16 -23 18 -20 6 5 -65
115 -74 115 -4 0 -3 -10 1 -22z"/>
<path d="M20474 2342 c0 -42 -5 -66 -14 -72 -8 -5 -10 -15 -5 -26 6 -15 10
-10 23 26 8 24 21 51 29 58 15 16 18 46 3 37 -5 -3 -10 -13 -10 -21 0 -31 -19
-12 -23 24 -2 20 -4 9 -3 -26z"/>
<path d="M250 2350 c12 -17 25 -28 30 -25 4 3 13 -2 20 -10 7 -8 18 -15 24
-15 13 1 -72 80 -86 80 -5 0 0 -14 12 -30z"/>
<path d="M1807 2328 c7 -63 13 -74 14 -27 l1 34 13 -30 c8 -16 14 -24 15 -17
0 14 -38 92 -45 92 -2 0 -1 -24 2 -52z"/>
<path d="M8491 2364 c0 -11 3 -14 6 -6 3 7 2 16 -1 19 -3 4 -6 -2 -5 -13z"/>
<path d="M1210 2346 c0 -13 -2 -39 -5 -57 l-5 -34 11 35 c10 31 12 33 20 15 4
-11 8 -45 9 -75 1 -46 3 -52 13 -37 33 52 39 54 33 13 -3 -22 -2 -35 3 -30 4
5 22 28 40 52 40 52 55 55 30 5 -27 -54 -25 -69 7 -44 36 28 46 26 34 -5 -9
-23 -8 -25 7 -19 35 15 63 17 63 6 0 -6 10 -11 23 -11 13 0 28 -5 35 -12 9 -9
12 -7 12 12 0 22 1 23 20 5 20 -18 20 -17 20 10 0 27 0 27 25 11 28 -18 28
-18 16 57 l-8 48 24 -23 c14 -13 34 -40 46 -60 24 -43 42 -50 33 -13 -9 34 0
32 19 -5 20 -39 35 -38 34 3 0 26 -2 28 -8 12 -8 -18 -10 -17 -27 12 -22 38
-31 41 -36 12 -3 -18 -8 -15 -36 25 -36 50 -81 84 -67 50 4 -11 10 -39 13 -63
l5 -44 -24 16 c-31 22 -42 21 -29 -2 15 -28 13 -33 -10 -21 -16 9 -20 8 -20
-6 0 -11 -5 -14 -16 -10 -9 3 -19 6 -24 6 -4 0 -6 10 -2 23 5 21 4 21 -15 5
-11 -10 -29 -18 -40 -18 -17 0 -20 5 -15 22 4 16 2 20 -9 16 -54 -22 -52 -24
-25 31 15 28 22 51 16 51 -6 0 -30 -20 -55 -44 -31 -31 -45 -40 -49 -30 -3 8
-1 14 4 14 6 0 10 7 10 15 0 23 -15 18 -30 -10 -17 -32 -30 -32 -30 0 0 34
-22 115 -32 115 -4 0 -8 -11 -8 -24z"/>
<path d="M8259 2338 c11 -18 22 -48 26 -65 4 -18 11 -36 17 -39 7 -5 9 2 4 22
-12 47 -44 114 -55 114 -6 0 -2 -15 8 -32z"/>
<path d="M2994 2336 c-23 -13 -50 -32 -62 -42 -31 -29 -73 -64 -77 -64 -2 0 1
14 7 31 7 21 13 27 19 18 5 -9 12 -2 22 22 16 39 14 47 -7 30 -8 -7 -12 -19
-9 -27 3 -8 2 -14 -3 -13 -5 1 -22 -3 -39 -10 -21 -9 -26 -14 -16 -20 8 -6 10
-19 6 -45 -9 -43 6 -48 32 -9 34 50 117 122 128 111 2 -2 -2 -16 -10 -31 -20
-40 0 -23 35 29 35 50 31 53 -26 20z"/>
<path d="M6775 2350 c-3 -5 -9 -32 -12 -60 -3 -27 -10 -47 -14 -44 -14 8 -21
-19 -17 -67 l3 -44 41 70 c35 61 39 73 26 84 -8 8 -12 25 -10 42 4 28 -5 39
-17 19z m-15 -127 c0 -5 -5 -15 -10 -23 -8 -12 -10 -11 -10 8 0 12 5 22 10 22
6 0 10 -3 10 -7z"/>
<path d="M10536 2338 c-9 -39 -12 -108 -5 -100 4 4 9 33 12 65 6 57 2 77 -7
35z"/>
<path d="M18471 2350 c0 -8 4 -22 9 -30 12 -18 12 -2 0 25 -6 13 -9 15 -9 5z"/>
<path d="M3305 2295 c-4 -30 -10 -55 -14 -55 -4 0 -20 14 -36 30 -38 40 -45
38 -29 -7 7 -21 13 -47 14 -57 0 -18 -1 -18 -18 -3 -20 19 -37 23 -27 7 3 -5
-1 -10 -9 -10 -10 0 -13 -6 -10 -17 5 -17 5 -17 -8 -1 -10 11 -22 15 -37 11
-20 -5 -22 -3 -16 16 4 15 2 21 -9 21 -8 0 -18 -4 -21 -10 -3 -5 -12 -10 -18
-10 -7 0 4 14 23 30 19 16 30 30 23 30 -13 0 -83 -68 -83 -82 0 -12 12 -9 34
7 28 21 39 18 25 -6 -10 -19 -9 -21 18 -15 18 4 35 1 48 -8 27 -21 47 -20 43
2 -3 18 3 19 36 6 17 -7 19 -3 14 39 -3 26 -2 44 3 41 5 -3 9 -16 9 -30 0 -13
4 -24 9 -24 5 0 7 9 4 20 -8 31 4 24 23 -12 11 -21 19 -28 22 -19 2 7 -1 17
-8 21 -9 5 -9 17 1 51 l13 44 5 -33 6 -34 28 22 c15 12 27 26 27 32 0 7 -11 1
-24 -11 l-24 -22 -6 45 c-4 25 -11 46 -16 46 -5 0 -12 -25 -15 -55z"/>
<path d="M5816 2315 c7 -43 14 -59 14 -32 0 26 18 20 34 -10 9 -17 15 -22 16
-12 0 9 -16 33 -35 55 l-35 39 6 -40z"/>
<path d="M5981 2320 c-6 -18 -6 -28 -1 -25 6 4 10 -18 10 -54 0 -34 4 -61 8
-61 5 0 18 14 31 31 13 17 25 28 29 25 3 -3 14 1 24 11 20 18 25 4 6 -15 -6
-6 -9 -14 -6 -18 4 -3 18 13 33 36 15 23 25 44 23 46 -2 2 -21 -10 -41 -27
-34 -28 -37 -29 -37 -10 0 27 -16 27 -32 1 -22 -35 -31 -22 -24 35 7 60 -6 74
-23 25z m49 -95 c-7 -9 -15 -13 -18 -10 -3 2 1 11 8 20 7 9 15 13 18 10 3 -2
-1 -11 -8 -20z"/>
<path d="M7788 2320 c4 -31 22 -52 22 -28 1 7 14 -3 30 -22 40 -46 38 -22 -2
31 -41 53 -56 59 -50 19z"/>
<path d="M9803 2337 c4 -10 8 -33 8 -50 1 -18 3 -24 6 -14 5 18 23 24 23 7 0
-5 5 -10 11 -10 12 0 -19 56 -40 73 -12 10 -14 9 -8 -6z"/>
<path d="M11821 2333 c1 -22 17 -63 18 -45 1 7 6 10 11 7 6 -4 8 -11 5 -16 -3
-5 1 -6 9 -3 14 5 13 10 -5 35 -26 37 -39 45 -38 22z"/>
<path d="M17000 2318 c-30 -17 -57 -34 -60 -37 -3 -3 -11 -6 -19 -6 -8 0 -17
-7 -19 -15 -5 -13 -3 -13 11 -1 10 7 17 11 17 7 0 -4 11 1 25 10 14 9 25 12
25 8 0 -5 5 -2 11 6 8 11 9 8 5 -15 -5 -26 -4 -28 7 -11 6 10 23 32 36 48 13
16 22 31 19 33 -2 2 -28 -10 -58 -27z"/>
<path d="M17307 2340 c-17 -43 -26 -133 -15 -153 12 -21 12 -21 16 -2 2 10 -1
21 -6 23 -7 2 -9 16 -5 35 8 45 23 58 23 19 0 -24 4 -30 15 -26 12 5 15 -3 15
-37 l0 -44 20 25 c11 14 20 30 20 36 0 6 14 26 30 44 32 36 43 73 14 50 -8 -8
-27 -33 -41 -57 -13 -24 -27 -43 -30 -43 -3 0 -2 19 2 43 6 39 6 41 -8 22 -19
-24 -21 -22 -34 35 -6 28 -12 39 -16 30z"/>
<path d="M18760 2339 c0 -5 5 -7 10 -4 6 3 10 8 10 11 0 2 -4 4 -10 4 -5 0
-10 -5 -10 -11z"/>
<path d="M19827 2293 c3 -35 3 -63 0 -63 -4 0 -15 10 -27 22 -11 12 -22 19
-26 16 -5 -6 50 -68 61 -68 3 0 5 24 5 53 1 45 2 50 14 35 7 -10 16 -18 20
-18 8 0 -7 26 -34 60 l-20 25 7 -62z"/>
<path d="M19985 2317 c-7 -18 -17 -45 -20 -60 -9 -34 -25 -45 -25 -18 0 22
-14 28 -25 11 -4 -6 -11 -7 -17 -4 -7 4 -8 2 -4 -5 5 -7 5 -24 2 -37 -6 -21
-9 -24 -21 -14 -19 15 -19 1 -1 -22 19 -26 25 -22 32 22 7 40 24 56 24 22 0
-41 16 -30 36 24 l21 58 7 -58 8 -58 29 28 c17 16 29 38 29 53 l0 24 -23 -21
c-31 -29 -39 -19 -31 40 8 56 -1 62 -21 15z m50 -87 c-10 -11 -21 -18 -23 -15
-3 3 3 12 14 20 27 20 30 18 9 -5z"/>
<path d="M20991 2309 c-34 -21 -67 -39 -72 -39 -14 0 -10 22 8 42 10 11 12 18
4 18 -15 0 -51 -60 -51 -85 1 -17 2 -18 10 -4 5 9 25 20 43 23 19 4 42 15 52
26 10 11 23 20 28 20 6 0 1 -10 -11 -23 -12 -13 -22 -27 -22 -33 0 -5 18 11
40 36 22 25 40 48 40 53 0 9 4 11 -69 -34z"/>
<path d="M1065 2325 c5 -11 15 -39 23 -63 17 -49 26 -52 13 -4 -11 37 1 43 17
10 6 -13 11 -17 11 -10 1 7 -15 29 -35 50 -23 24 -33 30 -29 17z"/>
<path d="M1969 2319 c-6 -12 -13 -39 -14 -60 -3 -32 -1 -36 16 -32 11 3 22 9
25 14 3 5 10 9 15 9 5 0 2 -14 -6 -31 -16 -31 -16 -31 7 -23 20 6 21 5 9 -10
-19 -22 -9 -29 21 -15 19 8 31 8 48 -1 20 -11 22 -10 17 4 -4 9 -3 16 2 16 5
0 12 -11 15 -25 4 -14 11 -23 17 -20 7 5 6 12 -2 21 -17 21 9 19 33 -3 17 -15
18 -15 18 10 0 15 -4 27 -10 27 -5 0 -10 -5 -10 -10 0 -6 -11 -3 -24 5 -19 13
-29 14 -45 6 -11 -6 -30 -11 -43 -11 -21 1 -22 2 -5 14 24 19 21 27 -8 20 -29
-7 -31 2 -9 34 23 33 13 35 -29 6 -40 -27 -45 -21 -26 35 14 38 6 52 -12 20z"/>
<path d="M4073 2310 c7 -18 17 -28 24 -26 13 5 57 -45 59 -67 0 -7 2 -18 2
-24 1 -7 11 -13 22 -13 11 0 23 -7 26 -15 7 -16 24 -21 24 -6 0 6 -13 18 -29
27 -17 10 -32 28 -36 41 -6 24 -81 113 -95 113 -5 0 -3 -14 3 -30z"/>
<path d="M6964 2294 c-25 -25 -43 -48 -40 -52 4 -3 20 10 36 29 28 32 30 33
26 9 -14 -76 -15 -90 -6 -90 5 0 12 5 15 10 3 6 15 10 26 10 10 0 19 4 19 9 0
4 -12 7 -27 5 -26 -4 -26 -3 6 11 18 9 31 18 28 21 -3 3 -14 1 -25 -5 -28 -15
-32 -14 -32 8 0 11 12 33 26 50 42 50 1 39 -52 -15z"/>
<path d="M7966 2331 c-3 -4 -10 -21 -16 -36 -9 -25 -9 -26 5 -15 13 11 15 6
15 -44 0 -31 4 -56 9 -56 5 0 19 14 31 31 12 16 25 28 28 25 3 -4 14 1 24 11
26 23 22 3 -7 -37 -31 -42 -32 -56 -3 -36 30 22 55 22 38 1 -19 -23 -6 -28 29
-11 19 10 32 12 36 6 3 -6 17 -10 31 -10 13 0 24 -4 24 -10 0 -5 5 -10 10 -10
21 0 9 29 -17 39 l-28 11 29 -6 c17 -3 43 -15 59 -26 l29 -21 -4 53 c-2 32 -8
55 -16 58 -10 3 -10 -2 0 -22 17 -38 0 -50 -44 -31 -32 13 -41 13 -72 0 -47
-20 -53 -19 -31 5 22 25 4 27 -37 6 -35 -19 -35 -15 3 40 17 25 29 48 26 50
-3 3 -21 -9 -40 -26 -34 -29 -36 -30 -39 -9 l-3 21 -29 -23 -28 -22 3 51 c4
48 -2 64 -15 43z m44 -106 c-7 -9 -15 -13 -18 -10 -3 2 1 11 8 20 7 9 15 13
18 10 3 -2 -1 -11 -8 -20z"/>
<path d="M9050 2325 c-17 -10 -20 -14 -9 -15 9 0 22 7 29 15 15 18 12 18 -20
0z"/>
<path d="M9964 2300 c-12 -25 -25 -54 -29 -65 -8 -19 -9 -19 -12 3 -6 32 -18
27 -37 -13 -10 -20 -21 -33 -27 -30 -10 7 -12 -6 -3 -29 11 -28 24 -17 30 24
7 46 19 52 28 15 9 -35 21 -24 35 29 12 49 34 74 31 35 -5 -56 0 -91 13 -86 6
2 11 14 10 26 -2 18 1 21 22 17 21 -4 25 -1 25 20 0 27 -12 31 -30 9 -21 -26
-29 -17 -32 38 l-3 52 -21 -45z"/>
<path d="M11030 2318 c-19 -11 -48 -32 -64 -46 l-29 -27 7 44 c6 40 5 43 -9
31 -9 -7 -21 -23 -27 -34 -10 -19 -10 -20 5 -7 15 12 17 11 17 -12 0 -28 -16
-45 -23 -25 -2 7 -6 -8 -8 -35 -4 -50 5 -56 30 -17 10 14 11 21 4 16 -41 -25
26 45 79 82 18 13 19 13 3 -24 -18 -44 -23 -50 -31 -41 -4 4 -1 15 7 24 13 16
12 17 -3 5 -9 -7 -16 -21 -16 -30 1 -9 -2 -32 -6 -49 -9 -39 2 -42 27 -8 17
24 17 24 0 18 -16 -6 -16 -5 -4 10 7 9 17 15 21 12 5 -3 11 -1 15 5 12 20 27
10 21 -15 -6 -23 -4 -24 18 -15 19 7 26 5 30 -7 3 -8 12 -13 20 -10 7 3 19 0
25 -6 8 -8 11 -7 11 6 0 20 16 23 23 5 2 -7 8 -1 12 15 9 33 20 35 29 5 6 -19
10 -14 30 37 17 45 25 55 28 40 4 -12 6 -6 7 17 2 59 -15 52 -33 -14 -16 -57
-18 -60 -35 -44 -24 22 -31 20 -31 -10 0 -20 -4 -24 -19 -19 -11 3 -22 1 -26
-5 -3 -5 -14 -10 -23 -10 -13 0 -13 2 4 15 18 14 16 14 -20 9 -38 -6 -38 -5
-21 12 22 23 6 30 -35 15 -17 -5 -30 -7 -30 -3 0 4 18 31 40 60 42 55 37 63
-20 30z"/>
<path d="M11987 2308 c-21 -45 -22 -60 -2 -34 14 18 15 15 15 -40 l0 -59 20
25 c11 14 20 32 21 40 0 10 2 11 6 2 2 -6 9 -10 14 -6 5 3 9 0 9 -7 0 -7 7 -4
15 7 9 12 14 14 15 6 0 -7 11 0 24 15 32 37 12 43 -25 7 -24 -23 -29 -25 -29
-10 0 25 -32 16 -47 -14 -11 -22 -12 -18 -15 40 l-3 65 -18 -37z"/>
<path d="M13970 2308 c-11 -18 -20 -37 -20 -41 0 -5 -10 -22 -21 -39 -16 -21
-18 -33 -11 -40 8 -8 14 -3 22 18 32 87 42 100 53 72 3 -7 6 4 6 25 1 20 -1
37 -4 37 -3 0 -14 -15 -25 -32z"/>
<path d="M15809 2335 c-8 -7 14 -95 24 -95 5 0 5 9 2 20 -9 29 2 25 19 -7 8
-16 15 -21 16 -13 0 18 -54 102 -61 95z"/>
<path d="M15972 2327 c-6 -7 -8 -37 -5 -75 l6 -64 24 29 c16 18 23 21 19 10
-4 -11 -2 -16 5 -12 6 4 8 13 5 20 -2 7 1 18 7 24 8 8 8 11 0 11 -6 0 -21 -12
-33 -27 l-21 -28 5 63 c6 65 5 70 -12 49z"/>
<path d="M18053 2326 c15 -40 27 -98 22 -106 -10 -16 -23 -11 -30 10 -8 26
-22 26 -30 0 -5 -17 -13 -13 -61 38 -51 52 -55 54 -49 28 23 -108 19 -109 -64
-24 -34 35 -61 57 -61 49 0 -7 15 -27 33 -45 19 -17 37 -39 40 -49 4 -9 19
-22 34 -28 15 -6 31 -16 35 -22 4 -7 8 12 8 41 0 28 4 52 10 52 13 0 57 -69
66 -103 4 -20 10 -25 17 -18 7 7 6 15 -2 25 -18 21 -4 61 15 46 7 -7 13 -15
12 -18 -5 -39 17 -42 27 -4 l7 27 10 -28 10 -27 18 22 17 22 7 -22 c8 -25 36
-30 36 -6 0 8 -4 13 -9 9 -11 -6 -25 12 -26 37 -1 9 -19 37 -41 62 -39 45 -61
58 -51 32z m73 -78 c7 -23 -9 -44 -25 -34 -6 4 -11 20 -11 36 0 22 4 28 15 24
8 -3 17 -15 21 -26z"/>
<path d="M20729 2323 c-13 -16 -12 -17 4 -4 16 13 21 21 13 21 -2 0 -10 -8
-17 -17z"/>
<path d="M3438 2292 c-20 -22 -42 -50 -48 -62 -9 -17 -14 -19 -20 -10 -12 19
-23 -26 -12 -47 8 -14 14 -8 36 35 15 29 28 52 31 52 2 0 1 -17 -2 -37 l-6
-38 27 30 27 30 -6 -45 -6 -45 30 35 c30 35 30 35 31 9 0 -35 9 -41 34 -24 29
21 45 19 39 -5 -5 -17 -2 -18 24 -8 24 9 36 8 63 -5 41 -21 40 -21 40 5 0 17
3 19 12 10 19 -19 28 -14 28 13 0 19 4 23 18 18 15 -6 15 -4 -2 15 -26 30 -33
28 -28 -9 4 -29 3 -30 -17 -20 -18 10 -21 9 -21 -8 0 -14 -5 -18 -20 -14 -11
3 -20 12 -20 21 0 12 -3 13 -12 4 -7 -7 -21 -12 -32 -12 -16 0 -17 3 -8 12 20
20 13 27 -19 18 -18 -5 -35 -7 -40 -5 -4 3 -9 -1 -12 -7 -2 -7 -7 -10 -11 -6
-9 8 21 68 35 68 6 0 6 -7 -1 -20 -6 -11 -9 -20 -6 -20 6 0 47 72 43 76 -2 2
-20 -10 -40 -27 -35 -28 -37 -29 -37 -9 0 19 -1 20 -23 5 -13 -8 -27 -12 -30
-9 -4 4 -13 2 -21 -5 -11 -9 -15 -8 -19 3 -3 8 1 20 9 26 11 10 14 10 15 -1 0
-8 5 -3 10 10 17 43 4 44 -33 3z m65 -66 c-10 -13 -20 -20 -21 -15 -5 12 17
39 30 39 5 0 1 -11 -9 -24z"/>
<path d="M5241 2290 c-7 -25 -16 -56 -20 -70 l-8 -25 -12 23 c-17 31 -31 27
-31 -9 0 -28 -2 -30 -16 -18 -10 8 -18 9 -22 3 -4 -6 -15 -13 -25 -17 -15 -6
-17 -3 -12 16 6 18 5 20 -6 10 -14 -14 -49 -18 -49 -5 0 4 5 13 12 20 20 20 1
25 -32 9 -30 -16 -31 -15 -25 6 5 20 4 19 -9 -3 -18 -29 -21 -9 -5 23 9 17 9
19 -1 11 -12 -12 -41 -87 -35 -93 2 -2 16 6 32 16 52 36 53 36 46 2 -6 -29 -5
-31 15 -20 27 14 32 14 32 -3 0 -21 21 -31 30 -16 4 7 15 10 24 7 11 -4 16 -1
16 10 0 13 3 14 12 5 19 -19 28 -14 28 13 0 31 14 32 27 3 9 -21 12 -17 28 37
l19 60 7 -35 6 -35 1 35 c0 19 -3 46 -7 60 -7 23 -9 21 -20 -20z"/>
<path d="M9259 2275 c-7 -30 -14 -55 -17 -55 -3 0 -14 7 -24 17 -17 15 -18 14
-18 -17 0 -31 -1 -32 -18 -17 -21 19 -42 23 -24 5 20 -20 13 -29 -11 -14 -15
10 -32 13 -50 8 -31 -8 -36 -28 -6 -25 11 2 22 -4 25 -12 8 -19 24 -19 24 0 0
8 -4 15 -10 15 -5 0 -10 5 -10 12 0 6 7 4 18 -6 26 -23 65 -15 73 15 5 21 7
22 14 7 12 -30 24 -20 37 29 l12 48 13 -30 14 -30 -5 40 c-3 22 -6 46 -6 53 0
6 -4 12 -9 12 -5 0 -15 -25 -22 -55z"/>
<path d="M10122 2320 c2 -8 -6 -23 -19 -35 -13 -11 -25 -27 -26 -35 -1 -8 -10
-26 -20 -40 -26 -37 -22 -58 6 -32 31 29 39 28 31 -5 l-7 -27 27 18 c15 9 34
15 42 12 18 -7 30 -4 26 8 -5 14 51 -3 81 -25 33 -24 47 -17 28 13 -7 11 -8
17 -2 13 6 -3 11 -1 11 4 0 13 -6 14 -29 2 -12 -7 -26 -5 -45 5 -33 16 -66 19
-66 4 0 -5 -12 -10 -27 -9 -27 0 -28 0 -5 10 13 5 21 13 17 19 -4 6 -15 5 -30
-2 -35 -16 -41 -4 -15 31 26 37 33 38 48 9 10 -21 11 -20 5 7 l-6 30 34 -30
c29 -27 31 -27 18 -6 -19 30 -84 82 -77 61z"/>
<path d="M13366 2322 c-3 -5 -8 -29 -11 -53 -8 -53 9 -33 19 24 7 35 3 47 -8
29z"/>
<path d="M13813 2290 c9 -30 13 -36 18 -23 5 15 8 13 22 -12 10 -18 16 -23 17
-14 0 19 -40 81 -56 86 -8 3 -9 -7 -1 -37z"/>
<path d="M16737 2311 c-4 -17 -3 -21 5 -13 5 5 8 16 6 23 -3 8 -7 3 -11 -10z"/>
<path d="M16896 2305 c-9 -13 -16 -27 -16 -31 0 -10 30 17 41 38 15 27 -6 22
-25 -7z"/>
<path d="M280 2315 c0 -3 9 -23 20 -45 23 -44 27 -75 7 -49 -15 19 -67 54 -67
45 0 -4 7 -21 16 -37 18 -36 14 -45 -16 -29 -12 6 -24 9 -27 6 -3 -3 6 -10 20
-15 14 -5 28 -15 32 -20 12 -20 26 -11 20 12 -17 60 -15 61 25 17 l42 -45 -7
32 c-10 50 -65 158 -65 128z"/>
<path d="M3928 2270 c19 -59 11 -72 -23 -40 -28 27 -42 22 -26 -9 6 -11 17
-18 25 -15 8 3 22 -5 31 -18 16 -22 17 -21 12 37 l-4 59 38 -44 c22 -25 39
-40 39 -34 0 7 7 15 16 18 10 4 18 -3 26 -24 10 -31 28 -41 28 -16 0 8 3 23 6
33 5 17 5 17 -6 -1 -11 -17 -13 -16 -28 14 -15 32 -16 32 -31 11 -16 -21 -17
-20 -59 29 -24 28 -47 50 -52 50 -4 0 -1 -22 8 -50z"/>
<path d="M7206 2264 c-16 -52 -19 -55 -35 -40 -24 22 -31 20 -31 -9 0 -25 -14
-33 -25 -15 -10 17 -25 11 -18 -7 5 -12 3 -14 -8 -7 -23 14 -59 12 -59 -3 0
-8 4 -11 10 -8 5 3 20 -1 32 -9 28 -20 38 -20 38 -1 0 8 5 15 10 15 6 0 10 -4
10 -10 0 -5 5 -10 10 -10 6 0 10 11 10 25 0 31 14 32 27 3 9 -21 11 -18 28 31
12 38 20 49 26 40 6 -9 9 -2 9 24 0 53 -14 46 -34 -19z"/>
<path d="M15301 2297 c-6 -16 -11 -34 -11 -40 0 -7 -4 -19 -10 -27 -7 -12 -12
-11 -31 5 l-22 20 5 -32 c5 -35 -1 -40 -20 -21 -10 10 -14 8 -19 -10 -5 -22
-7 -22 -24 -6 -11 10 -19 12 -19 6 0 -7 -9 -12 -20 -12 -11 0 -20 -4 -20 -9 0
-4 11 -6 25 -4 14 3 31 -1 40 -11 22 -22 35 -20 35 4 0 23 10 26 29 8 11 -11
13 -7 9 19 -4 30 -3 32 12 18 24 -22 28 -19 35 25 9 54 23 51 27 -7 4 -55 24
-68 39 -24 13 37 32 42 23 6 -3 -14 -3 -32 0 -41 5 -12 13 -9 46 18 50 41 52
54 4 26 l-36 -21 6 44 7 44 -36 -37 c-19 -21 -37 -38 -40 -38 -3 0 -5 17 -6
38 -1 20 -4 48 -9 62 l-7 25 -12 -28z"/>
<path d="M19256 2310 c-2 -8 -10 -33 -17 -55 -6 -22 -16 -43 -22 -46 -6 -4 -6
-13 1 -25 12 -21 9 -25 33 56 l13 45 7 -30 7 -30 1 35 c1 40 -15 75 -23 50z"/>
<path d="M21240 2269 c-15 -52 -24 -66 -35 -49 -7 12 -36 14 -34 3 4 -26 -2
-33 -20 -23 -16 8 -20 6 -23 -7 -3 -15 -4 -15 -20 1 -12 11 -26 15 -45 10
l-28 -6 23 16 c30 23 28 33 -6 28 -24 -3 -29 -9 -29 -32 0 -27 3 -28 30 -23
21 4 28 3 23 -5 -5 -8 1 -12 18 -12 14 0 28 -4 31 -10 10 -17 28 -11 21 6 -6
14 -4 15 10 4 13 -11 17 -11 24 0 4 7 6 19 3 27 -3 7 0 13 6 13 7 0 14 -7 17
-15 11 -27 23 -16 35 30 14 56 29 68 29 23 0 -40 10 -78 19 -78 4 0 14 11 21
25 18 34 33 31 25 -5 -8 -35 0 -37 35 -10 33 26 38 25 32 -5 l-4 -25 36 15
c43 18 47 18 44 3 -2 -8 6 -12 19 -10 12 2 24 -2 28 -8 9 -15 25 -12 25 5 0
13 4 14 20 5 11 -6 20 -7 20 -2 0 5 -12 15 -27 23 -20 11 -27 11 -30 2 -3 -7
-14 -13 -25 -13 -14 0 -18 5 -14 15 7 18 -4 19 -39 3 -31 -14 -40 -6 -25 21
13 26 9 26 -40 1 -42 -21 -46 -18 -30 24 13 34 3 33 -36 -5 l-33 -31 -12 61
c-6 33 -15 61 -18 61 -4 0 -14 -23 -21 -51z"/>
<path d="M5584 2290 c3 -14 6 -44 6 -67 0 -24 3 -43 8 -43 4 0 6 19 4 43 l-3
42 21 -25 21 -25 -15 30 c-8 17 -22 39 -31 50 -16 20 -16 20 -11 -5z"/>
<path d="M7550 2306 c0 -4 5 -17 12 -29 7 -12 11 -33 10 -47 l-1 -25 7 23 c7
23 8 22 31 -18 l24 -43 12 29 c14 34 10 45 -8 20 -12 -16 -15 -14 -31 23 -17
37 -56 84 -56 67z"/>
<path d="M8902 2287 c-25 -26 -30 -46 -7 -27 11 9 10 2 -5 -31 -29 -65 -25
-74 17 -42 l36 28 -7 -38 -7 -38 25 16 c13 9 27 23 30 32 5 13 4 14 -9 3 -9
-7 -17 -11 -20 -9 -7 8 11 30 26 32 8 2 20 6 27 11 20 12 28 -2 14 -24 -15
-24 -10 -25 28 -5 31 16 42 32 15 21 -23 -8 -18 10 8 27 36 26 -11 20 -93 -10
-8 -3 -24 -8 -35 -10 -11 -2 -24 -8 -29 -13 -19 -19 -26 -10 -13 18 15 28 30
82 24 82 -2 0 -13 -10 -25 -23z"/>
<path d="M8985 2301 c-11 -5 -29 -19 -40 -32 -11 -13 -13 -18 -5 -11 20 17 30
15 23 -5 -4 -11 -2 -14 3 -8 60 66 63 73 19 56z"/>
<path d="M11597 2258 c4 -39 2 -58 -5 -58 -6 0 -14 5 -17 10 -10 16 -28 12
-21 -5 3 -9 0 -15 -9 -15 -8 0 -12 -6 -9 -14 4 -11 0 -13 -15 -9 -12 3 -21 12
-21 20 0 15 -12 15 -54 -2 -16 -7 -17 -5 -11 25 l7 33 -36 -21 c-50 -29 -56
-28 -45 10 12 44 6 45 -28 4 -29 -37 -47 -47 -37 -21 4 8 1 15 -5 15 -6 0 -11
-13 -11 -30 0 -16 4 -30 9 -30 6 0 18 14 28 30 23 40 30 38 25 -7 l-5 -37 36
27 c20 15 37 27 40 27 2 0 2 -13 -1 -30 l-4 -30 33 17 c23 12 34 13 37 5 2 -7
12 -12 22 -12 10 0 22 -4 25 -10 9 -15 25 -12 25 5 0 17 16 20 25 5 4 -6 11
-7 17 -4 7 5 4 12 -8 21 -19 14 -19 14 1 11 17 -2 21 4 25 36 l5 39 24 -48
c14 -27 26 -44 29 -37 2 7 -3 21 -11 30 -8 9 -17 26 -21 37 -3 11 -15 31 -26
45 l-19 25 6 -57z"/>
<path d="M20200 2302 c0 -5 3 -12 8 -16 4 -4 12 -22 19 -39 10 -28 12 -29 12
-8 1 20 3 21 16 11 26 -21 18 8 -10 35 -24 25 -45 32 -45 17z"/>
<path d="M838 2273 c-25 -17 -42 -39 -52 -69 -17 -50 -15 -52 23 -25 38 27
139 62 143 49 2 -6 12 2 22 17 18 27 18 28 0 20 -11 -4 -41 -16 -69 -26 -27
-11 -58 -24 -67 -29 -10 -6 -22 -10 -28 -10 -13 0 -1 32 18 48 19 14 36 16 27
2 -14 -22 3 -8 23 20 28 37 11 38 -40 3z"/>
<path d="M1891 2263 l-19 -38 -11 25 -12 25 6 -25 c2 -14 5 -36 5 -50 1 -22 4
-20 23 16 12 23 28 51 35 63 7 12 9 21 3 21 -6 0 -19 -17 -30 -37z"/>
<path d="M2958 2283 c-24 -27 -60 -103 -49 -103 5 0 13 5 16 10 14 23 27 9 21
-22 l-6 -33 27 30 c15 17 41 43 58 58 l30 28 -43 -5 c-24 -2 -52 -12 -63 -22
-27 -24 -24 -4 6 40 26 39 28 47 3 19z m42 -61 c0 -5 -9 -17 -20 -27 -19 -17
-19 -17 -7 9 12 25 27 35 27 18z"/>
<path d="M4316 2284 c-9 -23 -7 -34 4 -34 5 0 7 6 4 14 -3 7 2 16 10 19 9 4
17 -1 21 -14 10 -30 35 -24 34 9 0 22 -2 23 -8 9 -6 -17 -8 -17 -20 -3 -17 20
-37 20 -45 0z"/>
<path d="M8320 2292 c0 -5 9 -17 20 -27 16 -14 20 -15 20 -4 0 16 -19 39 -32
39 -4 0 -8 -4 -8 -8z"/>
<path d="M9580 2246 c0 -47 -3 -57 -12 -48 -21 21 -32 13 -12 -9 19 -22 19
-22 -3 -10 -26 13 -33 14 -33 3 0 -7 42 -32 54 -32 7 0 26 82 21 90 -3 6 -2
10 3 10 5 0 17 -18 27 -40 10 -22 21 -40 24 -40 4 0 12 14 18 30 12 32 0 42
-16 13 -8 -15 -11 -12 -24 17 -8 19 -22 44 -31 55 -14 19 -15 16 -16 -39z"/>
<path d="M12210 2287 c0 -8 7 -20 15 -27 8 -7 15 -9 15 -5 0 5 9 0 20 -10 11
-10 20 -15 20 -10 0 4 7 2 15 -5 13 -10 15 -9 15 9 0 25 30 29 31 4 0 -13 2
-14 6 -4 3 8 -5 22 -18 32 -30 23 -41 24 -37 3 5 -27 -17 -27 -51 1 -22 19
-31 23 -31 12z"/>
<path d="M16321 2268 c1 -27 3 -28 6 -9 4 18 7 21 13 10 5 -7 12 -10 16 -6 8
7 -14 37 -27 37 -5 0 -8 -15 -8 -32z"/>
<path d="M16771 2293 c0 -6 -4 -20 -7 -30 -5 -14 -4 -15 5 -7 7 7 11 20 8 30
-3 11 -5 14 -6 7z"/>
<path d="M18310 2283 c0 -15 2 -15 9 -4 7 11 10 10 14 -5 4 -16 5 -16 6 4 1
13 -5 22 -14 22 -8 0 -15 -8 -15 -17z"/>
<path d="M19598 2250 c5 -53 2 -56 -29 -40 -24 14 -26 -5 -1 -20 15 -9 14 -10
-5 -5 -16 5 -23 2 -23 -8 0 -10 -7 -13 -20 -10 -11 3 -20 12 -20 19 0 17 -2
17 -35 2 -31 -14 -40 -6 -25 21 14 28 -2 28 -48 -1 l-35 -22 6 37 c7 45 -5 47
-35 7 -20 -27 -48 -44 -33 -20 3 6 0 10 -8 10 -10 0 -12 -9 -9 -32 l5 -32 34
39 34 40 -7 -37 c-7 -43 3 -48 31 -18 26 28 43 26 37 -6 l-5 -26 33 17 c18 9
35 13 39 8 3 -4 21 -13 39 -20 26 -9 32 -9 32 3 0 16 16 19 25 4 11 -17 25
-11 25 11 0 11 3 18 8 15 4 -2 6 14 4 36 -5 49 8 44 33 -11 14 -31 21 -38 31
-30 9 8 16 4 25 -13 7 -14 14 -18 16 -11 3 9 10 10 24 3 16 -9 19 -7 19 10 0
11 -3 19 -7 19 -5 -1 -11 0 -15 1 -13 4 -27 7 -38 9 -5 0 -10 8 -10 16 0 8 -4
15 -10 15 -5 0 -10 -8 -10 -17 0 -10 -15 5 -35 35 -20 28 -37 52 -39 52 -2 0
-1 -22 2 -50z"/>
<path d="M20102 2272 c-18 -15 -32 -31 -32 -36 0 -5 7 -3 15 4 17 14 18 6 5
-25 -6 -14 -9 -15 -10 -5 0 12 -4 11 -15 -4 -27 -36 -18 -47 21 -24 l36 21 -7
-22 c-6 -21 -4 -22 17 -16 33 10 46 8 90 -16 23 -12 28 -11 28 1 0 6 -11 15
-25 20 -14 5 -25 12 -25 15 0 9 54 -7 71 -21 21 -19 29 -17 29 6 0 14 -7 20
-24 20 -13 0 -27 6 -29 13 -4 9 -6 9 -6 -1 -1 -10 -5 -10 -21 0 -15 10 -22 10
-32 0 -6 -6 -21 -12 -31 -12 -17 0 -18 2 -6 17 13 15 11 16 -18 10 -39 -8 -40
-3 -12 42 11 18 19 35 17 36 -2 2 -18 -9 -36 -23z"/>
<path d="M2100 2280 c0 -5 12 -22 26 -37 15 -15 21 -20 14 -10 -14 20 -7 22
22 6 34 -18 11 7 -27 30 -19 11 -35 16 -35 11z"/>
<path d="M2701 2274 c0 -11 3 -14 6 -6 3 7 2 16 -1 19 -3 4 -6 -2 -5 -13z"/>
<path d="M8210 2260 c12 -16 23 -30 25 -30 7 0 -2 29 -14 44 -24 29 -33 17
-11 -14z"/>
<path d="M10258 2284 c-3 -5 -2 -20 3 -34 4 -14 7 -19 8 -11 1 11 7 9 24 -7
30 -28 37 -28 37 2 0 28 -20 47 -20 19 -1 -15 -5 -12 -24 11 -13 15 -26 24
-28 20z"/>
<path d="M13605 2234 c4 -59 15 -75 38 -55 9 7 16 4 26 -11 10 -17 15 -18 22
-7 6 11 11 11 21 1 18 -18 31 -15 25 8 -5 21 7 28 18 10 11 -18 25 -10 25 15
0 14 5 25 12 25 6 0 3 9 -7 20 -23 26 -39 26 -25 1 5 -11 10 -27 10 -36 0 -15
-2 -15 -22 -1 -30 21 -37 20 -31 -4 4 -16 2 -19 -12 -14 -10 4 -21 1 -26 -7
-6 -10 -9 -3 -9 21 l-1 35 -18 -22 c-11 -13 -21 -23 -23 -23 -1 0 -4 19 -5 41
0 23 -6 46 -11 51 -7 7 -9 -8 -7 -48z"/>
<path d="M14078 2253 c-19 -21 -38 -48 -41 -60 -6 -26 0 -28 27 -8 24 18 36
11 29 -16 -6 -21 -6 -21 22 -3 25 16 26 19 9 25 -16 6 -15 8 8 14 16 4 25 11
22 16 -3 5 -14 5 -25 -1 -11 -6 -24 -8 -29 -5 -5 3 -11 1 -15 -5 -3 -5 -13
-10 -20 -10 -22 0 -6 30 21 40 22 9 53 50 36 50 -4 0 -24 -17 -44 -37z"/>
<path d="M14240 2286 c0 -1 5 -18 12 -36 11 -33 11 -33 20 -11 5 15 4 29 -3
37 -10 13 -29 19 -29 10z"/>
<path d="M15626 2275 c9 -24 16 -95 8 -77 -3 6 -13 12 -22 12 -14 -1 -12 -5 7
-20 28 -24 41 -18 42 18 0 27 0 27 11 5 6 -13 15 -23 20 -23 12 0 -5 28 -43
70 -19 22 -28 27 -23 15z"/>
<path d="M16068 2261 l-33 -29 26 1 c19 2 30 10 37 30 13 34 10 34 -30 -2z"/>
<path d="M16502 2232 c-7 -35 -17 -60 -22 -57 -12 8 -13 -15 -1 -34 7 -11 10
-10 14 5 23 89 28 114 25 130 -2 10 -9 -10 -16 -44z"/>
<path d="M17216 2275 c4 -11 8 -39 8 -62 0 -53 14 -57 18 -5 4 36 4 36 15 12
11 -22 12 -23 12 -4 1 11 -13 33 -31 50 -24 22 -29 24 -22 9z"/>
<path d="M20290 2270 c-8 -18 -8 -33 -1 -50 9 -24 10 -23 11 10 0 26 3 31 10
20 15 -24 19 -7 5 20 l-13 25 -12 -25z"/>
<path d="M1150 2265 c0 -12 -4 -25 -10 -31 -6 -6 -6 -15 0 -24 8 -12 10 -11
10 7 0 32 17 37 24 8 4 -14 11 -23 16 -20 13 8 13 46 1 43 -5 -2 -17 6 -25 17
-15 20 -15 20 -16 0z"/>
<path d="M1927 2262 c-10 -10 -17 -29 -17 -42 0 -28 9 -22 15 10 2 12 9 28 16
36 17 21 5 17 -14 -4z"/>
<path d="M5763 2267 c23 -62 16 -87 -13 -52 -19 23 -31 18 -24 -11 6 -24 5
-25 -16 -14 -26 14 -31 11 -23 -18 6 -23 23 -31 23 -11 0 8 4 8 14 0 17 -14
31 2 22 24 -7 18 5 20 22 3 15 -15 18 -11 25 28 5 25 1 36 -15 50 -21 18 -21
18 -15 1z"/>
<path d="M5841 2275 c1 -19 18 -51 18 -35 0 8 -4 22 -9 30 -5 8 -9 11 -9 5z"/>
<path d="M5951 2247 c-13 -29 -14 -30 -18 -9 -2 12 -7 22 -10 22 -12 0 -32
-36 -33 -57 0 -28 -7 -29 -34 -5 -17 15 -17 13 3 -16 23 -33 41 -35 41 -2 0
28 11 51 21 44 5 -3 9 -15 9 -27 0 -29 15 -11 30 36 15 48 9 57 -9 14z"/>
<path d="M6463 2264 c-15 -15 -17 -34 -4 -34 8 0 24 41 18 46 -1 1 -8 -4 -14
-12z"/>
<path d="M12501 2271 c-8 -5 -10 -14 -6 -21 6 -9 10 -8 17 4 12 21 7 28 -11
17z"/>
<path d="M13263 2266 c3 -8 8 -32 12 -53 4 -30 3 -33 -4 -15 -11 24 -34 31
-25 8 4 -11 0 -13 -18 -9 -21 6 -22 5 -9 -10 8 -10 9 -17 3 -17 -6 0 -14 5
-17 10 -3 6 -18 10 -32 10 -23 0 -24 2 -12 17 13 15 11 16 -21 10 l-35 -7 30
26 c19 16 23 23 12 20 -10 -3 -23 -6 -28 -6 -11 0 -42 -60 -34 -68 3 -3 15 -1
25 6 27 17 32 15 25 -8 -6 -18 -3 -20 19 -14 17 4 31 1 41 -10 22 -21 36 -20
42 4 6 22 18 26 28 10 15 -24 26 -6 24 38 -3 55 -7 72 -21 72 -6 0 -8 -6 -5
-14z"/>
<path d="M16960 2258 c-12 -22 -12 -22 6 -6 10 10 15 20 12 24 -4 3 -12 -5
-18 -18z"/>
<path d="M18197 2263 c11 -32 16 -36 25 -19 11 19 3 36 -17 36 -9 0 -12 -6 -8
-17z"/>
<path d="M18350 2275 c0 -1 9 -12 20 -25 13 -15 17 -27 11 -34 -6 -7 -4 -18 4
-29 20 -27 25 -6 12 44 -8 30 -18 44 -29 45 -10 1 -18 1 -18 -1z"/>
<path d="M21591 2253 c1 -15 5 -39 9 -53 7 -20 8 -16 9 22 1 26 -3 50 -9 53
-6 4 -10 -6 -9 -22z"/>
<path d="M4106 2257 c3 -10 9 -15 12 -12 3 3 0 11 -7 18 -10 9 -11 8 -5 -6z"/>
<path d="M5323 2234 c-15 -20 -29 -31 -31 -25 -2 6 -8 9 -13 5 -12 -7 -12 -54
1 -54 6 0 10 3 10 8 0 4 12 21 26 37 l25 30 -5 -38 -5 -38 33 21 c42 25 44 25
38 -5 -4 -25 -4 -25 29 -11 27 11 35 12 44 1 12 -15 75 -28 75 -16 0 5 -14 12
-31 16 -22 5 -29 11 -25 22 5 11 2 13 -10 9 -9 -3 -27 -9 -42 -13 -21 -5 -24
-3 -19 11 4 9 10 24 14 33 5 13 -4 11 -42 -11 l-48 -29 7 42 c3 22 4 41 2 41
-3 0 -17 -16 -33 -36z"/>
<path d="M6873 2250 c-30 -18 -33 -18 -34 -2 0 9 -6 -5 -14 -33 -7 -27 -12
-51 -11 -52 2 -2 13 9 27 24 13 14 18 23 12 19 -7 -4 -13 -3 -13 3 0 9 31 31
44 31 2 0 -1 -12 -9 -27 -21 -45 -27 -73 -16 -73 6 0 11 3 11 8 0 4 14 16 30
27 16 11 30 23 30 28 0 4 -11 0 -25 -9 -30 -20 -31 -15 -5 36 23 45 19 48 -27
20z"/>
<path d="M7291 2233 c-17 -21 -31 -32 -31 -25 0 6 -7 12 -16 12 -11 0 -14 -5
-10 -16 3 -9 6 -23 6 -32 1 -12 12 -4 35 23 l34 40 -6 -37 c-6 -40 5 -49 27
-22 8 8 22 19 31 25 17 8 18 6 13 -21 -7 -35 -3 -36 32 -13 16 10 28 13 32 6
4 -5 16 -12 27 -15 11 -3 28 -9 38 -13 12 -5 17 -2 17 10 0 15 3 15 15 5 21
-17 31 -5 14 16 -12 15 -11 16 9 10 32 -10 27 1 -9 19 -28 15 -30 15 -27 -2 2
-10 -2 -17 -9 -15 -7 1 -13 -4 -13 -12 0 -9 -7 -12 -21 -9 -13 4 -18 11 -14
20 5 15 -15 14 -59 -3 -18 -7 -23 21 -6 31 6 4 8 10 5 16 -3 5 -24 -3 -47 -17
l-41 -26 7 41 c3 23 4 41 2 41 -3 0 -18 -17 -35 -37z"/>
<path d="M7747 2250 c3 -11 12 -20 19 -20 8 0 18 -10 23 -22 5 -14 10 -17 15
-10 4 7 2 20 -3 29 -6 10 -11 14 -11 8 0 -5 -7 1 -16 13 -19 27 -34 29 -27 2z"/>
<path d="M8491 2260 c0 -8 4 -22 9 -30 12 -18 12 -2 0 25 -6 13 -9 15 -9 5z"/>
<path d="M9332 2239 c-23 -21 -32 -37 -29 -52 3 -21 4 -21 14 3 6 14 18 32 27
39 14 11 16 11 16 -2 0 -9 -4 -19 -10 -22 -5 -3 -10 -15 -10 -27 0 -18 3 -17
36 12 39 33 52 34 35 2 -18 -34 -13 -42 17 -26 35 18 43 18 35 -2 -5 -13 -2
-15 16 -9 13 4 28 2 37 -6 8 -6 18 -9 21 -5 10 9 -17 26 -41 26 -12 0 -16 5
-12 15 5 13 0 15 -30 9 l-36 -7 16 32 c20 37 18 37 -30 9 l-37 -22 5 32 c6 39
2 39 -40 1z"/>
<path d="M9761 2246 c7 -14 17 -22 24 -19 7 2 16 -5 20 -16 3 -12 11 -21 17
-21 5 0 7 7 4 16 -3 9 -6 20 -6 25 0 5 -7 9 -15 9 -9 0 -18 7 -21 15 -4 8 -12
15 -20 15 -11 0 -11 -5 -3 -24z"/>
<path d="M10350 2250 c-1 -14 -3 -33 -5 -44 -4 -22 4 -46 16 -46 11 0 11 68
-1 95 -8 18 -9 18 -10 -5z"/>
<path d="M11776 2255 c4 -9 15 -20 25 -26 11 -5 19 -16 19 -24 0 -8 5 -15 10
-15 6 0 10 17 9 38 0 25 -3 31 -8 19 -6 -17 -8 -17 -25 2 -22 25 -38 27 -30 6z"/>
<path d="M14015 2257 c-27 -16 -35 -28 -35 -56 0 -20 2 -22 15 -11 8 7 14 20
13 29 -2 10 4 16 15 16 10 0 23 8 28 18 12 20 -5 22 -36 4z"/>
<path d="M20493 2235 c0 -22 2 -30 4 -17 2 12 2 30 0 40 -3 9 -5 -1 -4 -23z"/>
<path d="M1766 2245 c4 -8 10 -15 14 -15 5 0 12 -9 15 -20 9 -29 25 -14 24 23
-1 30 -1 30 -8 7 l-7 -25 -12 23 c-14 24 -35 31 -26 7z"/>
<path d="M4700 2225 c0 -22 4 -34 10 -30 6 3 10 17 10 30 0 13 -4 27 -10 30
-6 4 -10 -8 -10 -30z"/>
<path d="M5813 2244 c-7 -12 -8 -26 -3 -34 13 -21 22 -7 18 27 -3 27 -4 27
-15 7z"/>
<path d="M6486 2238 c-3 -13 -5 -32 -5 -43 1 -11 5 -2 10 19 10 42 6 62 -5 24z"/>
<path d="M7832 2240 c0 -14 2 -19 5 -12 2 6 2 18 0 25 -3 6 -5 1 -5 -13z"/>
<path d="M7883 2238 c-6 -13 -14 -31 -17 -42 -5 -15 -9 -16 -21 -6 -19 16 -19
1 1 -25 13 -17 16 -18 24 -5 5 8 10 25 10 37 0 33 18 38 26 7 l7 -27 13 24 c7
13 13 31 13 39 0 10 -2 11 -6 3 -7 -18 -23 -16 -23 2 0 22 -15 18 -27 -7z"/>
<path d="M9841 2244 c0 -11 3 -14 6 -6 3 7 2 16 -1 19 -3 4 -6 -2 -5 -13z"/>
<path d="M11912 2240 c-6 -11 -12 -29 -12 -41 0 -21 -1 -22 -20 -4 -25 23 -26
7 -1 -22 26 -31 31 -29 31 11 0 40 16 56 25 26 7 -23 20 -19 28 9 3 14 1 18
-9 14 -8 -3 -14 1 -14 11 0 22 -13 20 -28 -4z"/>
<path d="M13896 2253 c-11 -11 -7 -20 9 -20 8 0 15 4 15 8 0 11 -16 20 -24 12z"/>
<path d="M15886 2228 c-18 -36 -20 -58 -6 -58 6 0 10 10 10 23 0 12 4 28 9 35
6 10 10 8 14 -9 5 -19 8 -20 21 -9 9 7 15 22 15 34 -1 17 -2 17 -6 4 -5 -22
-23 -24 -23 -3 0 25 -18 17 -34 -17z"/>
<path d="M17085 2250 c-3 -5 -27 -10 -53 -10 -26 0 -56 -7 -66 -15 -27 -21
-36 -19 -37 8 0 16 -4 11 -15 -17 -8 -22 -12 -41 -10 -44 3 -2 20 7 38 21 18
13 40 24 48 24 8 0 30 3 48 7 33 8 41 -1 20 -22 -6 -6 -9 -15 -5 -19 4 -4 13
-1 19 5 16 16 28 15 28 -3 0 -9 6 -12 17 -8 10 4 14 2 10 -4 -4 -7 2 -11 16
-10 12 0 30 -3 40 -7 13 -6 17 -3 17 12 0 11 5 22 11 24 7 2 6 8 -4 16 -11 10
-17 9 -28 -5 -9 -11 -10 -14 -1 -9 6 4 12 2 12 -3 0 -15 -13 -14 -36 4 -10 8
-29 15 -41 15 -32 0 -37 16 -11 34 18 13 19 16 6 16 -9 0 -20 -4 -23 -10z"/>
<path d="M18280 2240 c7 -12 6 -20 -1 -22 -12 -4 -1 -38 12 -38 5 0 9 9 9 19
0 11 3 26 6 34 3 9 -3 16 -15 20 -17 4 -19 2 -11 -13z"/>
<path d="M18701 2248 c0 -7 4 -22 9 -33 8 -18 9 -17 9 7 1 15 -3 30 -9 33 -5
3 -10 0 -9 -7z"/>
<path d="M19861 2244 c0 -11 3 -14 6 -6 3 7 2 16 -1 19 -3 4 -6 -2 -5 -13z"/>
<path d="M20946 2244 c-3 -9 -6 -24 -6 -34 0 -18 2 -18 37 2 20 12 31 24 24
26 -6 2 -19 -2 -28 -10 -15 -11 -16 -10 -11 10 7 25 -7 30 -16 6z"/>
<path d="M13035 2235 c-20 -9 -30 -21 -31 -37 -1 -12 -5 -31 -9 -40 -12 -29
12 -21 34 11 25 34 27 49 6 31 -13 -11 -14 -10 -9 4 4 10 13 15 22 11 15 -6
42 11 42 26 0 12 -19 10 -55 -6z"/>
<path d="M15770 2240 c0 -6 13 -19 30 -28 16 -9 30 -21 30 -25 0 -5 5 -5 10
-2 6 4 -5 19 -26 36 -41 32 -44 34 -44 19z"/>
<path d="M16300 2240 c-1 -8 -1 -22 0 -29 1 -13 -1 -13 -14 -2 -9 8 -16 9 -16
3 0 -13 29 -36 36 -29 3 3 4 20 1 39 -2 18 -5 26 -7 18z"/>
<path d="M21622 2215 c-1 -25 2 -33 12 -29 8 3 17 1 21 -5 10 -17 22 -13 28
10 4 15 2 19 -8 15 -8 -3 -16 0 -19 7 -3 9 -5 8 -5 -1 -1 -7 -5 -11 -11 -7 -5
3 -7 12 -4 19 3 8 1 17 -4 20 -5 3 -9 -10 -10 -29z"/>
<path d="M2630 2215 c1 -26 2 -28 11 -12 8 14 8 22 0 30 -8 8 -11 3 -11 -18z"/>
<path d="M4300 2231 c0 -5 -7 -11 -17 -13 -14 -3 -14 -4 -1 -15 12 -11 17 -9
26 12 7 15 8 25 2 25 -6 0 -10 -4 -10 -9z"/>
<path d="M4341 2226 c-9 -10 -8 -16 4 -26 13 -11 15 -8 15 14 0 30 -3 32 -19
12z"/>
<path d="M4391 2226 c-12 -14 -5 -46 10 -46 5 0 9 14 9 30 0 34 -3 36 -19 16z"/>
<path d="M5658 2221 c-10 -12 -15 -28 -12 -36 6 -14 9 -13 21 5 8 11 13 27 11
36 -2 12 -6 11 -20 -5z"/>
<path d="M8333 2225 c1 -12 -3 -19 -10 -17 -17 3 -16 -8 2 -32 24 -32 40 -6
21 35 -9 19 -14 25 -13 14z"/>
<path d="M11676 2227 c-6 -12 -3 -24 8 -36 9 -10 16 -23 16 -29 0 -16 17 -15
24 1 5 10 7 10 12 0 10 -22 24 -14 24 14 0 21 3 24 12 15 18 -18 28 -14 28 11
0 17 -2 19 -10 7 -7 -12 -12 -12 -29 5 -24 21 -40 13 -21 -10 17 -21 8 -28
-23 -16 -15 6 -27 20 -29 33 -4 20 -5 21 -12 5z"/>
<path d="M12960 2208 c-26 -43 -25 -58 2 -31 12 12 22 31 23 43 2 27 -2 25
-25 -12z"/>
<path d="M13302 2219 c1 -13 8 -23 13 -21 15 3 12 35 -3 40 -9 3 -13 -3 -10
-19z"/>
<path d="M13395 2219 c-22 -18 -29 -20 -36 -8 -7 10 -9 8 -7 -10 4 -31 28 -40
35 -13 3 13 10 19 20 15 10 -4 11 -8 3 -13 -8 -5 -6 -11 5 -20 13 -11 15 -7
15 29 0 22 -2 41 -4 41 -2 0 -16 -10 -31 -21z"/>
<path d="M13806 2225 c-8 -23 -8 -35 3 -35 13 0 20 25 11 39 -5 10 -9 8 -14
-4z"/>
<path d="M17418 2229 c-10 -5 -18 -15 -18 -21 0 -9 3 -9 12 0 20 20 27 13 18
-18 -11 -37 -1 -38 30 -5 13 14 30 23 36 21 7 -3 15 2 18 10 8 20 -23 18 -46
-3 -17 -15 -18 -15 -18 5 0 24 -6 26 -32 11z"/>
<path d="M17724 2224 c3 -9 6 -18 6 -20 0 -3 4 -2 10 1 5 3 21 -6 34 -20 16
-18 25 -22 29 -13 3 10 10 8 26 -6 20 -18 21 -18 21 -1 0 15 3 16 12 7 17 -17
28 -15 28 4 0 8 -4 13 -9 9 -5 -3 -12 -1 -16 5 -11 18 -35 12 -28 -7 6 -16 4
-16 -15 1 -12 11 -25 17 -28 13 -3 -3 -18 5 -32 19 -31 28 -47 31 -38 8z"/>
<path d="M18333 2225 c-9 -10 -9 -17 2 -31 17 -24 26 -15 17 18 -6 21 -9 23
-19 13z"/>
<path d="M1080 2200 c38 -35 40 -36 40 -10 0 12 -5 17 -13 14 -8 -3 -20 2 -27
11 -7 8 -17 15 -22 15 -6 0 4 -13 22 -30z"/>
<path d="M7706 2205 c6 -24 5 -25 -20 -15 -22 8 -26 7 -26 -10 0 -22 16 -36
23 -18 3 10 7 10 19 0 19 -15 31 -2 22 22 -7 17 11 22 21 6 3 -5 10 -10 16
-10 5 0 9 5 9 10 0 6 -6 10 -14 10 -7 0 -19 7 -26 15 -19 23 -31 18 -24 -10z"/>
<path d="M9710 2225 c0 -3 5 -16 11 -27 12 -22 14 -22 -35 -2 -11 4 -13 0 -9
-15 6 -24 23 -38 23 -20 0 10 3 10 12 1 19 -19 31 -14 26 13 -6 28 3 32 22 10
7 -8 16 -12 21 -9 16 10 9 19 -23 34 -18 7 -36 15 -40 18 -5 2 -8 1 -8 -3z"/>
<path d="M14380 2211 c0 -20 17 -37 27 -28 7 8 -7 47 -18 47 -5 0 -9 -9 -9
-19z"/>
<path d="M14430 2213 c0 -10 5 -25 10 -33 7 -11 10 -7 10 18 0 17 -4 32 -10
32 -5 0 -10 -8 -10 -17z"/>
<path d="M16340 2206 c0 -27 15 -42 25 -26 8 13 -3 50 -16 50 -5 0 -9 -11 -9
-24z"/>
<path d="M17951 2225 c1 -19 18 -51 18 -35 0 8 -4 22 -9 30 -5 8 -9 11 -9 5z"/>
<path d="M19730 2221 c0 -8 54 -41 67 -41 1 0 3 7 3 15 0 8 -9 15 -19 15 -11
0 -23 5 -26 10 -8 13 -25 13 -25 1z"/>
<path d="M929 2198 c-11 -21 -9 -21 25 -8 21 8 26 7 26 -6 0 -11 5 -14 16 -10
10 4 25 -1 35 -10 17 -15 19 -15 25 -1 7 18 -2 37 -17 37 -6 0 -7 -4 -4 -10 3
-5 1 -10 -4 -10 -6 0 -11 7 -11 15 0 9 -6 12 -15 9 -8 -4 -15 -2 -15 4 0 17
-51 8 -61 -10z"/>
<path d="M4110 2209 c0 -4 3 -15 6 -24 5 -13 8 -14 15 -3 13 20 11 35 -6 35
-8 0 -15 -4 -15 -8z"/>
<path d="M5547 2213 c-4 -3 -1 -13 6 -21 10 -13 9 -15 -5 -9 -28 10 -21 -7 9
-20 30 -15 41 -10 25 10 -7 8 -10 16 -7 19 3 3 -1 10 -8 16 -8 7 -17 9 -20 5z"/>
<path d="M6112 2209 c-13 -5 -28 -6 -34 -3 -11 7 -28 -13 -28 -34 0 -10 10 -7
35 8 l36 22 -7 -27 c-6 -25 -5 -26 15 -15 23 12 76 5 99 -13 7 -5 15 -7 18 -4
8 8 -6 28 -16 22 -4 -3 -14 2 -21 11 -11 13 -9 14 17 8 16 -4 36 -13 45 -20
21 -19 29 -17 29 6 0 11 -6 21 -12 21 -47 5 -58 7 -73 13 -10 3 -23 2 -29 -3
-6 -5 -22 -12 -36 -16 -25 -8 -25 -8 -6 14 21 23 9 27 -32 10z"/>
<path d="M12072 2200 c-12 -12 -22 -26 -22 -32 0 -6 8 -4 18 5 27 25 51 22 45
-4 -5 -19 -4 -20 16 -10 22 12 87 5 97 -10 7 -12 24 -11 24 1 0 6 -12 15 -26
21 -15 5 -24 12 -21 16 3 3 25 -4 49 -15 23 -12 43 -20 45 -18 7 7 -10 36 -18
30 -5 -3 -9 3 -9 13 0 13 -3 15 -8 5 -7 -10 -15 -10 -37 -2 -16 6 -32 7 -39 1
-6 -5 -22 -12 -36 -16 -25 -8 -25 -8 -6 14 14 16 16 21 5 21 -8 0 -21 -4 -29
-10 -9 -5 -17 -5 -20 1 -4 5 -16 0 -28 -11z"/>
<path d="M12320 2207 c0 -8 9 -22 20 -32 19 -18 20 -17 20 3 0 12 -9 26 -20
32 -16 8 -20 8 -20 -3z"/>
<path d="M13576 2195 c6 -25 5 -26 -15 -16 -13 8 -35 9 -59 4 -20 -4 -41 -7
-47 -8 -13 0 -19 -35 -6 -35 5 0 13 5 16 11 4 6 19 7 35 4 16 -3 31 -2 35 4 3
6 -2 11 -12 12 -11 0 -13 3 -5 6 7 3 22 -3 33 -13 12 -11 23 -14 29 -8 15 15
16 56 2 61 -9 4 -11 -2 -6 -22z"/>
<path d="M13877 2206 c-4 -9 -13 -13 -22 -10 -14 6 -14 3 -4 -20 16 -34 26
-33 34 5 7 33 1 50 -8 25z"/>
<path d="M15717 2213 c-11 -10 -8 -43 3 -43 6 0 10 4 10 9 0 5 3 16 6 25 6 16
-7 22 -19 9z"/>
<path d="M16066 2212 c-3 -5 -2 -21 2 -37 l8 -28 19 24 c11 14 29 30 40 37 13
7 15 12 6 12 -8 0 -23 -8 -34 -17 -19 -17 -20 -17 -14 0 7 17 -17 25 -27 9z"/>
<path d="M21550 2212 c0 -4 9 -13 20 -20 11 -7 20 -9 20 -4 0 4 -9 13 -20 20
-11 7 -20 9 -20 4z"/>
<path d="M1940 2199 c0 -4 -3 -16 -7 -26 -6 -17 -5 -17 15 1 26 22 28 33 7 33
-8 0 -15 -4 -15 -8z"/>
<path d="M14177 2201 c-29 -11 -16 -24 28 -28 l39 -3 -22 20 c-11 11 -22 20
-24 19 -2 0 -11 -4 -21 -8z"/>
<path d="M14237 2198 c4 -7 8 -21 8 -30 0 -10 5 -17 10 -15 6 1 9 11 7 21 -2
18 -1 19 17 2 16 -15 19 -15 24 -1 5 10 0 15 -13 15 -10 0 -22 5 -25 10 -3 6
-13 10 -21 10 -10 0 -12 -4 -7 -12z"/>
<path d="M16200 2205 c0 -2 16 -15 35 -29 31 -24 35 -25 35 -9 0 12 -12 22
-35 29 -19 6 -35 10 -35 9z"/>
<path d="M16971 2187 c-18 -46 -13 -52 19 -22 30 28 43 58 16 36 -11 -9 -15
-9 -19 1 -3 8 -9 1 -16 -15z"/>
<path d="M17538 2198 c-30 -6 -48 -16 -48 -24 0 -18 4 -18 40 1 28 15 35 13
31 -9 -1 -4 14 -5 34 -2 21 4 35 3 35 -3 0 -5 8 -9 18 -9 9 0 25 -3 35 -7 13
-6 17 -2 17 15 0 19 2 20 15 10 9 -7 18 -10 22 -6 9 8 -7 22 -34 31 -18 5 -22
3 -17 -9 5 -12 0 -16 -21 -16 -16 0 -24 4 -20 11 5 7 -5 8 -32 3 -35 -6 -37
-6 -24 9 15 19 16 19 -51 5z"/>
<path d="M20884 2195 c-11 -27 1 -37 19 -17 16 17 16 20 2 26 -9 3 -18 0 -21
-9z"/>
<path d="M160 2196 c0 -4 68 -46 76 -46 2 0 4 4 4 10 0 5 -16 17 -36 25 -39
16 -44 17 -44 11z"/>
<path d="M3812 2193 c-6 -2 -10 -9 -7 -13 3 -5 12 -7 19 -4 7 3 19 -2 26 -11
7 -8 17 -15 22 -15 6 0 5 7 -2 15 -15 17 -7 19 21 5 15 -9 19 -7 19 8 0 20
-39 26 -53 8 -6 -8 -10 -7 -14 2 -5 13 -10 14 -31 5z"/>
<path d="M3975 2190 c3 -5 8 -10 11 -10 2 0 4 5 4 10 0 6 -5 10 -11 10 -5 0
-7 -4 -4 -10z"/>
<path d="M4730 2185 c0 -8 5 -15 10 -15 6 0 10 7 10 15 0 8 -4 15 -10 15 -5 0
-10 -7 -10 -15z"/>
<path d="M14774 2186 c-3 -9 -10 -13 -15 -10 -5 3 -9 -6 -9 -20 0 -14 4 -26 8
-26 9 0 34 62 27 68 -2 3 -7 -3 -11 -12z"/>
<path d="M15504 2189 c-3 -6 -15 -9 -25 -6 -12 3 -23 -2 -29 -14 -12 -22 0
-25 32 -8 11 6 23 7 27 3 9 -13 112 -12 108 1 -2 5 -23 9 -46 9 -32 -1 -41 2
-37 12 6 16 -20 19 -30 3z"/>
<path d="M15755 2182 c3 -7 5 -16 5 -19 0 -3 7 0 15 7 21 17 19 29 -5 27 -13
-1 -19 -6 -15 -15z"/>
<path d="M16017 2193 c-4 -3 -7 -13 -7 -21 0 -12 3 -12 15 -2 8 7 15 16 15 21
0 11 -14 12 -23 2z"/>
<path d="M16140 2189 c-29 -8 -27 -10 18 -14 18 -1 42 -11 52 -20 18 -16 20
-16 20 -2 0 9 -9 19 -20 22 -11 3 -20 10 -20 14 0 9 -17 10 -50 0z"/>
<path d="M16758 2194 c-5 -4 -8 -19 -8 -33 1 -23 2 -24 11 -8 11 19 9 53 -3
41z"/>
<path d="M20945 2174 c-15 -14 -24 -28 -21 -32 4 -3 21 8 39 26 37 38 22 44
-18 6z"/>
<path d="M21700 2190 c0 -5 5 -10 11 -10 5 0 7 5 4 10 -3 6 -8 10 -11 10 -2 0
-4 -4 -4 -10z"/>
<path d="M2681 2181 c-7 -5 -11 -19 -9 -32 4 -24 5 -24 16 5 14 32 12 39 -7
27z"/>
<path d="M10520 2178 c0 -9 -5 -18 -12 -20 -8 -3 -8 -9 -1 -22 9 -16 11 -14
17 14 3 18 4 35 1 38 -3 3 -5 -2 -5 -10z"/>
<path d="M10753 2174 c-7 -7 -13 -21 -13 -31 1 -13 5 -10 16 10 17 32 16 42
-3 21z"/>
<path d="M15796 2182 c-3 -5 1 -18 9 -28 14 -18 14 -18 15 3 0 23 -15 39 -24
25z"/>
<path d="M420 2171 c0 -7 -4 -9 -10 -6 -12 8 -13 -5 -1 -24 7 -11 10 -9 16 8
4 13 4 25 1 28 -3 4 -6 1 -6 -6z"/>
<path d="M847 2160 c-3 -11 -1 -20 4 -20 4 0 13 9 19 20 8 16 8 20 -3 20 -8 0
-17 -9 -20 -20z"/>
<path d="M4026 2165 c4 -8 10 -12 15 -9 14 8 10 24 -6 24 -9 0 -12 -6 -9 -15z"/>
<path d="M8470 2163 c0 -10 4 -24 9 -31 7 -11 9 -10 15 3 3 9 -1 23 -9 31 -13
14 -15 13 -15 -3z"/>
<path d="M8711 2166 c-7 -8 -11 -23 -8 -33 3 -14 6 -12 16 11 13 33 9 43 -8
22z"/>
<path d="M617 2163 c-10 -9 -8 -33 2 -33 5 0 11 9 14 20 5 20 -3 26 -16 13z"/>
<path d="M10210 2161 c0 -5 5 -13 10 -16 6 -3 10 -2 10 4 0 5 -4 13 -10 16 -5
3 -10 2 -10 -4z"/>
<path d="M12483 2154 c-3 -8 -1 -20 6 -27 8 -8 11 -4 11 16 0 30 -7 35 -17 11z"/>
<path d="M6440 2134 c0 -8 5 -12 10 -9 6 3 10 10 10 16 0 5 -4 9 -10 9 -5 0
-10 -7 -10 -16z"/>
<path d="M20451 2134 c0 -11 3 -14 6 -6 3 7 2 16 -1 19 -3 4 -6 -2 -5 -13z"/>
</g>
</svg>
