<?xml version="1.0" standalone="no"?>
<!DOCTYPE svg PUBLIC "-//W3C//DTD SVG 20010904//EN"
 "http://www.w3.org/TR/2001/REC-SVG-20010904/DTD/svg10.dtd">
<svg version="1.0" xmlns="http://www.w3.org/2000/svg" width="1368.7pt" height="537.3pt" viewBox="37.9 285.2 1368.7 537.3" preserveAspectRatio="xMidYMid meet">

<g transform="translate(0.000000,1086.000000) scale(0.100000,-0.100000)"
fill="#F2E8D5" stroke="none">
<path d="M6400 7911 c-201 -29 -262 -69 -234 -150 22 -61 103 -89 344 -121 91
-12 232 -39 315 -60 240 -61 513 -159 501 -178 -3 -5 -34 -17 -68 -27 -35 -9
-76 -24 -93 -33 -18 -9 -72 -19 -130 -23 -115 -8 -185 -31 -271 -89 l-57 -39
-116 1 c-77 1 -139 -5 -184 -15 -84 -21 -120 -21 -220 -2 -163 31 -318 7 -481
-74 -88 -44 -116 -53 -216 -68 -149 -22 -400 -21 -590 1 -247 29 -472 70
-1100 201 -301 62 -585 92 -760 80 -336 -23 -701 -72 -858 -116 -373 -105
-643 -428 -749 -894 -15 -68 -17 -120 -15 -345 1 -190 -3 -301 -14 -390 -25
-206 -81 -460 -139 -634 -72 -215 -84 -268 -94 -421 -5 -71 -12 -139 -16 -150
-6 -18 -5 -18 13 3 11 12 30 53 42 90 29 87 44 103 36 37 -3 -27 -8 -79 -11
-115 -13 -134 -47 -235 -100 -299 -15 -17 -24 -31 -20 -31 11 0 69 32 88 48
15 13 20 14 27 3 6 -10 16 3 35 43 15 32 25 59 22 62 -2 2 -19 -16 -38 -40
-46 -60 -62 -65 -38 -12 33 76 57 206 69 376 6 91 14 183 17 205 9 67 -12 29
-51 -90 l-36 -110 5 70 c4 50 26 129 75 275 95 281 127 423 155 684 14 125 25
183 25 130 0 -10 16 -82 34 -158 26 -107 32 -146 25 -170 -5 -17 -21 -94 -35
-171 -32 -175 -29 -252 20 -500 63 -310 79 -436 58 -449 -5 -3 -17 26 -27 65
-20 71 -38 94 -28 36 10 -67 -14 -198 -56 -299 -33 -78 -41 -110 -40 -155 l0
-58 29 80 c16 44 45 125 64 180 31 89 35 96 35 60 1 -46 -30 -188 -54 -255 -9
-25 -21 -83 -26 -129 -13 -113 -25 -131 -34 -53 -4 34 -11 62 -15 62 -5 0 -14
-26 -20 -57 -6 -32 -19 -83 -29 -113 l-18 -55 -6 35 c-53 311 -55 364 -21 481
18 60 12 74 -11 28 -27 -50 -85 -212 -85 -234 0 -17 -2 -17 -10 -5 -5 8 -10
40 -11 70 -1 54 -1 54 -11 20 -18 -63 8 -234 44 -283 11 -15 12 -5 10 60 -4
87 5 163 18 163 6 0 9 -8 8 -17 -4 -25 11 -158 24 -217 5 -26 13 -89 17 -140
l6 -91 33 66 c17 37 37 89 43 117 13 54 29 61 29 12 0 -15 3 -36 6 -44 9 -24
61 131 79 235 8 47 26 123 40 169 15 50 25 108 25 146 0 34 5 64 10 66 6 2 15
34 21 72 11 84 2 164 -44 381 -51 236 -60 305 -54 398 8 120 39 301 48 285 14
-26 100 -322 134 -463 48 -199 59 -281 59 -440 1 -180 -15 -245 -105 -423 -38
-75 -71 -150 -75 -167 -3 -17 6 -89 19 -161 14 -71 34 -196 46 -279 12 -82 29
-185 38 -228 9 -42 14 -80 11 -83 -3 -3 -21 21 -39 53 -47 84 -182 253 -201
253 -5 0 6 -28 23 -62 42 -84 74 -169 98 -264 24 -96 36 -194 25 -194 -5 1
-27 26 -49 57 -42 58 -144 158 -153 149 -3 -3 9 -32 27 -65 17 -32 34 -81 37
-108 l6 -48 -104 109 c-124 132 -267 248 -381 310 -81 44 -117 56 -117 37 0
-5 15 -20 33 -34 51 -39 178 -211 246 -332 33 -60 59 -111 57 -113 -2 -2 -39
20 -82 48 -44 29 -115 69 -159 90 -82 39 -255 103 -262 97 -2 -2 29 -32 69
-67 74 -63 109 -101 142 -154 18 -28 18 -29 0 -22 -115 46 -235 78 -325 86
-96 9 -131 7 -98 -5 52 -19 134 -45 141 -45 5 0 6 5 3 11 -16 25 154 -22 260
-73 54 -25 68 -29 75 -18 11 19 -20 73 -88 156 -29 35 -50 64 -47 64 30 0 261
-128 358 -198 30 -22 52 -31 58 -25 21 21 -146 318 -241 425 -23 27 -39 48
-35 48 14 0 183 -125 250 -185 39 -34 113 -112 165 -173 52 -61 99 -111 104
-111 11 -1 0 137 -14 174 -19 49 -5 37 56 -46 104 -142 96 -142 90 -9 -5 115
-36 252 -72 322 -32 61 -4 37 49 -44 48 -73 154 -277 172 -333 5 -14 19 15 49
105 38 113 113 276 123 267 2 -2 -3 -31 -12 -63 -8 -32 -18 -88 -21 -124 -7
-68 11 -239 26 -254 5 -5 25 19 47 53 21 34 56 88 78 119 l40 57 2 -40 c7
-103 15 -165 24 -165 13 0 68 100 75 137 7 38 24 34 24 -5 0 -15 5 -34 10 -42
7 -11 10 -5 10 24 l0 39 21 -19 c12 -10 42 -47 66 -82 25 -35 48 -60 51 -57 5
5 -16 257 -24 283 -12 41 75 -32 143 -121 25 -32 61 -84 79 -115 36 -59 37
-59 34 3 -5 117 -49 293 -97 388 -13 27 -22 51 -20 53 7 7 124 -122 165 -184
57 -83 110 -190 124 -250 6 -29 15 -49 19 -45 4 5 26 55 49 113 22 58 62 143
87 190 47 85 113 184 119 178 2 -2 -8 -35 -22 -73 -14 -38 -32 -98 -40 -132
-16 -69 -33 -253 -24 -253 4 0 32 37 63 83 32 45 69 96 83 112 l25 30 -8 -40
c-15 -80 -4 -255 17 -255 5 0 26 26 46 58 45 71 187 263 191 258 2 -1 -4 -23
-13 -47 -15 -44 -35 -219 -24 -219 3 0 47 38 97 85 l92 85 -2 -74 c-2 -92 11
-113 42 -63 27 45 28 66 1 42 -20 -18 -20 -17 -20 38 0 32 2 57 5 57 2 0 11
-13 19 -29 17 -32 114 -117 123 -107 3 3 -1 25 -10 48 -9 23 -15 44 -12 46 3
3 50 -18 105 -46 94 -48 100 -50 100 -29 -1 32 -52 148 -86 193 l-29 38 50
-28 c87 -51 136 -87 213 -160 l75 -71 -6 56 c-12 105 -83 289 -149 389 l-23
35 50 -42 c107 -89 184 -185 240 -301 21 -45 42 -82 45 -82 3 0 10 21 17 48
14 59 58 158 66 146 3 -5 8 -41 12 -79 3 -39 8 -90 10 -115 2 -25 4 -47 4 -49
1 -1 21 38 46 88 74 147 211 317 315 391 36 26 34 19 -15 -50 -79 -110 -138
-267 -151 -400 -8 -75 -7 -75 67 35 51 76 266 305 286 305 6 0 -1 -37 -14 -81
-14 -51 -23 -106 -22 -148 l0 -66 32 40 c52 66 163 175 177 175 9 0 11 -11 7
-41 -6 -45 1 -109 13 -109 8 0 130 241 130 258 0 6 4 12 9 12 9 0 25 -79 40
-195 l7 -50 49 95 49 95 7 -98 c4 -54 9 -100 12 -103 6 -7 69 81 96 133 29 58
51 147 51 207 0 136 59 -78 88 -319 l9 -70 38 80 c31 66 39 76 46 60 6 -15 8
-11 8 17 1 48 31 125 41 107 4 -8 13 -54 19 -104 17 -139 22 -165 30 -165 4 0
15 27 24 60 27 96 90 220 152 298 31 40 59 71 61 69 2 -2 -7 -28 -20 -58 -35
-76 -56 -162 -65 -276 -9 -98 -7 -121 9 -93 23 41 131 163 173 195 26 20 47
34 47 32 0 -3 -6 -38 -14 -78 -20 -102 -27 -169 -18 -169 6 0 46 60 93 140 8
13 10 13 18 0 7 -9 6 -19 -1 -27 -6 -8 -8 -17 -4 -20 4 -4 11 -2 15 5 9 16 15
10 56 -62 24 -42 29 -47 37 -31 20 34 3 174 -29 258 -17 42 -28 77 -24 77 14
0 60 -55 95 -114 38 -62 70 -153 82 -226 6 -42 7 -43 17 -20 64 162 154 314
227 385 l52 50 -30 -60 c-60 -121 -101 -317 -87 -414 l7 -44 59 109 c32 59 64
113 69 118 7 7 10 -22 10 -84 l0 -95 21 35 c12 19 53 94 90 165 61 116 150
256 136 214 -3 -8 -18 -53 -33 -100 -23 -69 -28 -102 -28 -184 -1 -103 8 -160
23 -150 5 3 26 36 47 73 20 37 46 80 58 97 11 16 20 35 18 40 -1 6 11 26 27
45 l29 35 -5 -51 c-3 -29 -1 -60 5 -69 7 -14 11 -4 16 46 10 88 27 179 35 179
3 0 14 -26 25 -58 10 -31 45 -106 77 -166 64 -121 66 -121 72 4 l2 65 49 -99
c35 -73 50 -96 57 -85 11 18 11 132 -1 184 l-9 40 30 -35 c17 -19 50 -71 75
-115 l45 -80 -5 120 c-6 144 -29 243 -85 353 -34 68 -38 81 -24 84 12 2 7 10
-20 31 l-37 28 40 -83 c22 -45 40 -88 40 -95 0 -7 11 -51 25 -98 13 -47 27
-116 31 -153 l6 -67 -31 47 c-40 58 -107 135 -114 128 -3 -3 -1 -27 3 -55 5
-27 9 -72 9 -100 l0 -50 -53 111 c-51 106 -88 159 -72 103 3 -13 9 -64 12
-114 5 -85 4 -89 -11 -70 -9 11 -45 78 -80 148 l-62 128 -23 -56 c-15 -37 -43
-77 -81 -116 -33 -32 -59 -66 -59 -75 0 -15 2 -15 21 2 13 11 4 -9 -21 -49
-23 -37 -46 -70 -51 -73 -16 -10 -9 123 11 208 22 94 53 175 100 261 18 32 30
60 27 63 -5 5 -138 -158 -184 -226 -17 -25 -56 -90 -87 -145 l-56 -100 0 61
c0 48 5 67 25 94 14 19 25 35 25 37 0 8 -11 1 -31 -19 l-22 -23 7 129 6 128
38 47 37 46 -38 -28 c-38 -28 -38 -28 -33 -5 3 13 12 79 21 148 9 69 18 140
21 157 l5 33 37 -19 c20 -10 80 -36 132 -56 81 -33 106 -39 175 -39 73 -1 87
2 150 34 39 19 73 36 76 38 8 3 89 -152 118 -225 12 -29 30 -76 42 -105 14
-35 16 -48 7 -42 -8 5 -6 2 4 -8 10 -9 18 -21 18 -28 0 -6 20 -45 45 -85 l45
-74 -20 -46 c-11 -26 -20 -59 -20 -73 1 -23 5 -19 29 28 l29 54 30 -59 c16
-33 38 -86 48 -117 10 -32 20 -58 23 -58 4 0 17 42 30 92 26 102 40 138 53
138 4 0 8 -12 8 -27 0 -46 22 -153 31 -153 5 0 9 6 9 13 0 19 99 214 116 228
13 11 15 -3 12 -124 -2 -88 1 -136 7 -134 6 2 32 43 58 92 72 132 151 240 240
328 43 44 80 77 83 74 3 -2 -18 -41 -45 -85 -68 -110 -126 -250 -145 -351 -19
-98 -18 -91 -7 -91 4 0 36 36 71 80 64 81 128 141 212 198 57 39 65 40 40 4
-50 -70 -120 -244 -110 -272 2 -6 34 17 72 50 62 56 137 110 151 110 3 0 1 -8
-4 -19 -17 -31 -32 -114 -26 -140 l6 -24 32 30 c62 58 89 74 103 62 7 -6 22
-8 32 -5 15 5 30 -5 60 -39 22 -25 43 -45 47 -45 4 0 5 32 2 70 -5 56 -3 69 7
63 22 -13 93 -99 117 -143 12 -22 26 -40 31 -40 21 0 -7 211 -38 279 -13 30
-22 56 -20 58 5 5 111 -84 148 -123 14 -16 52 -65 83 -109 l58 -80 -7 85 c-8
113 -58 295 -109 400 -54 111 -54 111 -17 70 93 -105 217 -329 250 -450 6 -24
15 -39 19 -34 11 12 106 257 122 314 7 25 16 49 20 53 11 14 22 -235 15 -324
-4 -43 -4 -79 1 -79 4 0 38 60 76 133 67 132 145 241 220 306 45 40 47 34 6
-25 -46 -68 -106 -204 -128 -292 -26 -102 -32 -142 -23 -142 4 1 27 26 52 57
56 71 150 173 159 173 3 0 7 -33 8 -73 3 -87 11 -137 22 -137 5 0 36 42 70 93
33 50 75 108 92 127 28 32 30 33 24 10 -4 -14 -9 -74 -12 -133 l-6 -108 56 58
c31 33 77 74 102 92 44 32 60 34 30 5 -10 -10 -15 -35 -15 -71 0 -31 2 -54 5
-52 4 4 47 123 62 172 11 34 23 16 23 -33 0 -41 -3 -48 -16 -43 -12 4 -15 1
-12 -13 2 -10 10 -19 18 -19 9 0 18 -16 23 -45 5 -25 12 -49 16 -53 4 -4 27
29 52 75 24 45 58 100 74 122 l30 41 5 -98 5 -97 65 97 65 98 3 -112 c1 -62 6
-113 10 -113 5 0 16 15 24 34 21 43 106 176 113 176 3 0 1 -9 -5 -20 -20 -37
7 -21 34 21 15 22 30 39 32 36 3 -2 0 -24 -6 -49 -6 -24 -10 -66 -8 -93 l3
-50 35 55 c19 30 48 67 65 83 32 29 15 39 -18 9 -20 -17 -20 -17 -1 16 10 18
29 45 42 60 l23 27 -4 -45 c-2 -25 -1 -85 2 -135 7 -89 7 -90 21 -55 50 129
186 343 274 429 l54 54 -52 -104 c-28 -57 -64 -148 -80 -202 -26 -94 -48 -237
-36 -237 3 0 26 28 50 62 87 126 173 223 142 161 -16 -32 -44 -169 -40 -197 3
-26 9 -20 73 65 90 120 250 279 348 347 42 29 77 50 77 47 0 -4 -20 -30 -45
-57 -67 -75 -148 -203 -182 -288 -34 -85 -57 -164 -52 -178 5 -12 219 221 219
237 0 6 -4 11 -9 11 -9 0 -73 -67 -129 -135 -28 -34 -32 -36 -27 -15 14 55
107 232 158 299 29 39 88 107 130 151 43 44 72 80 65 80 -20 0 -224 -126 -293
-181 -66 -52 -165 -153 -239 -242 -27 -32 -50 -56 -52 -54 -6 6 17 81 48 150
16 38 28 71 26 73 -10 9 -80 -55 -148 -136 -41 -49 -78 -89 -82 -89 -9 -1 34
159 62 229 38 95 98 203 150 268 28 34 49 62 46 62 -18 0 -115 -78 -192 -155
-89 -88 -155 -177 -229 -306 l-37 -64 7 89 c3 49 13 108 20 130 8 22 12 42 10
44 -8 9 -99 -118 -128 -180 -17 -38 -34 -68 -38 -68 -12 0 12 112 32 152 l20
40 -21 -7 c-23 -7 -24 -10 11 120 11 38 19 82 19 97 0 29 3 30 105 43 103 14
203 92 225 177 6 24 12 47 13 51 2 5 34 30 72 55 79 53 113 106 141 223 15 60
21 70 59 97 54 38 90 86 104 137 6 22 26 150 46 285 20 135 51 341 70 459 33
198 38 219 74 285 22 39 55 112 74 161 19 50 62 145 95 211 51 101 67 125 99
144 32 19 42 21 69 11 17 -6 40 -11 51 -11 25 0 70 41 83 75 16 41 12 228 -5
278 -13 40 -13 49 0 88 47 133 104 400 135 632 10 81 22 152 25 157 3 4 18 11
34 15 22 5 50 -4 116 -35 152 -74 276 -65 435 29 86 51 185 142 211 192 34 68
20 127 -40 176 l-25 20 23 54 c19 43 23 66 19 119 -6 77 -24 117 -79 170 -136
132 -337 143 -736 41 l-112 -29 -52 36 c-106 71 -221 90 -326 53 -51 -17 -54
-17 -125 1 -113 30 -180 21 -319 -42 l-113 -52 -111 31 c-167 48 -318 68 -416
53 -240 -35 -377 -205 -301 -374 l20 -47 -21 -7 c-36 -11 -88 -51 -108 -81
-40 -60 -14 -145 70 -228 23 -21 41 -43 41 -47 0 -4 -19 -17 -42 -29 -37 -19
-57 -22 -156 -20 -208 3 -381 -35 -625 -140 -312 -134 -386 -162 -506 -192
-124 -31 -129 -31 -366 -31 -215 1 -437 15 -489 30 -17 6 -18 14 -11 108 10
146 35 163 99 63 46 -71 85 -103 152 -123 44 -12 64 -13 107 -4 69 14 157 56
251 119 110 75 147 131 127 194 -23 69 -192 202 -295 232 -63 19 -165 19 -236
0 -54 -14 -56 -14 -100 13 -54 33 -63 67 -28 98 20 18 291 105 443 143 111 28
247 44 407 50 158 5 180 8 205 27 39 29 58 71 47 103 -25 69 -211 136 -409
147 -141 8 -266 -10 -530 -77 -110 -27 -230 -53 -266 -56 -65 -6 -68 -5 -160
44 -52 28 -112 56 -133 63 -55 18 -130 16 -199 -4 -57 -16 -61 -16 -118 3
-105 37 -212 23 -334 -44 -111 -60 -143 -68 -226 -56 -41 7 -160 37 -266 67
-106 30 -236 64 -290 74 -109 22 -365 34 -453 21z m410 -55 c47 -9 150 -34
230 -56 192 -55 323 -87 387 -96 44 -5 54 -4 59 10 5 13 14 15 35 11 21 -5 46
2 98 29 154 78 240 92 348 55 58 -19 64 -19 114 -5 112 34 213 15 339 -63 36
-22 60 -31 76 -27 12 3 26 1 30 -5 11 -18 111 -4 284 41 340 86 522 105 688
71 110 -23 196 -53 225 -78 33 -31 16 -76 -38 -98 -11 -5 -87 -9 -170 -10
-223 -4 -384 -35 -665 -129 -74 -25 -142 -48 -150 -50 -8 -2 -23 -7 -33 -11
-39 -16 -137 130 -137 205 0 11 -5 20 -11 20 -8 0 -10 -15 -5 -46 11 -83 30
-128 72 -172 35 -36 47 -43 66 -37 l23 7 -23 -25 c-17 -18 -22 -31 -17 -47 5
-15 4 -20 -4 -16 -6 4 -11 4 -11 -1 0 -4 21 -21 45 -38 25 -16 45 -33 45 -37
0 -12 -37 -28 -45 -20 -3 4 -5 3 -4 -3 2 -5 -7 -29 -19 -52 -12 -23 -22 -50
-22 -59 0 -31 -15 -4 -27 49 -10 48 -11 41 -10 -86 0 -109 -3 -141 -14 -147
-10 -7 -16 -3 -21 10 -16 42 -75 6 -112 -68 -47 -94 -43 -114 12 -67 34 29 44
31 36 10 -4 -8 -2 -15 3 -15 16 0 51 44 58 73 9 36 25 45 25 13 0 -14 -9 -96
-20 -183 -33 -255 -82 -445 -156 -606 l-26 -59 -19 32 c-16 26 -57 54 -67 45
-2 -1 8 -20 22 -40 32 -46 43 -88 51 -185 8 -84 -2 -121 -37 -144 -22 -14 -30
-13 -97 10 -115 40 -230 43 -354 10 -117 -31 -139 -32 -161 -7 -28 30 -29 80
-6 176 25 102 41 135 79 158 23 15 24 16 6 17 -30 0 -63 -26 -83 -67 l-18 -35
-16 24 c-26 41 -99 239 -123 333 -12 49 -34 158 -50 240 -15 83 -35 179 -45
215 l-18 65 -1 -79 c-1 -84 34 -296 75 -461 29 -113 60 -196 115 -307 l39 -77
-7 -95 -6 -95 36 -36 c27 -27 43 -35 72 -35 20 0 44 4 54 9 13 8 27 3 56 -17
36 -26 43 -27 164 -27 l127 0 -81 -170 c-45 -93 -92 -198 -103 -233 -21 -60
-69 -362 -92 -582 -19 -178 -49 -382 -65 -437 -24 -84 -87 -143 -152 -143 -45
-1 -110 -35 -127 -69 -26 -50 -19 -71 9 -24 16 26 37 45 56 52 30 10 69 15 69
8 0 -16 -54 -156 -70 -182 -29 -47 -105 -114 -171 -150 -48 -27 -63 -30 -139
-30 -77 1 -95 5 -187 43 -55 23 -110 42 -121 42 -28 0 -32 10 -25 53 4 30 10
37 27 37 72 0 178 58 208 113 8 16 -1 12 -38 -15 -60 -43 -97 -62 -148 -76
l-38 -11 6 52 c8 56 41 124 89 183 17 20 32 42 33 48 1 6 5 20 9 31 5 14 1 12
-11 -6 -23 -32 -102 -119 -109 -119 -2 0 -2 12 0 28 41 246 41 276 0 602 -13
103 -14 101 -9 -120 5 -192 3 -246 -14 -365 -12 -77 -26 -196 -32 -265 -6 -69
-22 -204 -35 -300 -13 -96 -26 -195 -28 -219 -5 -38 -15 -53 -90 -130 -46 -47
-101 -112 -122 -143 -21 -32 -39 -58 -41 -58 -2 0 -10 24 -19 53 -18 60 -54
129 -72 134 -7 3 0 -28 18 -77 46 -127 52 -165 33 -202 l-16 -31 -22 56 c-13
30 -36 77 -51 104 -16 26 -41 73 -56 103 -42 82 -52 93 -45 47 l5 -37 -42 33
c-98 80 -103 78 -42 -19 63 -101 88 -171 83 -241 l-3 -48 -37 53 c-21 28 -38
57 -38 62 0 22 -17 8 -33 -27 -9 -21 -26 -49 -37 -63 l-21 -25 7 40 c3 22 18
66 32 98 24 54 24 59 8 75 -15 16 -20 15 -67 -1 -28 -10 -53 -17 -55 -15 -2 2
3 33 12 68 8 35 13 68 11 74 -5 16 -45 -110 -53 -167 -5 -35 -17 -61 -43 -92
-20 -24 -39 -44 -42 -44 -3 -1 -1 29 6 67 34 191 81 300 155 362 28 23 50 46
50 51 0 18 -54 -13 -117 -69 -92 -81 -176 -189 -225 -290 l-42 -87 -19 105
c-26 140 -25 138 -41 114 -7 -10 -19 -36 -27 -56 -7 -21 -16 -38 -20 -38 -4 0
-13 16 -21 36 -13 32 -13 42 0 78 10 30 12 65 8 131 -8 109 -8 107 0 225 5 82
2 115 -24 245 -17 82 -28 152 -26 155 3 3 121 6 262 8 l257 4 33 -179 c19 -98
42 -224 53 -280 10 -56 19 -112 19 -124 0 -34 33 -159 42 -159 20 0 1 158 -54
450 -76 405 -82 429 -146 561 -90 187 -95 205 -83 313 11 96 4 147 -26 193
-23 35 -28 20 -9 -27 19 -48 20 -96 5 -173 -16 -80 -2 -142 71 -296 33 -71 60
-132 60 -135 0 -3 -37 10 -81 30 -187 79 -364 105 -607 86 -161 -13 -280 -35
-613 -115 -243 -59 -347 -71 -518 -64 -75 4 -149 10 -166 13 -57 12 -12 -15
55 -33 48 -13 103 -17 210 -17 163 0 238 12 520 79 374 89 439 99 685 99 241
0 282 -7 445 -72 73 -30 75 -32 88 -77 8 -26 11 -49 8 -52 -3 -3 -92 -1 -198
5 -190 11 -335 5 -495 -17 -316 -46 -471 -81 -595 -137 -54 -24 -102 -44 -107
-44 -5 0 -44 -32 -87 -71 -93 -84 -140 -113 -219 -133 -92 -24 -164 -20 -269
15 -108 36 -330 141 -500 237 -300 171 -397 212 -495 212 -85 0 -164 -42 -242
-131 -34 -38 -67 -69 -73 -69 -7 0 -22 19 -33 43 -21 40 -22 41 -22 14 -1 -36
-15 -64 -54 -104 -52 -55 -82 -39 -117 63 -14 38 -35 74 -62 101 l-42 43 22
52 c72 169 189 316 296 368 124 61 268 64 378 9 34 -17 150 -82 258 -144 242
-139 412 -211 540 -230 66 -9 42 5 -110 64 -258 102 -334 150 -435 276 -117
145 -164 287 -172 510 -6 162 5 278 38 409 11 43 18 80 15 83 -9 9 -45 -108
-67 -213 -67 -338 19 -679 217 -853 49 -43 51 -54 6 -23 -15 11 -90 54 -167
97 -77 43 -165 92 -195 110 -183 108 -274 140 -405 140 -95 -1 -105 -3 -209
-45 -60 -24 -104 -46 -98 -48 6 -2 59 10 118 27 124 36 228 41 315 15 63 -19
209 -84 209 -93 0 -4 -26 -8 -59 -9 -140 -6 -245 -56 -346 -165 -70 -75 -133
-188 -210 -377 -81 -198 -132 -288 -203 -359 -35 -34 -55 -60 -45 -57 18 6 11
-20 -50 -191 -38 -109 -84 -248 -101 -308 -26 -88 -42 -124 -82 -180 -28 -39
-61 -88 -74 -110 -24 -38 -24 -39 -31 -15 -18 65 -9 205 21 323 16 65 34 126
40 137 24 44 -11 16 -59 -47 -57 -76 -120 -198 -147 -285 -10 -32 -21 -58 -24
-58 -17 0 -34 70 -61 250 -33 226 -75 470 -89 520 -23 84 -14 126 60 276 110
222 137 369 106 578 -19 128 -35 194 -121 496 -79 277 -159 597 -187 750 -29
158 -29 356 1 497 84 403 341 736 643 838 113 37 244 62 503 95 563 72 662 65
1441 -99 494 -103 801 -149 1069 -158 254 -8 495 23 560 73 52 39 175 82 269
94 74 9 108 8 198 -6 116 -18 182 -15 293 10 39 9 103 16 144 16 l74 0 -41
-44 c-67 -73 -68 -120 -4 -186 44 -46 182 -131 260 -160 31 -12 83 -24 117
-27 98 -9 147 13 257 113 51 46 97 84 102 84 5 0 18 -7 28 -17 17 -15 18 -15
18 4 0 12 -11 28 -25 37 -24 16 -27 16 -58 -6 -18 -12 -64 -53 -104 -89 -85
-79 -121 -93 -214 -87 -55 4 -86 14 -161 51 -107 54 -204 126 -219 163 -39
105 247 294 444 294 47 0 208 -53 250 -82 15 -11 27 -16 27 -11 0 4 -16 19
-35 32 -19 13 -35 26 -35 30 1 8 59 48 93 63 30 14 36 28 11 28 -9 0 -14 6
-11 13 2 6 -5 22 -16 35 l-20 22 21 0 c30 0 99 72 124 127 23 53 38 160 20
149 -7 -4 -12 -17 -12 -29 0 -51 -101 -217 -132 -217 -5 0 -69 22 -141 49
-257 96 -488 154 -737 186 -146 18 -217 37 -253 66 -97 75 82 134 378 124 66
-3 158 -11 205 -19z m5272 -21 c43 -15 50 -15 95 0 111 38 196 29 293 -29 81
-49 99 -51 240 -17 69 16 169 37 224 46 241 43 425 -14 492 -151 22 -46 26
-64 21 -108 -7 -66 -35 -123 -82 -164 -40 -36 -57 -39 -75 -17 -9 11 -10 22
-1 42 6 16 10 58 9 94 -2 52 2 73 20 103 35 59 17 56 -19 -3 -18 -28 -33 -51
-34 -51 -1 0 -17 8 -36 17 -75 38 -308 9 -457 -57 -60 -27 -73 -25 -108 13
-46 49 -54 62 -80 124 -18 45 -24 52 -24 31 0 -54 41 -140 92 -191 41 -41 47
-51 36 -64 -11 -13 -7 -21 25 -48 36 -31 36 -32 18 -49 -11 -10 -22 -30 -26
-44 -7 -26 -8 -25 -31 23 -33 71 -32 20 1 -60 35 -84 40 -119 25 -180 -12 -50
-14 -53 -36 -43 -43 20 -94 -33 -130 -135 -8 -22 -12 -42 -10 -44 2 -2 17 10
34 27 29 28 61 42 47 20 -11 -18 11 -10 30 10 10 11 20 19 22 17 4 -4 -53
-341 -72 -426 -16 -71 -77 -293 -81 -300 -2 -2 -19 4 -38 13 -42 20 -83 20
-129 1 -50 -21 -133 -19 -201 5 -49 16 -66 18 -105 9 -50 -11 -86 -31 -113
-63 -27 -32 -58 -122 -58 -169 -1 -39 -2 -41 -15 -23 -8 11 -15 32 -15 48 0
15 -4 28 -10 28 -5 0 -10 -4 -10 -10 0 -25 -21 -3 -80 87 -128 194 -178 406
-200 853 -12 239 -27 340 -30 205 -2 -38 -5 -98 -9 -133 l-6 -63 -19 35 c-15
28 -25 36 -47 36 -30 0 -84 -40 -94 -69 -3 -10 -17 -24 -30 -31 -14 -7 -23
-15 -20 -18 2 -3 11 1 20 8 13 11 15 -2 15 -114 0 -69 4 -126 9 -126 5 0 12
40 15 90 4 49 11 92 14 94 4 2 8 -53 8 -122 1 -70 6 -138 12 -152 9 -20 11 3
10 105 -1 72 2 160 7 197 7 65 6 68 -16 76 l-23 9 21 12 c46 24 74 10 105 -54
9 -18 20 -92 27 -180 14 -172 49 -360 87 -467 38 -106 83 -182 179 -303 70
-87 85 -112 85 -141 0 -21 8 -42 21 -55 19 -19 29 -21 82 -16 47 4 67 1 98
-14 43 -23 160 -42 201 -34 l27 6 -45 -78 c-24 -43 -64 -127 -89 -188 -25 -60
-57 -132 -71 -160 -14 -27 -37 -70 -49 -95 -25 -47 -42 -152 -120 -700 -19
-135 -40 -262 -45 -283 -14 -48 -65 -105 -136 -152 -52 -35 -82 -70 -70 -83 4
-3 13 4 22 16 21 31 36 28 28 -5 -30 -127 -82 -195 -186 -248 -40 -20 -79 -44
-86 -53 -12 -16 -14 -16 -28 2 -8 11 -14 31 -14 45 0 19 -3 22 -11 14 -9 -9
-9 -19 1 -42 20 -50 35 -56 70 -31 17 12 33 20 36 18 8 -9 -27 -92 -49 -116
-77 -83 -245 -113 -422 -77 -77 16 -167 48 -445 158 -203 80 -250 101 -250
107 0 3 22 18 48 33 61 37 120 87 102 87 -8 -1 -46 -20 -85 -44 -38 -24 -71
-40 -73 -36 -6 16 123 433 145 467 24 36 112 63 204 63 51 0 78 4 74 10 -10
15 -165 12 -222 -5 -99 -29 -96 -23 -304 -738 -15 -54 -31 -118 -35 -142 -5
-39 -12 -48 -49 -70 -117 -68 -240 -203 -315 -347 l-37 -69 -6 128 c-4 70 -10
166 -14 213 l-6 85 -18 -40 c-10 -22 -32 -86 -50 -142 -38 -120 -55 -135 -51
-43 1 22 0 23 -7 5 -7 -17 -12 -13 -35 33 -15 30 -30 52 -33 49 -2 -3 0 -45 6
-94 13 -108 14 -150 2 -138 -5 6 -35 57 -67 115 -68 125 -119 194 -205 276
-60 57 -109 92 -109 79 0 -3 19 -33 41 -67 52 -76 111 -201 138 -293 25 -82
51 -215 42 -215 -3 0 -19 19 -36 41 -49 67 -168 174 -242 218 -38 22 -72 41
-76 41 -3 0 18 -35 47 -78 56 -82 80 -143 91 -227 l6 -50 -32 40 c-66 80 -143
144 -156 131 -4 -4 -1 -17 7 -29 8 -12 17 -44 20 -71 l7 -50 -41 48 c-29 33
-46 45 -58 41 -13 -5 -18 1 -24 29 -3 20 -3 52 0 71 4 19 3 35 -1 35 -16 0
-194 -114 -238 -152 -25 -22 -45 -35 -45 -28 0 18 77 167 125 241 25 38 42 69
39 69 -2 0 -57 -34 -122 -77 -74 -48 -143 -104 -189 -152 -40 -41 -73 -72 -73
-69 0 22 48 154 85 233 45 98 101 188 168 268 21 26 36 47 32 47 -13 0 -111
-70 -182 -129 -64 -54 -196 -202 -222 -249 -34 -60 -9 97 34 218 45 125 82
185 164 263 l76 73 110 11 c61 7 224 39 362 72 221 53 375 81 451 81 18 0 22
-5 22 -32 0 -18 7 -78 15 -133 9 -55 22 -149 30 -210 7 -60 19 -131 25 -157
40 -158 24 94 -29 472 -29 200 -38 283 -61 519 -11 118 -26 233 -32 255 -6 23
-14 131 -17 241 -6 214 -13 216 -31 9 -6 -71 -18 -177 -27 -236 -21 -141 -11
-260 37 -437 19 -70 21 -41 5 70 -15 109 -19 330 -6 364 6 15 9 11 14 -20 4
-22 7 -62 7 -88 0 -65 48 -476 66 -563 l6 -31 -74 5 c-84 5 -176 -10 -413 -68
-376 -92 -550 -106 -755 -64 -18 4 -21 3 -10 -4 23 -15 180 -52 218 -52 l34 0
-55 -50 c-30 -28 -69 -72 -86 -99 -40 -61 -102 -227 -132 -353 -13 -54 -27
-98 -31 -98 -5 0 -8 21 -9 48 -1 87 -10 91 -58 27 -23 -31 -55 -79 -69 -108
l-27 -51 -14 77 c-8 42 -18 77 -22 77 -5 0 -16 -15 -26 -32 -14 -28 -18 -30
-21 -13 -5 24 4 182 13 215 6 22 2 20 -30 -15 -20 -22 -56 -66 -80 -98 l-43
-58 -36 58 c-20 31 -36 64 -36 71 0 37 -136 340 -182 405 l-20 28 42 45 c47
51 81 118 106 210 9 35 22 64 28 64 25 0 87 53 106 89 31 63 43 132 105 606
31 239 52 374 67 435 10 40 103 254 187 433 l32 67 39 -6 c101 -16 130 24 130
179 0 101 2 112 31 170 63 123 117 305 155 515 l16 94 42 -6 c96 -14 273 -27
441 -32 309 -11 409 11 825 186 355 149 443 171 672 174 143 2 148 3 205 33
l59 31 72 -48 c95 -62 164 -84 251 -78 37 3 76 10 87 16 15 9 7 11 -38 6 -72
-8 -181 23 -258 73 -110 72 -240 216 -240 265 0 40 30 77 85 103 l55 27 34
-28 c19 -16 35 -32 35 -35 1 -3 -22 -16 -50 -29 -67 -32 -48 -37 32 -9 88 30
195 37 238 14 18 -9 35 -14 38 -11 8 8 -59 39 -97 45 -29 5 -36 11 -38 33 -2
15 -10 32 -18 38 -25 22 -15 30 39 30 73 0 114 -14 251 -81 122 -60 147 -69
127 -46 -8 10 -2 22 25 48 19 19 38 34 42 34 10 0 3 17 -16 39 -16 18 -16 19
10 13 22 -6 32 0 66 39 40 44 72 117 72 158 -1 12 -9 -3 -20 -33 -24 -66 -63
-119 -95 -127 -14 -4 -72 11 -157 40 -156 53 -246 65 -328 42 -30 -8 -57 -12
-59 -10 -2 2 1 16 8 30 16 37 8 41 -15 7 -29 -44 -24 -119 10 -178 27 -46 28
-49 10 -62 -24 -18 -25 -17 -72 17 -84 60 -122 165 -92 255 40 123 234 202
428 175 42 -6 143 -27 224 -47 142 -35 148 -36 167 -19 11 10 25 15 31 11 6
-4 34 6 63 21 100 53 146 65 222 60 39 -3 91 -12 117 -21z m1127 -268 c19 -7
40 -21 47 -32 13 -20 12 -21 -86 -17 -116 5 -159 -6 -258 -69 -94 -59 -118
-64 -163 -34 -29 19 -36 29 -32 45 3 12 13 24 22 27 9 3 45 16 80 30 148 57
311 78 390 50z m-1924 -25 c82 -22 173 -66 182 -88 4 -10 -6 -28 -25 -47 l-31
-31 -48 28 c-142 81 -243 113 -330 103 -40 -4 -43 -3 -43 19 0 18 8 26 33 33
44 14 177 5 262 -17z m1963 -59 c18 -4 22 -11 18 -27 -4 -11 -9 -31 -12 -43
-4 -14 1 -28 16 -43 26 -26 68 -22 113 11 34 24 59 18 87 -21 27 -38 25 -58
-8 -111 -53 -83 -184 -180 -300 -221 -86 -31 -149 -27 -267 17 -55 21 -114 38
-131 38 l-31 1 -8 70 c-12 106 -10 132 8 159 17 26 225 134 312 163 42 13 164
18 203 7z m-5918 -132 c0 -14 -72 -71 -89 -71 -22 0 -81 23 -81 32 0 9 116 47
148 47 12 1 22 -3 22 -8z m1762 -110 c73 -34 179 -125 204 -174 9 -16 13 -40
10 -52 -10 -39 -122 -130 -219 -180 -150 -76 -241 -73 -314 9 -64 72 -103 124
-103 136 0 8 -6 8 -21 0 -11 -7 -22 -10 -24 -8 -9 8 18 156 35 195 13 31 30
48 62 64 78 40 119 49 213 46 77 -3 99 -8 157 -36z m3046 -1026 c87 -30 125
-31 192 -5 66 26 88 25 133 -5 59 -41 71 -74 71 -192 -1 -138 -29 -182 -98
-154 -17 7 -67 22 -111 33 -73 19 -88 19 -170 8 -49 -7 -117 -21 -150 -31
-121 -38 -135 -22 -116 129 17 130 47 186 116 219 27 12 53 23 56 23 3 0 38
-11 77 -25z m175 -351 c46 -8 47 -21 2 -40 -58 -24 -265 -12 -265 16 0 20 185
36 263 24z m-4188 -109 c104 -13 92 -33 -31 -55 -61 -11 -81 -10 -148 4 -42
10 -76 21 -76 26 0 5 24 13 53 19 78 16 99 19 127 15 14 -2 48 -6 75 -9z
m-4770 -1656 c27 -10 100 -46 160 -80 375 -210 562 -304 695 -349 37 -13 102
-25 151 -28 144 -8 259 38 379 152 78 74 235 145 395 179 104 22 384 69 481
80 36 4 30 23 64 -193 22 -140 25 -227 10 -282 -8 -27 -8 -44 0 -59 13 -23 17
-195 6 -207 -4 -4 -12 1 -17 11 -22 38 -168 214 -183 220 -13 5 -11 -4 9 -43
58 -114 51 -220 -21 -361 l-38 -74 -8 75 c-4 41 -6 80 -4 85 3 6 5 -5 5 -22 1
-18 6 -33 12 -33 11 0 4 103 -8 123 -6 10 -66 -74 -95 -132 -18 -36 -22 -41
-30 -26 -6 9 -12 51 -15 93 -4 69 -1 88 31 183 30 88 36 121 36 188 0 97 -15
99 -25 4 -9 -87 -39 -176 -76 -227 -16 -23 -40 -78 -53 -122 -13 -45 -36 -103
-50 -130 l-26 -49 0 48 c0 51 -7 56 -48 30 -27 -17 -27 -17 -12 2 8 11 27 35
42 53 27 31 37 63 21 62 -5 -1 -25 -22 -46 -48 -21 -26 -70 -86 -109 -134 -38
-49 -72 -88 -73 -88 -20 0 140 436 183 500 16 24 63 152 58 158 -5 4 -71 -108
-109 -183 -19 -38 -43 -96 -53 -128 -16 -52 -26 -65 -99 -127 -83 -71 -201
-190 -247 -250 -21 -27 -27 -31 -28 -17 -1 74 111 311 190 400 29 31 46 57 40
57 -24 0 -168 -108 -246 -185 -81 -81 -126 -139 -176 -230 -23 -43 -28 -47
-35 -30 -4 11 -8 66 -8 122 0 57 -1 103 -3 103 -7 0 -73 -114 -95 -164 l-24
-58 -33 57 c-48 83 -138 193 -214 260 -67 60 -177 137 -184 130 -2 -2 19 -34
48 -72 63 -83 154 -264 179 -355 10 -38 17 -68 15 -68 -2 0 -39 29 -83 64 -43
35 -111 82 -149 105 -70 41 -162 84 -162 76 0 -2 21 -28 48 -58 54 -63 122
-173 122 -200 0 -16 -8 -14 -62 17 -64 35 -144 63 -153 54 -3 -3 1 -18 9 -34
9 -15 13 -30 11 -33 -9 -9 -44 32 -71 82 l-27 52 -89 -88 c-50 -48 -91 -87
-93 -85 -1 2 2 34 7 73 9 69 62 201 95 237 9 10 14 21 11 24 -11 10 -130 -111
-195 -198 -36 -48 -69 -88 -74 -88 -5 0 -9 10 -9 21 0 35 -28 4 -44 -50 l-15
-46 0 75 c0 60 6 90 29 149 16 41 28 77 25 79 -8 9 -110 -97 -158 -163 l-49
-70 6 63 c14 124 75 314 131 402 15 23 25 44 23 46 -8 8 -139 -134 -190 -207
-30 -42 -67 -106 -83 -143 -28 -66 -46 -86 -38 -43 2 12 7 72 12 132 5 61 21
159 35 219 14 60 26 121 26 136 0 16 19 64 42 107 22 43 60 130 84 193 77 208
119 294 145 302 33 9 104 0 164 -23z m-280 -107 c-24 -53 -60 -142 -80 -197
-20 -55 -50 -121 -66 -146 -20 -32 -34 -73 -44 -135 -9 -49 -23 -116 -31 -148
-9 -33 -14 -79 -12 -102 2 -32 -7 -67 -42 -148 -25 -58 -48 -106 -51 -106 -3
0 -18 22 -33 50 -53 97 -159 219 -258 296 -31 24 -59 44 -62 44 -3 0 9 -20 28
-45 19 -24 52 -91 74 -147 41 -106 86 -288 72 -288 -5 0 -18 15 -30 34 -11 19
-58 70 -103 113 -78 73 -84 82 -96 138 -7 33 -24 105 -38 160 -14 55 -25 109
-24 121 2 50 71 201 111 245 40 42 151 252 165 312 4 15 13 27 20 27 26 0 73
-57 85 -101 14 -55 53 -115 79 -124 29 -9 73 18 106 65 26 38 29 39 46 24 29
-26 62 -10 109 51 40 52 96 105 112 105 3 0 -13 -44 -37 -98z m7343 -241 c59
-27 116 -51 127 -55 31 -9 82 -166 95 -291 15 -147 31 -226 42 -219 23 15 -11
323 -47 421 -12 35 -21 63 -20 63 1 0 67 -27 147 -59 176 -72 202 -80 301 -90
43 -5 80 -11 83 -13 7 -8 -31 -176 -55 -237 -23 -61 -21 -73 9 -46 32 29 23 3
-15 -40 -27 -31 -37 -37 -44 -26 -6 10 -18 0 -49 -40 -22 -30 -47 -69 -56 -86
-9 -18 -19 -33 -23 -33 -8 0 6 173 18 212 5 17 7 33 5 36 -2 2 -23 -25 -47
-60 -23 -35 -56 -81 -73 -103 l-31 -39 -5 84 -5 85 -28 -30 c-15 -17 -55 -72
-89 -124 -73 -109 -76 -107 -77 47 -1 56 -3 102 -6 102 -3 0 -20 -16 -37 -36
-17 -19 -71 -69 -120 -110 l-90 -76 7 69 c11 99 40 207 75 271 16 30 28 57 25
60 -15 16 -243 -213 -284 -286 -15 -27 -19 -11 -11 48 4 30 6 56 5 58 -6 7
-99 -86 -152 -150 -31 -38 -57 -67 -60 -65 -7 8 50 164 89 242 48 97 102 170
183 249 33 33 47 52 32 42 -16 -10 -30 -16 -33 -14 -2 2 10 42 25 89 16 46 37
110 46 142 9 31 21 57 26 57 5 0 58 -22 117 -49z m-8128 -463 c12 -53 20 -102
18 -108 -1 -5 -20 4 -41 21 -46 38 -58 32 -24 -13 46 -59 86 -154 98 -227 6
-39 9 -76 7 -81 -2 -5 -39 32 -83 83 l-80 92 -6 -51 c-7 -57 -29 -124 -41
-124 -4 0 -8 34 -8 76 0 57 4 82 18 102 36 51 37 55 12 42 -20 -11 -21 -10
-15 12 26 89 110 297 115 286 4 -7 17 -57 30 -110z m3370 20 c21 -39 25 -74
12 -95 -7 -10 -46 74 -88 187 -10 26 55 -53 76 -92z m-384 -14 c-4 -9 -9 -15
-11 -12 -3 3 -3 13 1 22 4 9 9 15 11 12 3 -3 3 -13 -1 -22z m1555 -224 c-18
-25 -43 -64 -54 -87 -12 -24 -24 -43 -27 -43 -10 0 7 136 24 195 9 29 31 84
48 122 l32 68 6 -105 5 -105 -34 -45z m1101 -13 l-15 -57 -39 81 c-21 45 -38
89 -38 98 0 9 22 45 48 80 l47 63 6 -103 c4 -77 2 -119 -9 -162z m2413 199
c-14 -25 -46 -73 -72 -104 -27 -32 -66 -84 -88 -115 -22 -31 -43 -56 -47 -57
-11 0 -10 58 1 64 5 4 35 41 67 84 55 75 155 185 161 178 2 -1 -8 -24 -22 -50z
m-735 -85 c9 -38 9 -58 -1 -90 -7 -23 -15 -41 -18 -41 -3 0 -6 41 -6 90 0 50
3 90 7 90 3 0 11 -22 18 -49z m-3885 5 c5 -24 1 -45 -16 -77 l-23 -44 -7 40
c-13 65 -11 85 6 79 10 -4 15 0 15 15 0 33 18 24 25 -13z m427 -28 c-12 -13
-22 -17 -22 -11 0 15 31 46 38 38 3 -3 -4 -15 -16 -27z m2112 16 c3 -8 -8 -41
-24 -72 -25 -47 -30 -52 -30 -31 0 15 7 40 15 55 8 16 15 37 15 47 0 21 16 22
24 1z m-5944 -35 c0 -6 -4 -7 -10 -4 -5 3 -10 11 -10 16 0 6 5 7 10 4 6 -3 10
-11 10 -16z m6568 -31 c0 -18 2 -43 6 -55 4 -13 3 -23 -2 -23 -5 0 -26 -11
-46 -25 -34 -23 -36 -23 -36 -5 0 43 49 140 71 140 5 0 8 -15 7 -32z m-6064
-81 c-2 -75 -11 -127 -24 -127 -4 0 -14 17 -22 38 -14 37 -14 42 9 100 14 34
28 62 32 62 3 0 5 -33 5 -73z m386 -131 c0 -7 -8 -20 -17 -27 -15 -12 -16 -12
-10 4 4 10 7 23 7 28 0 5 5 9 10 9 6 0 10 -6 10 -14z"/>
<path d="M8091 7591 c-28 -27 -51 -55 -51 -61 0 -7 -24 13 -53 44 -57 61 -94
77 -55 25 13 -17 38 -52 56 -77 l32 -47 0 -239 c0 -189 3 -237 12 -228 9 9 13
76 14 240 2 254 4 266 78 345 20 21 36 40 36 43 0 14 -25 -2 -69 -45z"/>
<path d="M6923 7116 c-59 -15 -183 -73 -183 -86 0 -5 26 2 57 16 60 27 172 59
179 51 3 -2 -18 -22 -46 -43 -81 -62 -73 -64 75 -25 39 10 72 17 74 15 2 -2
-15 -26 -38 -55 -36 -46 -49 -69 -37 -69 2 0 33 14 69 30 37 17 69 30 73 30 3
0 4 -14 2 -31 -4 -28 -3 -30 19 -24 15 3 23 1 23 -7 0 -7 9 1 19 18 10 17 35
41 55 53 34 21 47 41 27 41 -5 0 -32 -16 -60 -36 l-52 -35 7 36 6 36 -56 -25
c-31 -14 -56 -22 -56 -20 0 3 9 17 20 31 11 14 20 32 20 41 0 15 -35 13 -134
-5 l-31 -6 43 34 c23 18 42 37 42 41 0 11 -57 8 -117 -6z"/>
<path d="M7602 7014 c46 -64 81 -135 102 -208 21 -71 33 -67 16 6 -25 106 -85
214 -132 239 -17 9 -14 2 14 -37z"/>
<path d="M8412 6983 c-33 -48 -59 -105 -81 -183 -12 -41 -30 -91 -41 -110 -10
-19 -26 -64 -35 -100 -20 -76 -33 -286 -18 -277 6 4 13 38 17 76 12 137 44
242 101 339 38 65 41 94 6 51 -11 -13 -20 -21 -21 -18 -1 17 44 128 74 185 34
65 33 87 -2 37z"/>
<path d="M7466 6971 c-3 -5 1 -11 9 -15 9 -3 15 -18 15 -36 0 -58 40 -125 52
-88 3 8 19 1 45 -20 22 -17 43 -29 46 -26 9 9 -22 84 -50 122 -36 48 -104 85
-117 63z"/>
<path d="M7251 6710 c-4 -215 54 -554 144 -845 24 -77 67 -214 95 -305 102
-326 125 -505 118 -902 -3 -143 -2 -254 2 -247 7 14 25 211 36 414 14 236 -31
492 -141 815 -153 446 -200 635 -225 900 -7 69 -15 150 -20 180 l-8 55 -1 -65z"/>
<path d="M7690 6753 c0 -5 11 -27 25 -47 60 -89 105 -219 105 -308 0 -23 3
-29 9 -19 16 25 -18 220 -49 281 -20 38 -90 111 -90 93z"/>
<path d="M1765 6683 c-52 -70 -141 -256 -167 -348 -20 -71 -22 -103 -22 -280
0 -255 11 -313 160 -838 32 -114 60 -204 62 -199 1 4 -20 105 -47 223 -27 118
-71 318 -97 444 -47 227 -48 233 -48 420 -1 183 0 193 28 275 31 92 80 195
130 275 46 72 48 75 42 75 -3 0 -22 -21 -41 -47z"/>
<path d="M7130 6299 c1 -156 32 -319 115 -604 110 -379 128 -482 128 -755 0
-222 8 -218 27 15 20 231 5 336 -105 720 -84 292 -120 441 -141 585 -9 63 -18
117 -20 119 -2 2 -4 -34 -4 -80z"/>
<path d="M7875 6132 c19 -18 109 -42 158 -42 27 0 76 7 108 15 45 12 64 13 80
4 24 -12 41 -3 19 11 -20 13 -78 12 -141 -1 -50 -11 -58 -10 -204 17 -20 4
-27 3 -20 -4z"/>
<path d="M7860 6083 c0 -11 138 -43 182 -43 57 0 52 15 -5 16 -29 1 -76 9
-106 18 -61 18 -71 19 -71 9z"/>
<path d="M8170 6075 c-17 -10 -20 -14 -9 -15 9 0 22 7 29 15 15 18 12 18 -20
0z"/>
<path d="M7780 6029 c-14 -49 -1 -95 35 -129 14 -13 26 -35 26 -49 2 -25 2
-25 6 -3 4 19 9 23 26 18 31 -8 47 11 47 54 0 32 -6 43 -38 68 -21 17 -44 42
-52 56 -19 37 -38 32 -50 -15z m115 -110 c0 -18 -5 -23 -20 -21 -31 5 -65 49
-65 84 l0 31 43 -35 c28 -24 42 -44 42 -59z"/>
<path d="M8243 6053 c-3 -10 -28 -39 -56 -64 -41 -37 -50 -51 -50 -78 0 -36
25 -64 49 -54 10 4 14 -3 14 -21 0 -14 4 -26 9 -26 10 0 21 24 21 47 0 8 11
28 24 44 13 15 27 47 31 69 11 63 -25 132 -42 83z m7 -98 c-18 -56 -80 -88
-80 -42 0 14 15 36 42 59 47 40 56 36 38 -17z"/>
<path d="M7794 5881 c20 -22 26 -25 26 -13 0 4 -10 13 -22 21 -23 14 -23 14
-4 -8z"/>
<path d="M5986 5482 c-19 -36 -46 -171 -45 -219 1 -35 2 -33 15 22 12 52 48
176 61 213 10 24 -17 11 -31 -16z"/>
<path d="M5846 5300 c-31 -103 -40 -210 -27 -326 14 -131 60 -385 73 -399 6
-6 7 -1 4 15 -8 33 -34 301 -42 420 -3 52 -1 149 4 215 6 66 9 122 7 123 -2 2
-11 -19 -19 -48z"/>
<path d="M7267 4787 c-11 -29 -8 -172 7 -286 12 -89 12 -111 0 -160 -16 -66
-87 -212 -115 -237 -10 -9 -19 -22 -19 -28 0 -21 72 61 105 121 64 116 75 188
55 347 -6 45 -14 122 -18 171 -4 55 -10 83 -15 72z"/>
<path d="M7342 4220 c-12 -71 -35 -170 -51 -220 -16 -49 -27 -90 -25 -90 10 0
56 106 74 172 19 66 40 268 28 268 -2 0 -14 -58 -26 -130z"/>
<path d="M1793 3910 c-7 -29 -31 -81 -53 -115 -22 -33 -42 -76 -45 -95 -5 -31
-4 -32 5 -11 6 14 33 62 61 107 43 70 50 88 47 124 l-3 43 -12 -53z"/>
<path d="M1766 3573 c-11 -52 -28 -215 -23 -219 5 -6 23 92 33 184 7 63 0 85
-10 35z"/>
<path d="M12040 7644 c0 -3 27 -35 60 -71 33 -36 60 -70 60 -74 0 -19 20 -8
34 19 8 15 33 49 56 75 59 67 41 72 -24 6 l-54 -54 -47 43 c-49 44 -85 68 -85
56z"/>
<path d="M12174 7340 c4 -63 11 -171 16 -240 5 -69 10 -170 10 -225 1 -55 5
-118 9 -140 10 -48 18 158 13 355 -3 111 -35 347 -49 360 -3 3 -3 -47 1 -110z"/>
<path d="M11016 7291 c-3 -4 32 -11 77 -15 45 -4 85 -10 89 -14 5 -5 -18 -13
-50 -20 -32 -7 -67 -19 -78 -28 -17 -14 -17 -15 -1 -10 65 21 217 17 217 -5 0
-5 -12 -14 -27 -20 -38 -14 -13 -29 52 -29 l50 -1 -30 -16 c-16 -9 -25 -18
-19 -20 14 -5 81 24 90 38 10 17 -18 30 -53 24 -36 -6 -44 8 -15 24 15 8 12
12 -20 25 -21 9 -44 16 -53 16 -9 0 -14 8 -12 22 1 17 -5 24 -28 29 -45 10
-183 10 -189 0z"/>
<path d="M11713 7126 c46 -45 109 -155 122 -213 10 -49 29 -55 21 -7 -11 66
-72 178 -121 223 -60 55 -79 53 -22 -3z"/>
<path d="M12542 7075 c-34 -29 -73 -113 -76 -164 -1 -20 -14 -61 -29 -91 -43
-89 -61 -173 -61 -290 1 -58 5 -115 10 -128 8 -17 10 -1 10 65 0 113 36 294
67 337 23 32 49 97 42 105 -3 2 -12 -2 -21 -10 -15 -12 -16 -11 -9 11 20 62
46 111 80 149 41 45 33 55 -13 16z"/>
<path d="M11608 7049 c-10 -7 -8 -9 6 -9 12 0 16 -5 12 -15 -3 -8 -8 -21 -11
-27 -3 -7 4 -28 15 -46 17 -27 26 -33 43 -28 14 3 36 -3 56 -15 18 -11 36 -18
39 -15 10 10 -30 85 -64 120 -34 35 -73 49 -96 35z"/>
<path d="M11581 6885 c0 -11 4 -29 9 -40 l9 -20 0 20 c0 11 -4 29 -9 40 l-9
20 0 -20z"/>
<path d="M11830 6842 c0 -5 11 -19 24 -32 37 -34 65 -102 93 -225 26 -114 33
-135 33 -94 0 104 -50 268 -97 320 -34 37 -53 49 -53 31z"/>
<path d="M11303 6400 c6 -127 27 -306 63 -515 8 -49 42 -198 74 -330 33 -132
67 -280 76 -330 22 -126 29 -413 12 -547 -14 -108 -8 -141 12 -70 51 182 52
470 2 707 -16 77 -44 192 -61 255 -53 198 -126 588 -162 865 -6 50 -14 92 -16
95 -3 3 -3 -56 0 -130z"/>
<path d="M11456 6235 c8 -83 73 -329 139 -525 103 -306 131 -488 122 -785 -6
-209 3 -219 30 -30 11 79 14 149 10 252 -9 217 -31 303 -170 693 -25 69 -61
186 -81 260 -53 196 -57 206 -50 135z"/>
<path d="M11700 5993 c0 -16 150 -205 221 -278 52 -54 91 -106 119 -160 41
-78 42 -79 36 -37 -10 67 -38 112 -137 218 -51 55 -123 136 -161 182 -68 80
-78 89 -78 75z"/>
<path d="M9781 5805 c-37 -8 -138 -51 -245 -105 -223 -111 -271 -125 -436
-124 -143 0 -235 16 -442 75 -77 22 -142 38 -144 36 -7 -6 263 -103 353 -127
218 -57 472 -28 644 76 135 81 274 132 383 140 160 12 276 -30 527 -191 208
-134 234 -141 78 -23 -175 133 -273 193 -379 230 -74 26 -251 33 -339 13z"/>
<path d="M11364 4535 c3 -48 12 -88 30 -128 47 -105 55 -280 16 -381 -12 -34
-13 -39 0 -31 21 13 50 138 50 219 0 65 -6 98 -31 166 -17 47 -39 117 -50 155
l-18 70 3 -70z"/>
<path d="M11588 4574 c-4 -6 -3 -53 3 -105 7 -68 7 -121 -2 -191 -14 -114 -4
-179 37 -243 25 -40 25 -36 -4 40 -17 44 -20 147 -9 270 8 81 -11 252 -25 229z"/>
<path d="M9585 4195 c3 -113 46 -430 60 -444 14 -13 2 181 -19 308 -49 290
-45 280 -41 136z"/>
<path d="M10531 4089 c-43 -13 -128 -68 -160 -103 -37 -40 -6 -32 54 14 58 45
112 70 151 70 23 0 18 -5 -35 -41 -67 -45 -83 -64 -23 -28 20 12 56 33 80 47
l43 24 72 -21 c40 -11 81 -21 93 -21 29 0 111 29 123 44 7 8 -11 5 -48 -8
l-59 -20 -73 23 c-84 27 -169 35 -218 20z"/>
<path d="M11330 4044 c0 -16 4 -46 9 -66 5 -21 5 -38 1 -38 -5 0 -32 -25 -61
-55 -86 -91 -222 -144 -334 -129 -27 3 -83 20 -124 36 -75 29 -218 64 -227 55
-3 -3 10 -8 28 -12 18 -4 78 -27 133 -50 229 -100 395 -81 536 60 31 30 59 55
63 55 3 0 6 -10 6 -22 0 -12 2 -19 5 -16 6 5 -23 199 -31 207 -2 2 -4 -9 -4
-25z"/>
<path d="M13020 7300 c0 -12 107 -13 114 -2 2 4 -22 9 -55 9 -32 1 -59 -2 -59
-7z"/>
<path d="M12930 7250 c0 -5 9 -10 20 -10 20 0 80 -26 80 -35 0 -2 -30 -2 -67
1 -46 3 -61 1 -48 -5 26 -12 145 -29 145 -21 0 9 -52 56 -77 69 -27 14 -53 14
-53 1z"/>
<path d="M12764 7151 c3 -5 22 -12 43 -16 37 -7 84 -29 133 -62 l25 -17 -25
28 c-30 34 -114 76 -153 76 -16 0 -26 -4 -23 -9z"/>
<path d="M8932 7091 c51 -32 72 -57 42 -47 -19 5 -161 36 -170 36 -2 0 -4 -6
-4 -14 0 -8 19 -31 42 -50 46 -39 38 -46 -20 -17 -48 24 -84 32 -100 22 -8 -4
9 -14 45 -25 32 -10 77 -27 101 -38 24 -11 46 -17 49 -14 4 4 -12 26 -35 49
-23 24 -42 45 -42 49 0 9 130 -21 176 -42 52 -22 58 -10 18 34 -32 34 -112 86
-133 86 -8 0 6 -13 31 -29z"/>
<path d="M9136 7085 c10 -8 24 -14 29 -14 6 0 1 6 -9 14 -11 8 -24 15 -30 15
-5 0 -1 -7 10 -15z"/>
<path d="M11990 6161 c-20 -38 -12 -88 20 -124 17 -19 30 -44 30 -55 0 -11 7
-25 15 -32 12 -10 15 -9 15 8 0 15 5 19 18 15 23 -6 40 14 48 55 5 27 1 36
-27 62 -19 18 -48 45 -65 61 -37 34 -40 35 -54 10z m75 -63 c43 -41 58 -79 35
-93 -13 -8 -49 17 -71 52 -17 25 -26 83 -14 83 3 0 25 -19 50 -42z"/>
<path d="M12439 6158 c-6 -13 -29 -39 -50 -59 -48 -45 -54 -97 -15 -122 21
-14 26 -14 54 3 23 14 34 32 46 73 19 65 20 82 6 108 -14 25 -27 24 -41 -3z
m17 -72 c-12 -65 -76 -117 -76 -62 0 20 68 106 79 99 2 -1 0 -18 -3 -37z"/>
<path d="M12185 6160 c28 -12 113 -12 120 0 4 6 -21 10 -67 9 -50 0 -67 -3
-53 -9z"/>
<path d="M10127 3283 c-31 -59 -36 -93 -13 -73 19 15 50 94 44 112 -3 7 -17
-10 -31 -39z"/>
<path d="M10592 3039 c1 -12 9 -24 16 -27 9 -3 13 3 10 19 -1 12 -9 24 -16 27
-9 3 -13 -3 -10 -19z"/>
<path d="M7907 3193 c-10 -18 -19 -118 -9 -108 5 6 12 34 14 63 5 51 4 60 -5
45z"/>
<path d="M13151 3319 c-188 -99 -313 -212 -464 -419 -18 -25 -18 -24 -12 43 3
37 14 95 25 130 22 69 24 87 11 87 -10 0 -100 -116 -165 -214 -44 -64 -54 -61
-55 17 -1 20 -5 37 -9 37 -5 0 -41 -27 -80 -60 -40 -34 -72 -59 -72 -56 0 20
55 146 80 182 16 25 30 47 30 49 0 12 -165 -90 -223 -139 -66 -55 -69 -57 -63
-30 17 68 70 187 130 292 35 61 60 112 54 112 -24 0 -232 -179 -307 -264 -51
-59 -116 -175 -109 -196 1 -5 32 33 67 85 58 88 237 275 263 275 5 0 -3 -19
-17 -42 -59 -95 -118 -245 -130 -333 l-8 -50 64 64 c58 58 177 146 186 138 2
-2 -4 -21 -13 -42 -19 -46 -47 -175 -40 -183 3 -3 39 27 81 67 41 39 80 71 85
71 6 0 10 -12 11 -27 0 -16 6 -46 12 -67 l12 -39 83 128 c45 70 84 126 87 124
2 -2 -1 -25 -6 -50 -5 -25 -9 -85 -7 -134 l3 -89 52 80 c95 146 211 268 337
353 l48 34 -71 -95 c-71 -94 -130 -207 -158 -300 -8 -28 -12 -52 -9 -55 3 -3
31 17 63 45 83 72 220 158 281 177 21 6 20 2 -14 -42 -42 -55 -69 -111 -79
-165 -9 -47 1 -48 58 -9 61 41 272 129 284 118 1 -2 -6 -22 -17 -44 -20 -43
-37 -123 -26 -123 18 0 169 126 228 189 l66 71 -20 -67 c-11 -38 -35 -97 -53
-133 -58 -115 -55 -120 28 -47 69 60 157 117 157 101 0 -3 -16 -36 -35 -72
-20 -35 -34 -66 -33 -67 2 -2 35 10 73 26 39 15 95 34 125 41 34 7 47 13 34
16 -12 1 -56 -6 -98 -16 -42 -11 -76 -17 -76 -13 0 4 18 36 39 72 21 35 35 65
30 67 -10 4 -117 -49 -167 -83 -20 -14 -37 -23 -38 -22 -1 1 11 42 27 90 22
66 29 102 27 145 l-3 57 -17 -34 c-34 -65 -94 -134 -172 -197 -44 -35 -81 -62
-84 -60 -2 2 13 37 33 76 19 40 33 75 30 78 -2 3 -60 -15 -127 -40 -68 -25
-124 -44 -126 -43 -2 2 4 17 13 35 20 39 15 45 -26 31 -57 -20 -55 -12 16 59
38 38 66 72 63 75 -17 17 -229 -84 -340 -161 l-77 -54 26 58 c56 127 117 216
221 321 56 57 101 105 100 107 -2 1 -46 -19 -97 -47z m82 -410 c-5 -18 -67
-69 -85 -69 -4 0 -1 15 6 33 20 47 90 80 79 36z"/>
<path d="M11515 3157 c-4 -10 -5 -21 -1 -24 10 -10 18 4 13 24 -4 17 -4 17
-12 0z"/>
</g>
</svg>
