<?xml version="1.0" encoding="UTF-8"?>
<svg role="img" aria-label="everybodyknowsyou.com" id="Layer_1" data-name="Layer 1" xmlns="http://www.w3.org/2000/svg" viewBox="0 0 1296.95 160.34">
  <defs>
    <style>
            .cls-1 { fill: var(--eky-bg, #ffffff); }
      .cls-2 { fill: var(--eky-fg, currentColor); }
    </style>
  </defs>
  <g>
    <g>
      <g>
        <rect class="cls-2" x="515.16" y="55.21" width="342.62" height="90.52" rx="12" ry="12"/>
        <path class="cls-1" d="M530.13,71.12h16.6v15.46l-.24,6.96h.32l3.32-4.61,15.14-17.81h19.83l-22.02,25.02,22.18,33.68h-19.92l-13.76-20.73-4.86,5.34v15.38h-16.6v-58.69Z"/>
        <path class="cls-1" d="M604.13,71.12v8.01h.32c4.53-6.23,10.53-9.23,18.54-9.23,12.47,0,18.94,7.29,18.94,22.02v37.89h-16.6v-35.3c0-7.69-2.75-10.85-8.58-10.85-7.21,0-11.82,4.7-11.82,12.14v34h-16.6v-58.69h15.79Z"/>
        <path class="cls-1" d="M647.37,100.43c0-17.57,11.09-30.52,29.31-30.52s29.31,12.95,29.31,30.52-11.09,30.6-29.31,30.6-29.31-13.03-29.31-30.6ZM688.66,100.43c0-9.8-3.81-17.16-11.98-17.16s-11.98,7.37-11.98,17.16,3.81,17.24,11.98,17.24,11.98-7.45,11.98-17.24Z"/>
        <path class="cls-1" d="M705.66,71.12h17.57l6.64,35.62c.41,2.02.73,4.86,1.14,6.88h.32l1.21-6.88,6.88-35.62h18.54l7.45,35.62,1.29,6.88h.32l1.05-6.88,5.99-35.62h17.24l-13.28,58.69h-21.53l-6.64-32.38-1.29-6.88h-.32l-1.21,6.88-6.56,32.38h-21.45l-13.36-58.69Z"/>
        <path class="cls-1" d="M791.81,110.79l17-.08c.57,4.78,3.72,7.53,9.31,7.53,4.61,0,7.85-1.7,7.85-5.26,0-2.67-1.78-4.37-5.59-5.26l-14.09-3.24c-8.98-2.02-13.84-7.77-13.84-16.27,0-11.5,8.99-18.3,24.69-18.3,14.65,0,23.56,6.96,23.8,18.05h-17c-.49-3.32-2.67-5.67-7.69-5.67-4.37,0-7.21,1.54-7.21,4.61,0,2.43,1.7,3.81,5.59,4.7l14.09,3.24c9.23,2.1,14.09,8.18,14.09,16.84,0,12.71-10.28,19.35-24.77,19.35-16.19,0-25.99-7.77-26.23-20.24Z"/>
      </g>
      <g>
        <path class="cls-2" d="M918.06,100.39c0-17.57,11.09-30.52,29.31-30.52s29.31,12.95,29.31,30.52-11.09,30.6-29.31,30.6-29.31-13.03-29.31-30.6ZM959.34,100.39c0-9.8-3.81-17.16-11.98-17.16s-11.98,7.37-11.98,17.16,3.81,17.24,11.98,17.24,11.98-7.45,11.98-17.24Z"/>
        <path class="cls-2" d="M1018.85,129.78v-7.85h-.32c-4.61,6.15-10.52,9.07-17.89,9.07-11.98,0-18.46-7.29-18.46-21.94v-37.97h16.6v35.38c0,7.69,2.83,10.77,8.18,10.77,6.56,0,11.09-4.61,11.09-12.63v-33.52h16.6v58.69h-15.79Z"/>
        <path class="cls-2" d="M884.01,109.52l-20.4-38.4h17.84l8.26,17.75c.99,2.06,1.9,4.96,2.89,7.02h.33c.91-2.06,1.82-4.96,2.72-7.02l7.85-17.75h17.51l-20.07,38.57v21.31h-16.93v-21.47Z"/>
      </g>
      <g>
        <path class="cls-2" d="M14.66,100.39c0-17.97,10.85-30.52,29.55-30.52s28.01,12.47,27.36,34.41h-39.35c.89,8.91,4.53,14.01,11.66,14.01,5.67,0,9.31-3,10.44-8.5h16.76c-2.19,13.28-12.31,21.21-26.88,21.21-18.7,0-29.55-12.63-29.55-30.6ZM54.58,92.54c-1.05-6.56-4.78-9.96-10.36-9.96s-9.8,3.64-11.42,9.96h21.78Z"/>
        <path class="cls-2" d="M69.8,71.09h17.49l9.47,35.62c.57,2.02,1.05,4.86,1.62,6.88h.32l1.54-6.88,8.99-35.62h17.16l-17.81,58.69h-21.13l-17.65-58.69Z"/>
        <path class="cls-2" d="M124.69,100.39c0-17.97,10.85-30.52,29.55-30.52s28.01,12.47,27.36,34.41h-39.35c.89,8.91,4.53,14.01,11.66,14.01,5.67,0,9.31-3,10.44-8.5h16.76c-2.19,13.28-12.31,21.21-26.88,21.21-18.7,0-29.55-12.63-29.55-30.6ZM164.61,92.54c-1.05-6.56-4.78-9.96-10.36-9.96s-9.8,3.64-11.42,9.96h21.78Z"/>
        <path class="cls-2" d="M187.44,71.09h15.46v9.47h.32c3.64-7.37,8.74-10.69,15.71-10.69,1.86,0,3.56.24,5.1.81v15.79h-.32c-1.7-.49-3.24-.73-5.18-.73-9.15,0-14.49,5.42-14.49,16.11v27.93h-16.6v-58.69Z"/>
        <path class="cls-2" d="M285.57,71.09h26.15c13.52,0,20.97,5.42,20.97,14.82,0,6.15-3.08,10.36-9.96,12.39v.32c8.02,1.46,12.23,6.23,12.23,13.84,0,10.52-8.42,17.33-21.7,17.33h-27.69v-58.69ZM316.66,88.82c0-3.64-2.02-5.18-6.56-5.18h-7.93v10.77h7.93c4.37,0,6.56-1.86,6.56-5.59ZM318.6,111.24c0-3.81-2.27-5.99-6.88-5.99h-9.55v11.98h9.63c4.45,0,6.8-2.19,6.8-5.99Z"/>
        <path class="cls-2" d="M337.95,100.39c0-17.57,11.09-30.52,29.31-30.52s29.31,12.95,29.31,30.52-11.09,30.6-29.31,30.6-29.31-13.03-29.31-30.6ZM379.24,100.39c0-9.8-3.8-17.16-11.98-17.16s-11.98,7.37-11.98,17.16,3.8,17.24,11.98,17.24,11.98-7.45,11.98-17.24Z"/>
        <path class="cls-2" d="M402.08,71.09h24.13c18.62,0,29.63,10.36,29.63,29.31s-11.01,29.39-29.63,29.39h-24.13v-58.69ZM438.99,100.39c0-10.77-5.83-16.19-13.36-16.19h-6.96v32.46h6.96c7.53,0,13.36-5.51,13.36-16.27Z"/>
        <path class="cls-2" d="M471.04,109.52l-20.4-38.4h17.84l8.26,17.75c.99,2.06,1.9,4.96,2.89,7.02h.33c.91-2.06,1.82-4.96,2.72-7.02l7.85-17.75h17.51l-20.07,38.57v21.31h-16.93v-21.47Z"/>
        <path class="cls-2" d="M245.89,109.52l-20.4-38.4h17.84l8.26,17.75c.99,2.06,1.9,4.96,2.89,7.02h.33c.91-2.06,1.82-4.96,2.72-7.02l7.85-17.75h17.51l-20.07,38.57v21.31h-16.93v-21.47Z"/>
      </g>
    </g>
    <g>
      <g>
        <path class="cls-2" d="M837.89,14.05c5.42-1.65,11.14.47,13.85,5.48.39.72,1.1,1.2,1.88,1.34.7.12,1.52-.2,2.16-.74,4.05-3.38,9.74-3.68,14.06-.7,4.24,2.92,5.92,8.22,4.35,13.25l-6.96,22.26c-2.45,8.46-9.67,14.45-18.27,15.02-8.94.6-17.2-4.68-20.36-13.03-.17-.45-.5-.62-.88-.67s-.66.09-.98.46c-5.78,6.49-15.01,8.59-23.07,5.2-7.59-3.19-12.57-10.83-12.37-19.15.21-8.44,5.67-16.24,13.97-18.77l32.61-9.94ZM844.69,65.73c8.85,1.59,17.31-4.28,18.9-13.13,1.59-8.85-4.28-17.31-13.13-18.9-8.85-1.59-17.31,4.28-18.9,13.13s4.28,17.31,13.13,18.9ZM808.72,59.25c8.85,1.59,17.31-4.28,18.9-13.13,1.59-8.85-4.28-17.31-13.13-18.9-8.85-1.59-17.31,4.28-18.9,13.13-1.59,8.85,4.28,17.31,13.13,18.9Z"/>
        <g>
          <path class="cls-1" d="M850.46,33.7c8.85,1.59,14.72,10.06,13.13,18.9-1.59,8.85-10.06,14.72-18.9,13.13-8.85-1.59-14.72-10.06-13.13-18.9s10.06-14.72,18.9-13.13Z"/>
          <path class="cls-1" d="M814.49,27.22c8.85,1.59,14.72,10.06,13.13,18.9-1.59,8.85-10.06,14.72-18.9,13.13-8.85-1.59-14.72-10.06-13.13-18.9,1.59-8.85,10.06-14.72,18.9-13.13Z"/>
        </g>
      </g>
      <g>
        <g>
          <path class="cls-2" d="M847.57,56.91c-.06-.86-.28-1.56-.42-2.47.64.65,1.19,1.16,1.91,1.66,1.12.79,2.71.42,3.44-.7.73-1.11.45-2.64-.68-3.44-.71-.5-1.52-.66-2.4-1.05,1.54-.53,3.13-1,3.41-2.57.17-.93-.14-1.9-.84-2.43-1.03-.79-2.26-.75-3.22.02-.58.46-1.06.91-1.67,1.49.18-.89.4-1.63.45-2.5.09-1.44-1.09-2.58-2.46-2.58s-2.55,1.17-2.48,2.62c.04.85.33,1.53.43,2.46-.47-.54-.95-.89-1.43-1.33-1.13-1.04-2.8-.99-3.77.19-.91,1.1-.66,2.87.58,3.67.72.46,1.49.65,2.34.99-.88.38-1.73.56-2.45,1.09-1.21.89-1.32,2.65-.36,3.69,1.04,1.12,2.62,1.06,3.73.03l1.46-1.34c-.23.92-.51,1.75-.51,2.68,0,1.41,1.2,2.5,2.56,2.45s2.46-1.22,2.37-2.6Z"/>
          <path class="cls-2" d="M847.57,56.91c.09,1.38-1.03,2.55-2.37,2.6s-2.56-1.05-2.56-2.45c0-.94.27-1.76.51-2.68l-1.46,1.34c-1.12,1.03-2.7,1.09-3.73-.03-.96-1.04-.84-2.8.36-3.69.71-.53,1.56-.71,2.45-1.09-.85-.34-1.62-.53-2.34-.99-1.24-.79-1.49-2.57-.58-3.67.97-1.17,2.64-1.23,3.77-.19.48.45.96.79,1.43,1.33-.1-.93-.38-1.61-.43-2.46-.07-1.44,1.07-2.62,2.48-2.62s2.55,1.14,2.46,2.58c-.05.87-.27,1.6-.45,2.5.61-.58,1.09-1.03,1.67-1.49.96-.77,2.19-.81,3.22-.02.7.54,1,1.5.84,2.43-.28,1.57-1.87,2.04-3.41,2.57.88.39,1.69.54,2.4,1.05,1.13.8,1.41,2.33.68,3.44-.73,1.11-2.32,1.48-3.44.7-.72-.5-1.27-1.01-1.91-1.66.14.92.37,1.62.42,2.47Z"/>
        </g>
        <g>
          <path class="cls-2" d="M810.13,50.42c.09-1.04-.23-1.92-.46-2.9.76.65,1.37,1.38,2.24,1.82,1.23.63,2.73.08,3.32-1.08s.21-2.6-.95-3.29c-.73-.43-1.51-.63-2.28-.94.71-.21,1.29-.46,1.92-.73,1.42-.61,1.98-2.23,1.25-3.55s-2.48-1.69-3.67-.79c-.67.5-1.22,1.01-1.84,1.61.23-1.08.58-2.02.43-3.07-.18-1.23-1.33-2.03-2.49-2.01s-2.27.88-2.4,2.1c-.11,1.04.22,1.91.45,2.98-.52-.57-1.04-.93-1.58-1.42-1.11-1-2.86-.89-3.77.32s-.53,2.95.79,3.67c.74.41,1.47.63,2.23.89-.85.33-1.63.52-2.35.98-1.23.78-1.49,2.47-.66,3.57s2.46,1.35,3.58.48c.64-.49,1.17-.96,1.77-1.57-.22,1.07-.56,1.95-.45,2.98.14,1.28,1.29,2.13,2.5,2.11s2.29-.84,2.41-2.17Z"/>
          <path class="cls-2" d="M810.13,50.42c-.12,1.32-1.24,2.14-2.41,2.17s-2.36-.83-2.5-2.11c-.11-1.03.23-1.91.45-2.98-.6.61-1.13,1.08-1.77,1.57-1.12.87-2.73.66-3.58-.48s-.57-2.79.66-3.57c.72-.46,1.5-.64,2.35-.98-.77-.26-1.49-.48-2.23-.89-1.32-.73-1.68-2.5-.79-3.67s2.66-1.32,3.77-.32c.54.49,1.06.85,1.58,1.42-.23-1.07-.56-1.94-.45-2.98.13-1.22,1.24-2.08,2.4-2.1s2.31.78,2.49,2.01c.15,1.05-.2,1.99-.43,3.07.62-.6,1.17-1.1,1.84-1.61,1.2-.9,2.97-.5,3.67.79s.17,2.93-1.25,3.55c-.63.27-1.21.52-1.92.73.77.32,1.55.51,2.28.94,1.16.68,1.53,2.13.95,3.29s-2.09,1.71-3.32,1.08c-.87-.44-1.48-1.17-2.24-1.82.23.98.55,1.86.46,2.9Z"/>
        </g>
      </g>
    </g>
  </g>
  <g fill="var(--eky-fg, currentColor)">
    <path d="M1046.08,112.99h15.96v16.61h-15.96v-16.61Z"/>
    <path d="M1065.91,100.33c0-17.49,11.29-30.39,29.1-30.39,13.79,0,25.15,8.06,26.36,22.41h-16.85c-.56-5.8-4.03-9.11-9.43-9.11-8.06,0-11.93,7.42-11.93,17.09s3.79,17.17,11.85,17.17c5.4,0,8.95-3.3,9.67-9.67h16.85c-1.13,14.91-12.66,22.97-26.52,22.97-18.14,0-29.1-12.98-29.1-30.47Z"/>
    <path d="M1124.75,100.33c0-17.49,11.04-30.39,29.18-30.39s29.18,12.9,29.18,30.39-11.04,30.47-29.18,30.47-29.18-12.98-29.18-30.47ZM1165.86,100.33c0-9.75-3.79-17.09-11.93-17.09s-11.93,7.33-11.93,17.09,3.79,17.17,11.93,17.17,11.93-7.42,11.93-17.17Z"/>
    <path d="M1204.31,71.15v7.98h.32c4.43-5.97,10.64-9.19,17.9-9.19s12.41,3.14,15.4,9.19h.32c4.92-6.21,10.72-9.19,17.9-9.19,12.58,0,19.27,8.71,19.27,22.81v36.84h-16.53v-34.26c0-7.66-2.34-11.69-8.06-11.69-6.53,0-10.56,5-10.56,12.9v33.05h-16.53v-34.34c0-7.58-2.42-11.61-8.14-11.61-6.61,0-10.48,5.24-10.48,12.9v33.05h-16.53v-58.44h15.72Z"/>
  </g>
</svg>