<?xml version="1.0" encoding="UTF-8"?>
<svg id="Layer_1" data-name="Layer 1" xmlns="http://www.w3.org/2000/svg" viewBox="0 0 1000 1000">
  <defs>
    <style>
      .cls-1 {
        fill: none;
        stroke: #F2E8D5;
        stroke-miterlimit: 10;
        stroke-width: 7px;
      }

      .cls-1, .cls-2 {
        fill-rule: evenodd;
      }

      .cls-2 {
        fill: #F2E8D5;
      }
    </style>
  </defs>
  <path class="cls-2" d="M748.91,761.92h27.97v-67.26h2.67l45.76,67.26h32.43v-107h-27.97v67.26h-2.55l-45.12-67.26h-33.2v107ZM626.24,761.92h92.18v-23.24h-63.44v-20.36h61.15v-20h-61.15v-20.18h63.44v-23.23h-92.18v107ZM595.2,704.45h-56.38v17.58h28.51c-3.57,15.08-18.22,18.65-26.98,18.65-17.58,0-31.08-13.17-31.08-32.28s13.25-32.23,31.85-32.23c11.95,0,20.87,5.73,24.31,14.01h28.51c-5.22-27.46-29.4-38.78-53.32-38.78-35.92,0-59.87,23.11-59.87,56.99s24.97,57.04,57.45,57.04c18.96,0,32.33-7.75,39.72-18.55l.38,15.03h16.92v-57.48ZM423.3,761.92h28.74v-107h-28.74v107ZM318.28,678.89h27.49c11.64,0,17.91,5.37,17.91,15.47s-6.27,15.44-17.91,15.44h-27.49v-30.9ZM395.19,761.92l-20.2-36.25c10.29-6.09,17.27-16.76,17.27-31.57,0-26.04-15.74-39.16-44.69-39.16h-58.04v106.98h28.74v-30.42h32.1l16.48,30.42h28.33ZM201.69,740.67c-17.43,0-30.9-12.61-30.9-32.25s13.48-32.25,30.9-32.25,30.9,12.48,30.9,32.25-13.6,32.25-30.9,32.25ZM201.69,765.44c35.49,0,59.31-23.23,59.31-57.02s-23.82-57.02-59.31-57.02-59.44,23.11-59.44,57.02,23.82,57.02,59.44,57.02Z"/>
  <path class="cls-2" d="M822.61,852.67c-11.33,0-20.08-8.35-20.08-20.9s8.75-20.9,20.08-20.9,20.08,8.35,20.08,20.9-8.67,20.9-20.08,20.9M822.61,865.81c20.92,0,35.14-13.98,35.14-34.05s-14.22-34.05-35.14-34.05-35.05,13.98-35.05,34.05,14.21,34.05,35.05,34.05ZM716.05,812.5h17.57c7.68,0,11.93,3.5,11.93,10.27s-4.24,10.27-11.93,10.27h-17.57v-20.54ZM762.21,863.71l-12.47-22.1c6.54-3.56,10.88-10.01,10.88-18.91,0-14.91-9.05-22.88-26.15-22.88h-33.53v63.9h15.12v-19.08h20.61l10.48,19.08h15.06ZM617.28,863.7h53.77v-12.48h-38.64v-14.07h37.27v-10.95h-37.27v-13.98h38.64v-12.4h-53.77v63.88ZM553.95,850.93h-14.15l.15-38.34h14c12.4,0,19.09,6.85,19.09,19.17s-6.69,19.17-19.09,19.17ZM554.02,799.81h-29.36v63.9h29.36c24.8,0,34.23-13.77,34.23-31.95s-9.43-31.95-34.23-31.95ZM450.22,841.53l10.04-27.38h2.89l10.04,27.38h-22.97ZM481.41,863.71h15.73l-24.78-63.9h-21.3l-24.72,63.9h15.67l3.96-10.7h31.49l3.96,10.7ZM335.3,863.71h14.79v-42.98h1.37l30.06,42.98h17.22v-63.9h-14.79v42.98h-1.45l-29.68-42.98h-17.52v63.9ZM260.87,841.53l10.04-27.38h2.89l10.04,27.38h-22.97ZM292.06,863.71h15.73l-24.78-63.9h-21.3l-24.72,63.9h15.67l3.96-10.7h31.49l3.96,10.7ZM209.8,829.94h-33.41v10.22h18.57c-2.21,9.69-11.11,12.51-17.51,12.51-11.49,0-20.23-8.7-20.23-20.9s8.67-20.9,20.54-20.9c7.7,0,13.48,3.58,15.91,9.34h15.14c-3.42-16.04-17.42-22.49-31.28-22.49-20.99,0-35.28,13.98-35.28,34.05s14.74,34.05,34.06,34.05c11.35,0,19.41-4.72,23.82-11.4l.15,9.3h9.51v-33.77Z"/>
  <path class="cls-1" d="M417.88,242.15h-149.29c-48.24.23-87.46-38.67-87.46-86.94,0-6.23.66-12.31,1.9-18.16.21-1.02-.3-2.02-1.25-2.44-.95-.42-2.03-.13-2.64.71-13.23,18.15-21.03,40.51-21.03,64.7,0,14.93,2.98,29.16,8.37,42.14,17.06,41.09,57.62,68.2,102.18,67.81h149.22c12.16,0,23.74,2.66,34.17,7.43,28.21,12.93,47.96,41.38,47.96,74.7s19.74,61.76,47.95,74.69c12.71-22.05,19.97-47.59,19.97-74.75s-7.26-52.62-19.97-74.64c-11.78-20.43-28.25-37.85-47.96-50.77-23.57-15.46-51.78-24.48-82.13-24.48M452.05,466.8c-10.42,4.78-22,7.44-34.17,7.44h-1.61s-1.5-.06-1.5-.06l-1.15-.05-.49-.02-1.01-.07-.57-.04-.76-.06-.94-.08-.46-.05c-11.4-1.17-22.1-4.67-31.64-10.02l-1.3-.74-1.22-.73-2.39-1.51c-15.19-9.96-27.01-24.88-32.98-42.96-6.62-20.06-5.12-41.29,3.19-59.64h-71.27c-2.52,10.9-3.85,22.25-3.85,33.91,0,82.42,66.74,149.94,149.95,149.94,30.37,0,58.57-9.01,82.13-24.46-19.71-12.92-36.17-30.36-47.96-50.79Z"/>
  <path class="cls-1" d="M452.05,466.8c11.78,20.44,28.25,37.87,47.96,50.79,23.56,15.45,51.76,24.46,82.13,24.46,83.21,0,149.95-67.52,149.95-149.94,0-11.66-1.33-23.02-3.85-33.91h-146.1v67.82h74.83c-12.91,28.44-41.56,48.22-74.83,48.22-12.17,0-23.75-2.66-34.17-7.44-28.21-12.93-47.95-41.38-47.95-74.69s-19.75-61.77-47.96-74.7c-12.7,22.02-19.97,47.53-19.97,74.64s7.26,52.7,19.97,74.75M582.13,309.97h149.22c44.56.38,85.12-26.73,102.18-67.81,5.39-12.98,8.37-27.21,8.37-42.14,0-24.18-7.81-46.54-21.03-64.7-.61-.83-1.7-1.13-2.64-.71-.95.42-1.46,1.42-1.25,2.44,1.25,5.86,1.9,11.94,1.9,18.16,0,48.27-39.22,87.17-87.46,86.94h-149.29c-30.35,0-58.55,9.02-82.13,24.48,19.7,12.92,36.17,30.35,47.96,50.77,10.42-4.78,22-7.43,34.17-7.43Z"/>
</svg>